<?xml version="1.0" encoding="UTF-8" standalone="no"?>
<svg
   data-name="Layer 1"
   viewBox="0 0 24 21.354298"
   version="1.1"
   id="svg2"
   sodipodi:docname="logo.svg"
   width="24"
   height="21.354298"
   inkscape:version="1.4.2 (ebf0e940d0, 2025-05-08)"
   xmlns:inkscape="http://www.inkscape.org/namespaces/inkscape"
   xmlns:sodipodi="http://sodipodi.sourceforge.net/DTD/sodipodi-0.dtd"
   xmlns="http://www.w3.org/2000/svg"
   xmlns:svg="http://www.w3.org/2000/svg"
   xmlns:rdf="http://www.w3.org/1999/02/22-rdf-syntax-ns#"
   xmlns:cc="http://creativecommons.org/ns#"
   xmlns:dc="http://purl.org/dc/elements/1.1/">
  <defs
     id="defs2" />
  <sodipodi:namedview
     id="namedview2"
     pagecolor="#ffffff"
     bordercolor="#999999"
     borderopacity="1"
     inkscape:showpageshadow="2"
     inkscape:pageopacity="0"
     inkscape:pagecheckerboard="0"
     inkscape:deskcolor="#d1d1d1"
     inkscape:zoom="24.434783"
     inkscape:cx="11.5"
     inkscape:cy="10.251779"
     inkscape:window-width="1366"
     inkscape:window-height="707"
     inkscape:window-x="0"
     inkscape:window-y="0"
     inkscape:window-maximized="1"
     inkscape:current-layer="svg2" />
  <title
     id="title1">logo</title>
  <path
     d="M 19.732174,6.9228127 Q 19.349217,6.7913345 18.96,6.6786388 q 0.0647,-0.2629565 0.12,-0.528 C 19.664348,3.3123779 19.282435,1.0250736 17.976,0.27168234 16.723826,-0.45040462 14.676522,0.30298664 12.608348,2.1029866 q -0.305739,0.266087 -0.59687,0.5478261 -0.19513,-0.1878261 -0.396521,-0.3673043 C 9.4466087,0.36037799 7.2730435,-0.44936114 5.9686957,0.30403016 4.7196522,1.028204 4.3492174,3.1788127 4.8730435,5.8688997 q 0.080348,0.3996522 0.1773913,0.7951304 C 4.7446957,6.7516823 4.4473043,6.8445519 4.1634783,6.9436823 1.6226087,7.8306388 0,9.2184649 0,10.658465 c 0,1.486956 1.7426087,2.97913 4.3888696,3.881739 q 0.3213913,0.110609 0.6490434,0.204522 -0.1064347,0.424695 -0.187826,0.855652 c -0.5029566,2.64313 -0.1106087,4.742608 1.1373913,5.462608 1.2876521,0.742957 3.4497391,-0.02087 5.5565217,-1.861565 q 0.250435,-0.217043 0.50087,-0.461217 0.31513,0.305739 0.646956,0.592695 c 2.041044,1.755131 4.054957,2.462609 5.30087,1.742609 1.288695,-0.746087 1.70713,-3.001043 1.163478,-5.744348 q -0.06261,-0.313043 -0.144,-0.640695 0.227478,-0.06678 0.446609,-0.138783 C 22.210435,13.639682 24,12.165247 24,10.658465 24,9.212204 22.325217,7.8149866 19.732174,6.9228127 Z M 13.283478,2.8772475 c 1.771826,-1.5422609 3.427826,-2.14956516 4.184348,-1.7154782 0.803478,0.4633043 1.114435,2.3321739 0.609391,4.7833043 q -0.04904,0.24 -0.107478,0.4768696 A 24.561391,24.561391 0 0 0 14.76,5.9148127 24.083478,24.083478 0 0 0 12.730435,3.382291 Q 12.999652,3.1235084 13.281391,2.8772475 Z M 7.0852174,11.886639 q 0.3266087,0.63026 0.6813913,1.241739 Q 8.1286957,13.754465 8.52,14.362813 A 21.831652,21.831652 0 0 1 6.3078261,14.00803 c 0.2128696,-0.685565 0.4737391,-1.398261 0.7784348,-2.120348 z m 0,-2.410435 C 6.7867826,8.7687258 6.5321739,8.0727258 6.3234783,7.3996823 7.0069565,7.246291 7.7373913,7.1210736 8.498087,7.0261171 Q 8.1161739,7.6208997 7.7624348,8.2365519 7.4076522,8.8480301 7.0841739,9.476204 Z M 7.629913,10.682465 Q 8.1036522,9.6963779 8.6525217,8.7478562 9.1972174,7.798291 9.8149565,6.8956823 C 10.528696,6.8414214 11.260174,6.812204 12,6.812204 c 0.742957,0 1.475478,0.029217 2.189217,0.083478 q 0.610435,0.9026087 1.156174,1.8469565 0.54887,0.9453913 1.035131,1.9252175 -0.48,0.989217 -1.030957,1.942957 -0.545739,0.947478 -1.152,1.857391 c -0.711652,0.05217 -1.447304,0.07722 -2.197565,0.07722 -0.74713,0 -1.473391,-0.02296 -2.1725217,-0.06887 Q 9.2055652,13.568726 8.6546087,12.61603 8.1057391,11.666465 7.629913,10.681421 Z m 8.608696,2.441739 q 0.361043,-0.629218 0.694956,-1.273044 a 21.774261,21.774261 0 0 1 0.805565,2.112 21.758609,21.758609 0 0 1 -2.23826,0.38087 q 0.379826,-0.603131 0.736695,-1.22087 z M 16.92313,9.4772475 q -0.331826,-0.6302609 -0.688695,-1.248 -0.352696,-0.6073043 -0.730435,-1.2 c 0.76487,0.097043 1.498435,0.2253913 2.188174,0.3829565 A 21.871304,21.871304 0 0 1 16.92313,9.478291 Z M 12.010435,4.1179432 a 21.926609,21.926609 0 0 1 1.412869,1.7050434 q -1.417043,-0.067826 -2.836174,0 C 11.053565,5.2073345 11.531478,4.6355084 12.011478,4.1179432 Z M 6.4841739,1.1909866 c 0.8034783,-0.46434774 2.5773913,0.1982609 4.4493911,1.8605218 0.12,0.1064348 0.24,0.2170435 0.36,0.3318261 A 24.568696,24.568696 0 0 0 9.2483478,5.9148127 25.051826,25.051826 0 0 0 6.0469565,6.4125519 Q 5.9551304,6.0452475 5.882087,5.6716823 v 0.00209 C 5.4302609,3.3676823 5.7297391,1.6292475 6.4841739,1.1930736 Z M 5.3113043,13.757595 Q 5.013913,13.67203 4.7206957,13.572899 A 8.685913,8.685913 0 0 1 1.92,12.084899 2.1182609,2.1182609 0 0 1 1.0257391,10.657421 c 0,-0.8733909 1.3022609,-1.9878257 3.4747826,-2.7443474 q 0.410087,-0.144 0.8264348,-0.2608696 a 24.589565,24.589565 0 0 0 1.1686957,3.030261 24.962087,24.962087 0 0 0 -1.1833044,3.074087 z m 5.5575657,4.674783 a 8.6838261,8.6838261 0 0 1 -2.686957,1.68 2.1182609,2.1182609 0 0 1 -1.6820869,0.0647 C 5.7433043,19.738813 5.4281739,18.054639 5.8570435,15.794465 q 0.077217,-0.401739 0.1753043,-0.797218 a 24.108522,24.108522 0 0 0 3.2347826,0.467479 24.949565,24.949565 0 0 0 2.0598266,2.546087 q -0.223305,0.216 -0.457044,0.420521 z m 1.170782,-1.160348 c -0.486261,-0.523826 -0.970435,-1.104 -1.444174,-1.728 Q 11.284174,15.57116 12,15.57116 q 0.733565,0 1.448348,-0.0313 a 21.802435,21.802435 0 0 1 -1.408696,1.732174 z m 6.226435,1.426435 a 2.1182609,2.1182609 0 0 1 -0.785739,1.490087 c -0.756522,0.438261 -2.373913,-0.131479 -4.118609,-1.632 q -0.299478,-0.256696 -0.60313,-0.54887 a 24.093913,24.093913 0 0 0 2.011826,-2.554435 23.933217,23.933217 0 0 0 3.250435,-0.500869 q 0.07304,0.296348 0.129391,0.580174 a 8.6817391,8.6817391 0 0 1 0.114782,3.166956 z m 0.870261,-5.120348 c -0.132522,0.04383 -0.267131,0.08556 -0.40487,0.125217 A 24.062609,24.062609 0 0 0 17.51687,10.663682 24.052174,24.052174 0 0 0 18.685565,7.6688997 c 0.244174,0.069913 0.483131,0.1460869 0.712696,0.2243478 2.222609,0.7638261 3.577043,1.8949565 3.577043,2.7652175 0,0.928695 -1.464,2.132869 -3.84,2.919652 z"
     fill="#61dafb"
     id="path1"
     style="stroke-width:1.04348" />
  <path
     d="M 12,8.5151606 A 2.1433043,2.1433043 0 1 1 9.8566957,10.656378 2.1433043,2.1433043 0 0 1 12,8.516204"
     fill="#61dafb"
     id="path2"
     style="stroke-width:1.04348" />
  <metadata
     id="metadata2">
    <rdf:RDF>
      <cc:Work
         rdf:about="">
        <dc:title>logo</dc:title>
      </cc:Work>
    </rdf:RDF>
  </metadata>
</svg>
