<?xml version="1.0" encoding="UTF-8" standalone="no"?>
<svg
   width="24"
   height="23.11574"
   viewBox="0 0 24 23.11574"
   version="1.1"
   sodipodi:docname="icon.svg"
   inkscape:version="1.4.2 (ebf0e940d0, 2025-05-08)"
   id="svg1"
   xmlns:inkscape="http://www.inkscape.org/namespaces/inkscape"
   xmlns:sodipodi="http://sodipodi.sourceforge.net/DTD/sodipodi-0.dtd"
   xmlns="http://www.w3.org/2000/svg"
   xmlns:svg="http://www.w3.org/2000/svg">
  <sodipodi:namedview
     id="namedview4"
     pagecolor="#ffffff"
     bordercolor="#000000"
     borderopacity="0.25"
     inkscape:showpageshadow="2"
     inkscape:pageopacity="0.0"
     inkscape:pagecheckerboard="0"
     inkscape:deskcolor="#d1d1d1"
     inkscape:zoom="21.111156"
     inkscape:cx="12.031553"
     inkscape:cy="11.55787"
     inkscape:window-width="1366"
     inkscape:window-height="699"
     inkscape:window-x="0"
     inkscape:window-y="0"
     inkscape:window-maximized="1" />
  <defs
     id="defs1">
    <style
       id="style1">
      .cls-1 {
        fill: #fca326;
      }

      .cls-2 {
        fill: #fc6d26;
      }

      .cls-3 {
        fill: #e24329;
      }
    </style>
  </defs>
  <path
     class="cls-3"
     d="M 23.598575,9.1495853 23.565689,9.06356 20.29882,0.54015745 C 20.233542,0.37317215 20.116141,0.23250017 19.963335,0.13534152 19.811022,0.0376802 19.632397,-0.00836646 19.451237,0.00124821 19.271103,0.01086154 19.098035,0.0766442 18.956854,0.18898018 18.816685,0.30233082 18.715481,0.4556548 18.667918,0.62871343 L 16.462173,7.3795296 H 7.5380096 L 5.3322634,0.62871343 C 5.2847007,0.4556548 5.1834967,0.30233216 5.0433274,0.18898018 4.9021461,0.07664553 4.7290915,0.01086287 4.5489462,0.00124821 4.3677982,-0.00836512 4.1891596,0.0376802 4.0368596,0.13534152 3.8840396,0.23250017 3.7666396,0.37317215 3.7013623,0.54015745 L 0.43450554,9.064068 0.40160688,9.1495853 c -0.96802249,2.5250427 -0.14320797,5.3794987 2.01244232,7.0098967 0.00404,0.0025 0.00759,0.0056 0.01164,0.0086 l 0.028847,0.02176 4.9761938,3.725321 2.4612875,1.863166 1.4978245,1.132472 c 0.360787,0.273253 0.859716,0.273253 1.220515,0 l 1.497811,-1.132472 2.460782,-1.863166 5.005548,-3.747079 c 0.0046,-0.0035 0.0086,-0.0066 0.01316,-0.01012 2.154131,-1.630395 2.97844,-4.483844 2.010923,-7.008378 z"
     id="path1" />
  <path
     class="cls-2"
     d="M 23.598575,9.1495853 23.565689,9.06356 c -1.620783,0.3329626 -3.113543,1.018618 -4.39175,1.974998 -0.02074,0.01518 -3.884211,2.93694 -7.173849,5.424031 2.442561,1.846973 4.568858,3.452574 4.568858,3.452574 l 5.005547,-3.747078 c 0.0046,-0.0035 0.0086,-0.0066 0.01316,-0.01012 2.154132,-1.630396 2.978439,-4.483844 2.010922,-7.0083783 z"
     id="path2" />
  <path
     class="cls-1"
     d="M 7.430727,19.915162 9.8920146,21.778328 11.38984,22.9108 c 0.360785,0.273253 0.859715,0.273253 1.220514,0 l 1.497812,-1.132472 2.460782,-1.863166 c 0,0 -2.126297,-1.605601 -4.568858,-3.452576 -2.4430674,1.846975 -4.569363,3.452576 -4.569363,3.452576 z"
     id="path3" />
  <path
     class="cls-2"
     d="M 4.8257355,11.038558 C 3.5480343,10.082686 2.0557813,9.3965226 0.43450421,9.064068 l -0.0328987,0.085517 c -0.9680225,2.525043 -0.14320797,5.379499 2.01244239,7.009897 0.00404,0.0025 0.00759,0.0056 0.01164,0.0086 l 0.028847,0.02176 4.9761938,3.725321 c 0,0 2.1262957,-1.605602 4.5693633,-3.452575 -3.2896368,-2.487091 -7.1535988,-5.408849 -7.1743535,-5.42403 z"
     id="path4" />
</svg>
