<?xml version="1.0" encoding="UTF-8" standalone="no"?>
<svg
   width="24.000002"
   height="5.1996989"
   viewBox="0 0 24.000002 5.1996989"
   version="1.1"
   sodipodi:docname="logo-dark.svg"
   inkscape:version="1.4.2 (ebf0e940d0, 2025-05-08)"
   id="svg1"
   xmlns:inkscape="http://www.inkscape.org/namespaces/inkscape"
   xmlns:sodipodi="http://sodipodi.sourceforge.net/DTD/sodipodi-0.dtd"
   xmlns="http://www.w3.org/2000/svg"
   xmlns:svg="http://www.w3.org/2000/svg">
  <sodipodi:namedview
     id="namedview10"
     pagecolor="#ffffff"
     bordercolor="#000000"
     borderopacity="0.25"
     inkscape:showpageshadow="2"
     inkscape:pageopacity="0.0"
     inkscape:pagecheckerboard="0"
     inkscape:deskcolor="#d1d1d1"
     inkscape:zoom="0.6959596"
     inkscape:cx="495"
     inkscape:cy="189.66618"
     inkscape:window-width="1366"
     inkscape:window-height="699"
     inkscape:window-x="0"
     inkscape:window-y="0"
     inkscape:window-maximized="1" />
  <defs
     id="defs1">
    <style
       id="style1">
      .cls-1 {
        fill: #fca326;
      }

      .cls-2 {
        fill: #fff;
      }

      .cls-3 {
        fill: #fc6d26;
      }

      .cls-4 {
        fill: #e24329;
      }
    </style>
  </defs>
  <g
     id="g6"
     transform="matrix(0.03466466,0,0,0.03466466,-5.1590057,-3.9864358)">
    <path
       class="cls-2"
       d="m 427.52099,171.50805 h 22.77544 c -3.79587,-24.22145 -24.76384,-41.09221 -52.05821,-41.09221 -32.2953,0 -56.51684,23.73956 -56.51684,63.50619 0,39.04368 23.13701,63.26551 57.17964,63.26551 30.5481,0 52.41968,-19.64262 52.41968,-51.45605 v -14.82212 h -50.06982 v 17.47331 h 28.43917 c -0.36147,17.59372 -12.11078,28.74038 -30.6685,28.74038 -20.66664,0 -34.82596,-15.48492 -34.82596,-43.44209 0,-27.77638 14.40038,-43.20103 34.34396,-43.20103 14.88238,0 25.00478,7.95333 28.98144,21.02811 z"
       id="path1" />
    <path
       class="cls-2"
       d="m 466.37404,255.50034 h 21.81144 v -92.54815 h -21.81144 z m 10.96611,-107.20363 c 6.9293,0 12.59229,-5.30226 12.59229,-11.80948 0,-6.56753 -5.66299,-11.86975 -12.59229,-11.86975 -6.98907,0 -12.6533,5.30223 -12.6533,11.86975 0,6.50722 5.66423,11.80948 12.6533,11.80948 z"
       id="path2" />
    <path
       class="cls-2"
       d="M 553.49902,162.95219 H 535.2425 v -22.17291 h -21.81144 v 22.17291 h -13.13517 v 16.87078 h 13.13517 v 51.45568 c -0.11953,17.41292 12.53252,25.96865 28.9213,25.48677 6.20586,-0.18054 10.48423,-1.38586 12.83386,-2.16906 l -3.67447,-17.05145 c -1.20532,0.3012 -3.67572,0.84347 -6.38767,0.84347 -5.48243,0 -9.88158,-1.928 -9.88158,-10.72492 v -47.84049 h 18.25652 z"
       id="path3" />
    <path
       class="cls-2"
       d="m 570.37976,255.50034 h 76.70177 V 236.76157 H 592.73409 V 132.1029 h -22.35433 z"
       id="path4" />
    <path
       class="cls-2"
       d="m 688.85462,257.36807 c 14.52102,0 23.19731,-6.80852 27.17309,-14.58118 h 0.72343 v 12.71344 h 20.96846 v -61.93979 c 0,-24.46263 -19.9437,-31.81342 -37.59753,-31.81342 -19.46183,0 -34.40499,8.67639 -39.225,25.54717 l 20.3658,2.89213 c 2.16907,-6.32653 8.31393,-11.74932 18.97871,-11.74932 10.12314,0 15.66659,5.18173 15.66659,14.27985 v 0.36147 c 0,6.26639 -6.5682,6.56759 -22.89598,8.31492 -17.95642,1.92813 -35.12715,7.29053 -35.12715,28.13797 0,18.19624 13.31571,27.83676 30.96958,27.83676 z m 7.17056,-16.0273 c -9.09838,0 -15.6056,-4.15746 -15.6056,-12.17106 0,-8.37506 7.29167,-11.86972 17.05246,-13.25558 5.72401,-0.7832 17.172,-2.22933 20.00347,-4.51892 v 10.90572 c 0,10.30319 -8.31518,19.03984 -21.45033,19.03984 z"
       id="path5" />
    <path
       class="cls-2"
       d="m 753.80861,255.50034 h 21.44912 v -14.5813 h 1.26507 c 3.4354,6.74826 10.60501,16.20748 26.51191,16.20748 21.81148,0 38.13921,-17.29201 38.13921,-47.77984 0,-30.8493 -16.80964,-47.59955 -38.2002,-47.59955 -16.32777,0 -23.13628,9.82119 -26.45092,16.50918 h -0.90275 v -46.1534 h -21.81144 v 123.39744 z m 21.38935,-46.2742 c 0,-17.95518 7.71251,-29.58397 21.75045,-29.58397 14.52102,0 21.99323,12.35172 21.99323,29.58397 0,17.35278 -7.59175,30.00583 -21.99323,30.00583 -13.91839,0 -21.75045,-12.05051 -21.75045,-30.00583 z"
       id="path6" />
  </g>
  <g
     id="g10"
     transform="matrix(0.03466466,0,0,0.03466466,-5.1590057,-3.9864358)">
    <path
       class="cls-4"
       d="m 301.95924,174.37243 -0.2134,-0.55822 -21.19899,-55.30908 c -0.4236,-1.08359 -1.18542,-1.99642 -2.17699,-2.62689 -0.98837,-0.63373 -2.14749,-0.93253 -3.32305,-0.87014 -1.1689,0.0624 -2.29195,0.48925 -3.20809,1.21821 -0.90957,0.73554 -1.56629,1.73047 -1.87493,2.85346 l -14.31327,43.80662 H 197.74087 L 183.4276,119.07977 c -0.30864,-1.12299 -0.96536,-2.11791 -1.87493,-2.85346 -0.91614,-0.72895 -2.03911,-1.15582 -3.20809,-1.21821 -1.17548,-0.0624 -2.33468,0.23641 -3.32297,0.87014 -0.99166,0.63047 -1.75348,1.5433 -2.17707,2.62689 l -21.19891,55.31237 -0.21348,0.55493 c -6.28158,16.38521 -0.92929,34.90803 13.05891,45.48782 0.0262,0.0164 0.0492,0.0361 0.0755,0.0558 l 0.18719,0.14119 32.29094,24.17392 15.97151,12.09024 9.71951,7.34871 c 2.34117,1.77316 5.57877,1.77316 7.92002,0 l 9.71943,-7.34871 15.96822,-12.09024 32.48142,-24.31511 c 0.0296,-0.023 0.0559,-0.0427 0.0854,-0.0657 13.97834,-10.57977 19.32735,-29.09604 13.04905,-45.47796 z"
       id="path7" />
    <path
       class="cls-3"
       d="m 301.95924,174.37243 -0.2134,-0.55822 c -10.5174,2.16062 -20.20405,6.6099 -28.49844,12.81593 -0.1346,0.0985 -25.20497,19.05805 -46.55171,35.19699 15.84998,11.98517 29.6477,22.40405 29.6477,22.40405 l 32.48142,-24.31511 c 0.0296,-0.023 0.0559,-0.0427 0.0854,-0.0657 13.97834,-10.57977 19.32735,-29.09604 13.04905,-45.47796 z"
       id="path8" />
    <path
       class="cls-1"
       d="m 197.0447,244.23117 15.97151,12.09024 9.71951,7.34871 c 2.34117,1.77316 5.57877,1.77316 7.92002,0 l 9.71943,-7.34871 15.96822,-12.09024 c 0,0 -13.79772,-10.41888 -29.6477,-22.40405 -15.85327,11.98517 -29.65099,22.40405 -29.65099,22.40405 z"
       id="path9" />
    <path
       class="cls-3"
       d="m 180.14069,186.63014 c -8.29111,-6.20274 -17.97446,-10.65531 -28.49507,-12.81264 l -0.21348,0.55493 c -6.28158,16.38521 -0.92929,34.90803 13.05891,45.48782 0.0262,0.0164 0.0492,0.0361 0.0755,0.0558 l 0.18719,0.14119 32.29094,24.17392 c 0,0 13.79772,-10.41888 29.65099,-22.40405 -21.34673,-16.13894 -46.42031,-35.09848 -46.55499,-35.19699 z"
       id="path10" />
  </g>
</svg>
