<?xml version="1.0" encoding="UTF-8" standalone="no"?>
<svg
   id="Layer_1"
   data-name="Layer 1"
   width="23.999977"
   height="5.2000723"
   viewBox="0 0 23.999977 5.2000723"
   version="1.1"
   sodipodi:docname="logo-mono-light.svg"
   inkscape:version="1.4.2 (ebf0e940d0, 2025-05-08)"
   xmlns:inkscape="http://www.inkscape.org/namespaces/inkscape"
   xmlns:sodipodi="http://sodipodi.sourceforge.net/DTD/sodipodi-0.dtd"
   xmlns="http://www.w3.org/2000/svg"
   xmlns:svg="http://www.w3.org/2000/svg">
  <sodipodi:namedview
     id="namedview7"
     pagecolor="#ffffff"
     bordercolor="#000000"
     borderopacity="0.25"
     inkscape:showpageshadow="2"
     inkscape:pageopacity="0.0"
     inkscape:pagecheckerboard="0"
     inkscape:deskcolor="#d1d1d1"
     inkscape:zoom="0.6959596"
     inkscape:cx="495"
     inkscape:cy="189.66618"
     inkscape:window-width="1366"
     inkscape:window-height="699"
     inkscape:window-x="0"
     inkscape:window-y="0"
     inkscape:window-maximized="1"
     inkscape:current-layer="Layer_1" />
  <defs
     id="defs1">
    <style
       id="style1">
      .cls-1 {
        fill: #171321;
      }
    </style>
  </defs>
  <g
     id="g6"
     transform="matrix(0.0346657,0,0,0.0346657,-5.1599042,-3.9864428)">
    <path
       class="cls-1"
       d="m 427.52097,171.50804 h 22.77544 c -3.79587,-24.22145 -24.76384,-41.09221 -52.05821,-41.09221 -32.2953,0 -56.51684,23.73956 -56.51684,63.50619 0,39.04368 23.13701,63.26551 57.17964,63.26551 30.5481,0 52.41968,-19.64262 52.41968,-51.45605 v -14.82212 h -50.06982 v 17.47331 h 28.43917 c -0.36147,17.59372 -12.11078,28.74038 -30.6685,28.74038 -20.66664,0 -34.82596,-15.48492 -34.82596,-43.44209 0,-27.77638 14.40038,-43.20103 34.34396,-43.20103 14.88238,0 25.00478,7.95333 28.98144,21.02811 z"
       id="path1" />
    <path
       class="cls-1"
       d="m 466.37402,255.50033 h 21.81144 V 162.95218 H 466.37402 Z M 477.34013,148.2967 c 6.9293,0 12.59229,-5.30226 12.59229,-11.80948 0,-6.56753 -5.66299,-11.86975 -12.59229,-11.86975 -6.98907,0 -12.6533,5.30223 -12.6533,11.86975 0,6.50722 5.66423,11.80948 12.6533,11.80948 z"
       id="path2" />
    <path
       class="cls-1"
       d="m 553.499,162.95218 h -18.25652 v -22.17291 h -21.81144 v 22.17291 h -13.13517 v 16.87078 h 13.13517 v 51.45568 c -0.11953,17.41292 12.53252,25.96865 28.9213,25.48677 6.20586,-0.18054 10.48423,-1.38586 12.83386,-2.16906 l -3.67447,-17.05145 c -1.20532,0.3012 -3.67572,0.84347 -6.38767,0.84347 -5.48243,0 -9.88158,-1.928 -9.88158,-10.72492 V 179.82296 H 553.499 Z"
       id="path3" />
    <path
       class="cls-1"
       d="M 570.37973,255.50033 H 647.0815 V 236.76156 H 592.73406 V 132.10289 h -22.35433 z"
       id="path4" />
    <path
       class="cls-1"
       d="m 688.85459,257.36806 c 14.52102,0 23.19731,-6.80852 27.17309,-14.58118 h 0.72343 v 12.71344 h 20.96846 v -61.93979 c 0,-24.46263 -19.9437,-31.81342 -37.59753,-31.81342 -19.46183,0 -34.40499,8.67639 -39.225,25.54717 l 20.3658,2.89213 c 2.16907,-6.32653 8.31393,-11.74932 18.97871,-11.74932 10.12314,0 15.66659,5.18173 15.66659,14.27985 v 0.36147 c 0,6.26639 -6.5682,6.56759 -22.89598,8.31492 -17.95642,1.92813 -35.12715,7.29053 -35.12715,28.13797 0,18.19624 13.31571,27.83676 30.96958,27.83676 z m 7.17057,-16.0273 c -9.09838,0 -15.6056,-4.15746 -15.6056,-12.17106 0,-8.37506 7.29167,-11.86972 17.05246,-13.25558 5.72401,-0.7832 17.172,-2.22933 20.00347,-4.51892 v 10.90572 c 0,10.30319 -8.31518,19.03984 -21.45033,19.03984 z"
       id="path5" />
    <path
       class="cls-1"
       d="m 753.80859,255.50033 h 21.44912 v -14.5813 h 1.26507 c 3.4354,6.74826 10.60501,16.20748 26.51191,16.20748 21.81148,0 38.13921,-17.29201 38.13921,-47.77984 0,-30.8493 -16.80964,-47.59955 -38.2002,-47.59955 -16.32777,0 -23.13628,9.82119 -26.45092,16.50918 h -0.90275 v -46.1534 h -21.81144 v 123.39744 z m 21.38934,-46.2742 c 0,-17.95518 7.71251,-29.58397 21.75045,-29.58397 14.52102,0 21.99323,12.35172 21.99323,29.58397 0,17.35278 -7.59175,30.00583 -21.99323,30.00583 -13.91839,0 -21.75045,-12.05051 -21.75045,-30.00583 z"
       id="path6" />
  </g>
  <path
     class="cls-1"
     d="m 5.3077158,2.0582972 -0.007,-0.0194 -0.73487,-1.91733004 c -0.0147,-0.0376 -0.0411,-0.0692 -0.0755,-0.0911 -0.0343,-0.022 -0.0744,-0.0323 -0.11519,-0.0301999995 -0.0405,0.001999999 -0.0795,0.0169999995 -0.11121,0.0421999995 -0.0315,0.0255 -0.0543,0.06 -0.065,0.0989 l -0.49619,1.51859004 h -2.00748 l -0.49617,-1.51859004 c -0.0107,-0.0389 -0.0335,-0.0734 -0.065,-0.0989 -0.0318,-0.0253 -0.0707,-0.0401 -0.11121,-0.0421999995 -0.0407,-0.002000001 -0.0809,0.007999999 -0.11519004,0.0301999995 -0.0344,0.0219 -0.0608,0.0535 -0.0755,0.0911 l -0.73487,1.91744004 -0.007,0.0192 c -0.21775,0.568 -0.0322,1.21012 0.4527,1.57687 9.1e-4,5.7e-4 0.002,10e-4 0.003,0.002 l 0.006,0.005 1.11938004,0.838 0.55367,0.41912 0.33693,0.25475 c 0.0812,0.0615 0.19339,0.0615 0.27455,0 l 0.33693,-0.25475 0.55355,-0.41912 1.12599,-0.8429 c 0.001,-7.9e-4 0.002,-10e-4 0.003,-0.002 0.48457,-0.36676 0.67,-1.00863 0.45236,-1.57653 z"
     id="path7"
     style="stroke-width:0.0346657" />
</svg>
