<?xml version="1.0" encoding="UTF-8" standalone="no"?>
<!-- Created with Inkscape (http://www.inkscape.org/) -->

<svg
   width="22.000208mm"
   height="10.999845mm"
   viewBox="0 0 22.000208 10.999845"
   version="1.1"
   id="svg1"
   inkscape:version="1.4.2 (ebf0e940d0, 2025-05-08)"
   sodipodi:docname="logo-dark.svg"
   xmlns:inkscape="http://www.inkscape.org/namespaces/inkscape"
   xmlns:sodipodi="http://sodipodi.sourceforge.net/DTD/sodipodi-0.dtd"
   xmlns="http://www.w3.org/2000/svg"
   xmlns:svg="http://www.w3.org/2000/svg">
  <sodipodi:namedview
     id="namedview1"
     pagecolor="#ffffff"
     bordercolor="#999999"
     borderopacity="1"
     inkscape:showpageshadow="2"
     inkscape:pageopacity="0"
     inkscape:pagecheckerboard="0"
     inkscape:deskcolor="#d1d1d1"
     inkscape:document-units="mm"
     showgrid="false"
     inkscape:zoom="3.5705389"
     inkscape:cx="72.258001"
     inkscape:cy="22.545616"
     inkscape:window-width="1366"
     inkscape:window-height="707"
     inkscape:window-x="0"
     inkscape:window-y="0"
     inkscape:window-maximized="1"
     inkscape:current-layer="svg1"
     showguides="true" />
  <defs
     id="defs1" />
  <path
     id="rect14"
     style="display:inline;fill:#ffffff;stroke-width:0.159543"
     d="M 0.99993896,0 V 3.9997559 H 5.0002116 v 1.0004557 h 0.999939 V 0.99993896 0 Z M 10.999845,0 v 3.9997559 1.0004557 h 0.999939 V 3.9997559 2.9998169 1.9998779 0.99993896 0 Z m 6.000151,0 V 0.99993896 H 13.00024 V 1.9998779 h 3.999756 v 1.999878 1.0004557 h 0.999939 V 0.99993896 0 Z M 7.0000895,0.99993896 V 3.9997559 H 9.9999064 V 0.99993896 Z m 11.9997845,0 V 3.9997559 h 3.000334 V 0.99993896 Z M 13.00024,2.9998169 v 0.999939 h 2.999817 V 2.9998169 Z M 5.0002116,6.0001506 V 7.0000895 H 2.9998169 v 2.9998169 h 2.0003947 v 0.9999386 h 0.999939 V 9.9999064 7.0000895 6.0001506 Z m 5.9996334,0 V 7.0000895 H 7.0000895 v 2.9998169 h 3.9997555 v 0.9999386 h 0.999939 V 7.0000895 6.0001506 Z m 6.000151,0 v 3.9997558 0.9999386 h 0.999939 V 7.0000895 6.0001506 Z M 0,7.0000895 V 9.9999064 H 1.9998779 V 7.0000895 Z m 13.00024,0 v 2.9998169 h 2.999817 V 7.0000895 Z m 5.999634,0 v 3.9997555 h 3.000334 V 7.0000895 Z" />
  <g
     inkscape:label="icon"
     inkscape:groupmode="layer"
     id="g36"
     style="display:inline"
     transform="translate(-1,5.0000001)" />
  <g
     inkscape:label="logo"
     inkscape:groupmode="layer"
     id="g5"
     style="display:inline" />
</svg>
