<?xml version="1.0" encoding="UTF-8" standalone="no"?>
<svg
   width="24"
   height="3.5387604"
   viewBox="0 0 24 3.5387604"
   fill="none"
   version="1.1"
   id="svg18"
   sodipodi:docname="logo-light.svg"
   inkscape:version="1.4.2 (ebf0e940d0, 2025-05-08)"
   xmlns:inkscape="http://www.inkscape.org/namespaces/inkscape"
   xmlns:sodipodi="http://sodipodi.sourceforge.net/DTD/sodipodi-0.dtd"
   xmlns="http://www.w3.org/2000/svg"
   xmlns:svg="http://www.w3.org/2000/svg">
  <sodipodi:namedview
     id="namedview18"
     pagecolor="#ffffff"
     bordercolor="#000000"
     borderopacity="0.25"
     inkscape:showpageshadow="2"
     inkscape:pageopacity="0.0"
     inkscape:pagecheckerboard="0"
     inkscape:deskcolor="#d1d1d1"
     inkscape:zoom="1.4176955"
     inkscape:cx="243"
     inkscape:cy="35.973875"
     inkscape:window-width="1366"
     inkscape:window-height="699"
     inkscape:window-x="0"
     inkscape:window-y="0"
     inkscape:window-maximized="1"
     inkscape:current-layer="svg18" />
  <path
     d="M 6.9190617,1.2614173 V 0.8447358 H 4.9109877 V 1.2614173 H 5.669037 v 1.3855852 h 0.492 V 1.2614173 Z"
     fill="#000000"
     id="path1"
     style="stroke-width:0.0493827" />
  <path
     d="m 8.053679,2.6746123 c 0.6174815,0 0.9563457,-0.3137629 0.9563457,-0.8308493 V 0.8447358 H 8.5180741 v 0.9513383 c 0,0.2886617 -0.1506173,0.4518222 -0.4643951,0.4518222 -0.3137778,0 -0.464395,-0.1631605 -0.464395,-0.4518222 V 0.8447358 H 7.0973333 V 1.843763 c 0,0.5170864 0.3388642,0.8308493 0.9563457,0.8308493 z"
     fill="#000000"
     id="path2"
     style="stroke-width:0.0493827" />
  <path
     d="m 9.7631605,2.0495951 h 0.4894815 l 0.386518,0.5974074 h 0.564791 L 10.76721,1.996884 c 0.245975,-0.087857 0.396592,-0.2836445 0.396592,-0.5497186 0,-0.386558 -0.288691,-0.6024296 -0.72795,-0.6024296 H 9.2711605 v 1.8022667 h 0.492 z m 0,-0.3890667 V 1.2563951 h 0.6476045 c 0.173186,0 0.268593,0.075304 0.268593,0.2033234 0,0.120484 -0.09541,0.2008099 -0.268593,0.2008099 z"
     fill="#000000"
     id="path3"
     style="stroke-width:0.0493827" />
  <path
     d="m 11.392691,2.6470025 h 1.287704 c 0.40163,0 0.632543,-0.1907704 0.632543,-0.5095556 0,-0.213358 -0.135555,-0.3589432 -0.296197,-0.4242074 0.110469,-0.052711 0.246024,-0.1782173 0.246024,-0.3765185 0,-0.3187852 -0.225925,-0.4919852 -0.625037,-0.4919852 H 11.392691 Z M 11.864593,1.550079 V 1.2438469 h 0.722913 c 0.135556,0 0.210864,0.052711 0.210864,0.1531161 0,0.1004049 -0.07531,0.153116 -0.210864,0.153116 z m 0,0.3689877 h 0.768098 c 0.133037,0 0.205828,0.065264 0.205828,0.1631605 0,0.097896 -0.07279,0.1631555 -0.205828,0.1631555 h -0.768098 z"
     fill="#000000"
     id="path4"
     style="stroke-width:0.0493827" />
  <path
     d="m 14.515852,0.81461728 c -0.630025,0 -1.084395,0.39408892 -1.084395,0.93125432 0,0.5371654 0.45437,0.9312543 1.084395,0.9312543 0.630025,0 1.081876,-0.3940889 1.081876,-0.9312543 0,-0.5371654 -0.451851,-0.93125432 -1.081876,-0.93125432 z m 0,0.42672102 c 0.331308,0 0.579852,0.1957876 0.579852,0.5045333 0,0.3087457 -0.248544,0.5045333 -0.579852,0.5045333 -0.331358,0 -0.579852,-0.1957876 -0.579852,-0.5045333 0,-0.3087457 0.248494,-0.5045333 0.579852,-0.5045333 z"
     fill="#000000"
     id="path5"
     style="stroke-width:0.0493827" />
  <path
     d="m 16.306716,2.0721877 h 0.655161 c 0.439259,0 0.727901,-0.2108544 0.727901,-0.6124692 0,-0.4041333 -0.288642,-0.6149827 -0.727901,-0.6149827 h -1.147161 v 1.8022667 h 0.492 z m 0,-0.4091507 V 1.2563951 h 0.627506 c 0.175753,0 0.271111,0.075304 0.271111,0.2033234 0,0.1255062 -0.09536,0.2033185 -0.271111,0.2033185 z"
     fill="#000000"
     id="path6"
     style="stroke-width:0.0493827" />
  <path
     d="m 18.348296,0.8447358 -0.886074,1.8022667 h 0.522074 l 0.163161,-0.3388642 h 0.946321 l 0.16316,0.3388642 h 0.539704 L 18.913037,0.8447358 Z m 0.276099,0.4819457 0.281136,0.5873679 h -0.56479 z"
     fill="#000000"
     id="path7"
     style="stroke-width:0.0493827" />
  <path
     d="m 19.693136,1.7458716 c 0,0.5371654 0.449333,0.9312543 1.076839,0.9312543 0.502025,0 0.850914,-0.2259111 0.988988,-0.5898815 L 21.309679,1.8864395 c -0.07032,0.2108494 -0.253531,0.3639654 -0.539704,0.3639654 -0.321284,0 -0.574815,-0.1957876 -0.574815,-0.5045333 0,-0.3087457 0.253531,-0.5045333 0.574815,-0.5045333 0.286173,0 0.469383,0.153116 0.539704,0.3639654 L 21.758963,1.4044938 C 21.620889,1.0405284 21.272,0.81461728 20.769975,0.81461728 c -0.627506,0 -1.076839,0.39408892 -1.076839,0.93125432 z"
     fill="#000000"
     id="path8"
     style="stroke-width:0.0493827" />
  <path
     d="m 22.428642,0.8447358 h -0.491951 v 1.8022667 h 0.491951 V 2.1976938 l 0.321333,-0.2886666 0.624988,0.7379753 H 24 L 23.103901,1.5927506 23.937235,0.8447358 h -0.670173 l -0.83842,0.7605679 z"
     fill="#000000"
     id="path9"
     style="stroke-width:0.0493827" />
  <path
     fill-rule="evenodd"
     clip-rule="evenodd"
     d="m 1.3690321,1.2986667 c -0.04002,0 -0.072459,0.032439 -0.072459,0.072459 v 0.805926 c 0,0.040015 0.032439,0.072459 0.072459,0.072459 H 2.174958 c 0.040015,0 0.072459,-0.032444 0.072459,-0.072459 v -0.805926 c 0,-0.04002 -0.032444,-0.072459 -0.072459,-0.072459 z M 0.78769383,0.72341235 c -0.0366568,0 -0.0663753,0.0297185 -0.0663753,0.0663753 V 2.7583901 c 0,0.036657 0.0297185,0.06637 0.0663753,0.06637 H 2.7562963 c 0.036657,0 0.06637,-0.029714 0.06637,-0.06637 V 0.78978765 c 0,-0.0366568 -0.029714,-0.0663753 -0.06637,-0.0663753 z"
     fill="#000000"
     id="path10"
     style="stroke-width:0.0493827" />
  <path
     d="M 0,1.8070272 V 3.0870025 C 0,3.172879 0.02396326,3.2531654 0.0655679,3.3215259 L 0.52704691,2.8600444 V 1.8070272 Z"
     fill="url(#paint0_linear_2758_13913)"
     id="path11"
     style="fill:url(#paint0_linear_2758_13913);stroke-width:0.0493827" />
  <path
     d="M 0.21043012,3.4689679 0.66799506,3.0114074 c 0.003185,1.975e-4 0.0064,3.012e-4 0.00964,3.012e-4 H 1.6858716 V 3.5387605 H 0.45175654 c -0.0887442,0 -0.1715116,-0.02559 -0.24132642,-0.069793 z"
     fill="url(#paint1_linear_2758_13913)"
     id="path12"
     style="fill:url(#paint1_linear_2758_13913);stroke-width:0.0493827" />
  <path
     d="m 1.892563,3.5387605 h 1.1944395 c 0.2494963,0 0.451758,-0.2022617 0.451758,-0.451758 V 0.45175654 C 3.5387605,0.20225827 3.3364988,0 3.0870025,0 H 1.8070272 v 0.52704691 h 1.0540987 c 0.083165,0 0.1505827,0.0674222 0.1505827,0.15058766 V 2.8611259 c 0,0.083165 -0.067417,0.1505827 -0.1505827,0.1505827 H 1.892563 Z"
     fill="url(#paint2_linear_2758_13913)"
     id="path13"
     style="fill:url(#paint2_linear_2758_13913);stroke-width:0.0493827" />
  <defs
     id="defs18">
    <linearGradient
       id="paint0_linear_2758_13913"
       x1="39.353199"
       y1="5.0385799"
       x2="4.0841599"
       y2="40.068501"
       gradientUnits="userSpaceOnUse"
       gradientTransform="scale(0.04938272)">
      <stop
         stop-color="#0096FF"
         id="stop13" />
      <stop
         offset="1"
         stop-color="#FF1E56"
         id="stop14" />
    </linearGradient>
    <linearGradient
       id="paint1_linear_2758_13913"
       x1="39.353199"
       y1="5.0385799"
       x2="4.0841599"
       y2="40.068501"
       gradientUnits="userSpaceOnUse"
       gradientTransform="scale(0.04938272)">
      <stop
         stop-color="#0096FF"
         id="stop15" />
      <stop
         offset="1"
         stop-color="#FF1E56"
         id="stop16" />
    </linearGradient>
    <linearGradient
       id="paint2_linear_2758_13913"
       x1="39.353199"
       y1="5.0385799"
       x2="4.0841599"
       y2="40.068501"
       gradientUnits="userSpaceOnUse"
       gradientTransform="scale(0.04938272)">
      <stop
         stop-color="#0096FF"
         id="stop17" />
      <stop
         offset="1"
         stop-color="#FF1E56"
         id="stop18" />
    </linearGradient>
  </defs>
</svg>
