<?xml version="1.0" encoding="UTF-8" standalone="no"?>
<svg
   width="24.000002"
   height="4.8385339"
   viewBox="0 0 24.000002 4.8385339"
   fill="none"
   version="1.1"
   id="svg8"
   sodipodi:docname="logo-light.svg"
   inkscape:version="1.4.2 (ebf0e940d0, 2025-05-08)"
   xmlns:inkscape="http://www.inkscape.org/namespaces/inkscape"
   xmlns:sodipodi="http://sodipodi.sourceforge.net/DTD/sodipodi-0.dtd"
   xmlns="http://www.w3.org/2000/svg"
   xmlns:svg="http://www.w3.org/2000/svg">
  <defs
     id="defs8" />
  <sodipodi:namedview
     id="namedview8"
     pagecolor="#ffffff"
     bordercolor="#000000"
     borderopacity="0.25"
     inkscape:showpageshadow="2"
     inkscape:pageopacity="0.0"
     inkscape:pagecheckerboard="0"
     inkscape:deskcolor="#d1d1d1"
     inkscape:zoom="1.6700508"
     inkscape:cx="197"
     inkscape:cy="40.118541"
     inkscape:window-width="1366"
     inkscape:window-height="699"
     inkscape:window-x="0"
     inkscape:window-y="0"
     inkscape:window-maximized="1"
     inkscape:current-layer="svg8" />
  <path
     d="m 15.954457,0.00201455 h 4.180386 V 0.77360406 H 18.476528 V 4.8328325 H 17.64731 V 0.77360406 h -1.692853 z"
     fill="#000000"
     id="path1"
     style="stroke-width:0.0609137" />
  <path
     d="M 9.0793096,0.00201455 V 0.77360406 H 5.7284528 V 2.0148548 H 8.4232081 V 2.7864426 H 5.7284528 V 4.0612447 H 9.0793096 V 4.8328325 H 4.8992893 V 0.77360406 H 4.8989421 V 0.00201455 Z"
     fill="#000000"
     id="path2"
     style="stroke-width:0.0609137" />
  <path
     d="m 11.166701,0.00402936 h -1.085117 l 3.88666,4.83081934 h 1.088284 L 13.112954,2.4211005 15.053421,0.00771496 13.968244,0.00939192 12.569665,1.7463777 Z"
     fill="#000000"
     id="path3"
     style="stroke-width:0.0609137" />
  <path
     d="M 12.280203,3.4547086 11.736792,2.7790599 10.078477,4.838534 h 1.088224 z"
     fill="#000000"
     id="path4"
     style="stroke-width:0.0609137" />
  <path
     fill-rule="evenodd"
     clip-rule="evenodd"
     d="M 4.9283452,4.8328325 1.0364528,0 H 0 V 4.8308162 H 0.82916345 V 1.0325848 L 3.8867025,4.8328325 Z"
     fill="#000000"
     id="path5"
     style="stroke-width:0.0609137" />
  <path
     d="m 20.321239,4.8033259 c -0.06073,0 -0.112386,-0.021033 -0.155635,-0.063107 -0.04325,-0.042073 -0.06463,-0.093009 -0.06408,-0.1533503 -5.48e-4,-0.058684 0.02083,-0.109066 0.06408,-0.1511391 0.04325,-0.042073 0.0949,-0.063113 0.155635,-0.063113 0.05842,0 0.109522,0.02104 0.152771,0.063113 0.04386,0.042073 0.06573,0.092455 0.06633,0.1511391 -6.09e-4,0.039856 -0.01072,0.076392 -0.03094,0.1090538 -0.02077,0.033222 -0.04715,0.059245 -0.08035,0.078067 -0.03259,0.019377 -0.06853,0.029336 -0.107817,0.029336 z"
     fill="#000000"
     id="path6"
     style="stroke-width:0.0609137" />
  <path
     d="m 21.736447,2.7682416 h 0.367431 v 1.4155919 c -5.48e-4,0.1300995 -0.02869,0.2413767 -0.0837,0.3349401 -0.05561,0.093557 -0.132609,0.1649665 -0.231472,0.2153482 -0.09831,0.049821 -0.213503,0.075296 -0.344406,0.075296 -0.119696,0 -0.226965,-0.021594 -0.322478,-0.063667 -0.09551,-0.042073 -0.17135,-0.1051858 -0.226964,-0.1882295 -0.05622,-0.083044 -0.08376,-0.1865665 -0.08376,-0.3105746 h 0.36804 c 5.48e-4,0.054256 0.01291,0.1013056 0.03649,0.1406132 0.02357,0.039308 0.05616,0.069198 0.09777,0.090238 0.04209,0.02104 0.09046,0.031559 0.144914,0.031559 0.05903,0 0.109583,-0.012183 0.150578,-0.037096 0.041,-0.024359 0.07249,-0.060895 0.09442,-0.1096142 0.02132,-0.048158 0.03259,-0.1079513 0.03314,-0.1788122 z"
     fill="#000000"
     id="path7"
     style="stroke-width:0.0609137" />
  <path
     d="m 23.615695,3.3218558 c -0.009,-0.085809 -0.0483,-0.1527959 -0.116832,-0.2004061 -0.06914,-0.048164 -0.158437,-0.071969 -0.26802,-0.071969 -0.07693,0 -0.143208,0.011628 -0.198274,0.034325 -0.05507,0.023251 -0.09777,0.05425 -0.127006,0.093557 -0.02918,0.039308 -0.0438,0.084152 -0.04495,0.134534 0,0.042073 0.01011,0.078609 0.02979,0.1090599 0.01967,0.030999 0.04605,0.057021 0.08035,0.078061 0.03368,0.021588 0.07133,0.039301 0.112386,0.053695 0.04154,0.014394 0.08315,0.026577 0.12469,0.036542 l 0.191574,0.047056 c 0.077,0.017714 0.151736,0.041525 0.223066,0.071969 0.07133,0.029896 0.135959,0.068095 0.19267,0.1140426 0.05677,0.045953 0.101726,0.1013117 0.134863,0.1660874 0.03312,0.06477 0.05,0.1406138 0.05,0.2280858 0,0.1179168 -0.03034,0.2214457 -0.09161,0.311129 -0.06122,0.089129 -0.149422,0.1588873 -0.265158,0.209269 -0.115187,0.049827 -0.254497,0.075289 -0.418538,0.075289 -0.158436,0 -0.296649,-0.024353 -0.412934,-0.073072 C 22.694924,4.6909462 22.603858,4.6200792 22.538132,4.5270701 22.472406,4.434067 22.437015,4.3205726 22.431959,4.1871533 h 0.364082 c 0.0051,0.069752 0.02753,0.1278883 0.06573,0.1749442 0.03874,0.046501 0.0893,0.080826 0.151127,0.1040771 0.06238,0.022696 0.132,0.034325 0.208995,0.034325 0.08035,0 0.151127,-0.012183 0.212346,-0.035988 0.06067,-0.023805 0.108426,-0.057015 0.14272,-0.100197 0.03484,-0.042634 0.05226,-0.093009 0.05281,-0.1505848 C 23.629221,4.1611368 23.613449,4.1173948 23.583109,4.08307 23.552229,4.048751 23.509529,4.019963 23.455007,3.996713 23.4,3.9734619 23.335919,3.9524223 23.262883,3.9341543 l -0.232568,-0.058684 c -0.168,-0.042627 -0.301158,-0.107397 -0.398376,-0.1943148 -0.0977,-0.086918 -0.146071,-0.202069 -0.146071,-0.3465624 0,-0.1184711 0.03259,-0.2225482 0.09838,-0.3116833 0.06512,-0.089129 0.154477,-0.158333 0.267411,-0.207606 0.113482,-0.049821 0.241584,-0.074187 0.384243,-0.074187 0.144975,0 0.271919,0.024365 0.381503,0.074187 0.109523,0.049273 0.195533,0.1179228 0.257848,0.2053888 0.06237,0.087472 0.09496,0.1876751 0.09667,0.3011634 z"
     fill="#000000"
     id="path8"
     style="stroke-width:0.0609137" />
</svg>
