<?xml version="1.0" encoding="UTF-8" standalone="no"?>
<svg
   width="24"
   height="3.2366543"
   viewBox="0 0 24 3.2366543"
   fill="none"
   version="1.1"
   id="svg12"
   sodipodi:docname="logo-dark.svg"
   inkscape:version="1.4.2 (ebf0e940d0, 2025-05-08)"
   xmlns:inkscape="http://www.inkscape.org/namespaces/inkscape"
   xmlns:sodipodi="http://sodipodi.sourceforge.net/DTD/sodipodi-0.dtd"
   xmlns="http://www.w3.org/2000/svg"
   xmlns:svg="http://www.w3.org/2000/svg">
  <sodipodi:namedview
     id="namedview12"
     pagecolor="#ffffff"
     bordercolor="#000000"
     borderopacity="0.25"
     inkscape:showpageshadow="2"
     inkscape:pageopacity="0.0"
     inkscape:pagecheckerboard="0"
     inkscape:deskcolor="#d1d1d1"
     inkscape:zoom="1.4785408"
     inkscape:cx="233"
     inkscape:cy="31.788099"
     inkscape:window-width="1366"
     inkscape:window-height="699"
     inkscape:window-x="0"
     inkscape:window-y="0"
     inkscape:window-maximized="1"
     inkscape:current-layer="svg12" />
  <path
     d="M 6.3890621,1.2137016 V 0.78667581 H 4.3311036 V 1.2137016 H 5.1079797 V 2.6336823 H 5.6121499 V 1.2137016 Z"
     fill="#ffffff"
     id="path1"
     style="stroke-width:0.0515775" />
  <path
     d="m 7.5518257,2.6619777 c 0.6328046,0 0.9800761,-0.3215549 0.9800761,-0.8514726 V 0.78667581 H 8.0276799 V 1.761625 c 0,0.2958332 -0.1543199,0.4630372 -0.4758542,0.4630372 -0.3215858,0 -0.4759057,-0.167204 -0.4759057,-0.4630372 V 0.78667581 H 6.5716981 V 1.8105051 c 0,0.5299177 0.3472715,0.8514726 0.9801276,0.8514726 z"
     fill="#ffffff"
     id="path2"
     style="stroke-width:0.0515775" />
  <path
     d="m 9.3037078,2.0214416 h 0.5016429 l 0.3961153,0.6122407 h 0.578803 l -0.44759,-0.666263 c 0.252111,-0.090034 0.406431,-0.2906805 0.406431,-0.5633606 0,-0.3961514 -0.295797,-0.61738289 -0.7460171,-0.61738289 H 8.7994859 V 2.6336823 h 0.5042219 z m 0,-0.3987251 V 1.2085541 h 0.6636995 c 0.1774787,0 0.2752177,0.077176 0.2752177,0.2083681 0,0.1234765 -0.09774,0.2057943 -0.2752177,0.2057943 z"
     fill="#ffffff"
     id="path3"
     style="stroke-width:0.0515775" />
  <path
     d="m 10.973736,2.6336823 h 1.319611 c 0.411589,0 0.648278,-0.1955046 0.648278,-0.5222069 0,-0.2186526 -0.138898,-0.3678561 -0.303534,-0.4347366 0.113161,-0.054022 0.25206,-0.1826464 0.25206,-0.3858669 0,-0.32669722 -0.23148,-0.50419609 -0.64049,-0.50419609 H 10.973736 Z M 11.457327,1.5095296 V 1.1956907 h 0.74086 c 0.138898,0 0.216109,0.054022 0.216109,0.1569194 0,0.1028972 -0.07721,0.1569195 -0.216109,0.1569195 z m 0,0.3781457 h 0.787176 c 0.13632,0 0.210952,0.066886 0.210952,0.1672092 0,0.1003234 -0.07463,0.1672092 -0.210952,0.1672092 h -0.787176 z"
     fill="#ffffff"
     id="path4"
     style="stroke-width:0.0515775" />
  <path
     d="m 14.174379,0.75580666 c -0.645699,0 -1.111289,0.40387264 -1.111289,0.95436984 0,0.5505023 0.46559,0.9543749 1.111289,0.9543749 0.645699,0 1.108711,-0.4038726 1.108711,-0.9543749 0,-0.5504972 -0.463012,-0.95436984 -1.108711,-0.95436984 z m 0,0.43731544 c 0.339535,0 0.594225,0.2006469 0.594225,0.5170544 0,0.3164126 -0.25469,0.5170594 -0.594225,0.5170594 -0.339535,0 -0.594224,-0.2006468 -0.594224,-0.5170594 0,-0.3164075 0.254689,-0.5170544 0.594224,-0.5170544 z"
     fill="#ffffff"
     id="path5"
     style="stroke-width:0.0515775" />
  <path
     d="m 16.009714,2.0214416 h 0.501591 l 0.396167,0.6122407 h 0.578803 l -0.44759,-0.666263 c 0.252111,-0.090034 0.406431,-0.2906805 0.406431,-0.5633606 0,-0.3961514 -0.295849,-0.61738289 -0.746017,-0.61738289 H 15.505492 V 2.6336823 h 0.504222 z m 0,-0.3987251 V 1.2085541 h 0.663699 c 0.177479,0 0.275218,0.077176 0.275218,0.2083681 0,0.1234765 -0.09774,0.2057943 -0.275218,0.2057943 z"
     fill="#ffffff"
     id="path6"
     style="stroke-width:0.0515775" />
  <path
     d="M 17.679691,0.78667581 V 2.6336823 h 1.795568 V 2.2066565 H 18.173597 V 1.905681 h 1.155027 V 1.4889502 H 18.173597 V 1.2137016 h 1.301662 V 0.78667581 Z"
     fill="#ffffff"
     id="path7"
     style="stroke-width:0.0515775" />
  <path
     d="m 20.222462,2.0445948 h 0.671385 c 0.45022,0 0.746017,-0.216084 0.746017,-0.6276726 0,-0.4141624 -0.295797,-0.63024639 -0.746017,-0.63024639 H 19.718241 V 2.6336823 h 0.504221 z m 0,-0.4193046 V 1.2085541 h 0.643121 c 0.180057,0 0.277796,0.077176 0.277796,0.2083681 0,0.1286188 -0.09774,0.208368 -0.277796,0.208368 z"
     fill="#ffffff"
     id="path8"
     style="stroke-width:0.0515775" />
  <path
     d="m 22.89129,0.75580666 c -0.645648,0 -1.11129,0.40387264 -1.11129,0.95436984 0,0.5505023 0.465642,0.9543749 1.11129,0.9543749 C 23.536989,2.6645514 24,2.2606788 24,1.7101765 24,1.1596793 23.536989,0.75580666 22.89129,0.75580666 Z m 0,0.43731544 c 0.339586,0 0.594224,0.2006469 0.594224,0.5170544 0,0.3164126 -0.254638,0.5170594 -0.594224,0.5170594 -0.339535,0 -0.594225,-0.2006468 -0.594225,-0.5170594 0,-0.3164075 0.25469,-0.5170544 0.594225,-0.5170544 z"
     fill="#ffffff"
     id="path9"
     style="stroke-width:0.0515775" />
  <path
     d="m 1.6183324,0.56583634 c -0.58034,0 -1.0524909,0.47215096 -1.0524909,1.05249086 0,0.58034 0.4721509,1.0524909 1.0524909,1.0524909 0.5803399,0 1.0524908,-0.4721509 1.0524908,-1.0524909 0,-0.5803399 -0.4721509,-1.05249086 -1.0524908,-1.05249086 z m 0,1.59715976 c -0.3008517,0 -0.544669,-0.2438172 -0.544669,-0.5446689 0,-0.3008517 0.2438173,-0.5446689 0.544669,-0.5446689 0.3008516,0 0.5446689,0.2438172 0.5446689,0.5446689 0,0.3008517 -0.2438173,0.5446689 -0.5446689,0.5446689 z"
     fill="#ffffff"
     id="path10"
     style="stroke-width:0.0515775" />
  <path
     fill-rule="evenodd"
     clip-rule="evenodd"
     d="M 1.7065196,0.39296912 V 0 c 0.8541444,0.04566674 1.5326776,0.75281517 1.5326776,1.6183272 0,0.8655121 -0.6785332,1.5724645 -1.5326776,1.6183272 V 2.8436853 C 2.34311,2.7982146 2.847208,2.2662853 2.847208,1.6183272 2.847208,0.97036914 2.34311,0.43843987 1.7065196,0.39296912 Z M 0.6900969,2.4218998 C 0.52134557,2.2270812 0.41256858,1.9789521 0.39316512,1.7065196 H 0 C 0.02038344,2.0877291 0.17286722,2.4336595 0.4117846,2.7000161 L 0.68990091,2.4218998 Z M 1.5301297,3.2366544 V 2.8436853 C 1.2575012,2.8242818 1.0093721,2.7157008 0.81455346,2.5467535 L 0.53643715,2.8248698 C 0.80298978,3.0639832 1.1489202,3.216271 1.5299337,3.2366544 Z"
     fill="url(#paint0_linear_2758_13744)"
     id="path11"
     style="fill:url(#paint0_linear_2758_13744);stroke-width:0.0515775" />
  <defs
     id="defs12">
    <linearGradient
       id="paint0_linear_2758_13744"
       x1="34.318001"
       y1="4.4122"
       x2="3.4317"
       y2="35.298599"
       gradientUnits="userSpaceOnUse"
       gradientTransform="scale(0.05157752)">
      <stop
         stop-color="#0096FF"
         id="stop11" />
      <stop
         offset="1"
         stop-color="#FF1E56"
         id="stop12" />
    </linearGradient>
  </defs>
</svg>
