<?xml version="1.0" encoding="UTF-8" standalone="no"?>
<svg
   viewBox="0 0 24.000044 16.299412"
   height="16.299412"
   width="24.000044"
   xml:space="preserve"
   id="svg2"
   version="1.1"
   sodipodi:docname="logo.svg"
   inkscape:version="1.4.2 (ebf0e940d0, 2025-05-08)"
   xmlns:inkscape="http://www.inkscape.org/namespaces/inkscape"
   xmlns:sodipodi="http://sodipodi.sourceforge.net/DTD/sodipodi-0.dtd"
   xmlns="http://www.w3.org/2000/svg"
   xmlns:svg="http://www.w3.org/2000/svg"
   xmlns:rdf="http://www.w3.org/1999/02/22-rdf-syntax-ns#"
   xmlns:cc="http://creativecommons.org/ns#"
   xmlns:dc="http://purl.org/dc/elements/1.1/"><sodipodi:namedview
     id="namedview1"
     pagecolor="#ffffff"
     bordercolor="#999999"
     borderopacity="1"
     inkscape:showpageshadow="2"
     inkscape:pageopacity="0"
     inkscape:pagecheckerboard="0"
     inkscape:deskcolor="#d1d1d1"
     inkscape:zoom="2.2636905"
     inkscape:cx="115.96108"
     inkscape:cy="70.460162"
     inkscape:window-width="1366"
     inkscape:window-height="707"
     inkscape:window-x="0"
     inkscape:window-y="0"
     inkscape:window-maximized="1"
     inkscape:current-layer="svg2" /><metadata
     id="metadata8"><rdf:RDF><cc:Work
         rdf:about=""><dc:format>image/svg+xml</dc:format><dc:type
           rdf:resource="http://purl.org/dc/dcmitype/StillImage" /></cc:Work></rdf:RDF></metadata><defs
     id="defs6" /><path
     id="path16"
     style="fill:#5b85a4;fill-opacity:1;fill-rule:evenodd;stroke:none;stroke-width:0.0142834"
     d="m 16.405827,1.6530609 c -0.11341,0 -0.193397,0.01371 -0.274099,0.03357 v 0.01343 h 0.013 c 0.05399,0.106697 0.14769,0.180828 0.213965,0.274242 0.05385,0.106982 0.100698,0.213537 0.154119,0.320663 0.0066,-0.0066 0.013,-0.01357 0.013,-0.01357 0.09427,-0.06656 0.140978,-0.1734 0.140978,-0.334089 -0.04042,-0.04713 -0.04671,-0.09356 -0.08042,-0.140549 -0.03999,-0.0667 -0.12698,-0.100127 -0.180543,-0.15369" /><path
     id="path18"
     style="fill:#2c7493;fill-opacity:1;fill-rule:nonzero;stroke:none;stroke-width:0.0142834"
     d="M 5.770153,14.848813 H 4.844129 C 4.811489,13.285776 4.721277,11.81604 4.5737,10.439245 H 4.5655 L 3.155612,14.848813 H 2.450539 L 1.049148,10.439245 h -0.0083 C 0.936893,11.761463 0.871504,13.231214 0.844337,14.848813 H 0 C 0.05456,12.881542 0.191084,11.037422 0.409635,9.3159809 h 1.147759 l 1.336002,4.0653671 h 0.0082 L 4.245797,9.3159809 h 1.09821 c 0.240476,2.0160931 0.382482,3.8608271 0.426104,5.5328321" /><path
     id="path20"
     style="fill:#2c7493;fill-opacity:1;fill-rule:nonzero;stroke:none;stroke-width:0.0142834"
     d="m 9.786454,10.766764 c -0.377096,2.046102 -0.874503,3.532965 -1.491861,4.46056 -0.481067,0.714729 -1.008054,1.072087 -1.581891,1.072087 -0.152989,0 -0.341632,-0.04608 -0.565482,-0.137636 v -0.493236 c 0.109354,0.01601 0.237677,0.02455 0.385254,0.02455 0.267714,0 0.483466,-0.07399 0.64761,-0.221665 0.19657,-0.179942 0.294939,-0.382196 0.294939,-0.606332 0,-0.15309 -0.07672,-0.467226 -0.229491,-0.942421 L 6.229236,10.76676 h 0.909727 l 0.729412,2.360338 c 0.163859,0.535901 0.232206,0.910012 0.204867,1.12325 0.398937,-1.065559 0.677635,-2.226816 0.836195,-3.483588 h 0.877017" /><path
     id="path22"
     style="fill:#f18513;fill-opacity:1;fill-rule:nonzero;stroke:none;stroke-width:0.0142834"
     d="M 22.113631,14.848813 H 19.482765 V 9.3159809 h 0.885287 v 4.8522411 h 1.745579 v 0.680591" /><path
     id="path24"
     style="fill:#f18513;fill-opacity:1;fill-rule:evenodd;stroke:none;stroke-width:0.0142834"
     d="m 15.499401,13.742004 c -0.224107,-0.360656 -0.336375,-0.939408 -0.336375,-1.737437 0,-1.393192 0.423646,-2.0902951 1.270512,-2.0902951 0.442786,0 0.767734,0.1667161 0.975558,0.4998061 0.223821,0.360828 0.336089,0.934566 0.336089,1.72144 0,1.404347 -0.423646,2.106806 -1.270511,2.106806 -0.442644,0 -0.767735,-0.166544 -0.975273,-0.50032 m 3.294903,1.240216 -1.016982,-0.501491 c 0.09056,-0.07426 0.176544,-0.154376 0.254389,-0.247118 0.431788,-0.507618 0.647896,-1.258942 0.647896,-2.253654 0,-1.830394 -0.718599,-2.7461051 -2.155655,-2.7461051 -0.704888,0 -1.254229,0.232105 -1.647595,0.696988 -0.431931,0.5082341 -0.647611,1.2567291 -0.647611,2.2458571 0,0.972544 0.191112,1.686002 0.573623,2.139216 0.349801,0.409649 0.877146,0.614744 1.582176,0.614744 0.263244,0 0.504776,-0.03241 0.724312,-0.09724 l 1.324361,0.770691 0.361086,-0.621887" /><path
     id="path26"
     style="fill:#f18513;fill-opacity:1;fill-rule:nonzero;stroke:none;stroke-width:0.0142834"
     d="m 13.84295,13.315187 c 0,0.469224 -0.1724,0.854435 -0.51606,1.155829 -0.343945,0.300067 -0.806014,0.4505 -1.384637,0.4505 -0.541199,0 -1.065687,-0.173144 -1.573748,-0.516603 l 0.237676,-0.475268 c 0.437216,0.218552 0.832867,0.327691 1.188096,0.327691 0.333233,0 0.594048,-0.07416 0.782733,-0.220679 0.188255,-0.147576 0.301094,-0.353401 0.301094,-0.614459 0,-0.32852 -0.229106,-0.609332 -0.649467,-0.844909 -0.388081,-0.212966 -1.163672,-0.657594 -1.163672,-0.657594 -0.420219,-0.306537 -0.630899,-0.635442 -0.630899,-1.177369 0,-0.448201 0.157117,-0.8104851 0.470925,-1.0860981 0.314521,-0.276185 0.720314,-0.414277 1.217234,-0.414277 0.513632,0 0.980701,0.137078 1.401348,0.410249 l -0.21368,0.4748241 C 12.94995,9.9744189 12.595007,9.8978179 12.245062,9.8978179 c -0.283955,0 -0.502776,0.06817 -0.655323,0.2053231 -0.153404,0.135964 -0.248247,0.310937 -0.248247,0.524188 0,0.327677 0.234106,0.611903 0.666322,0.852036 0.392938,0.21308 1.187526,0.666308 1.187526,0.666308 0.432216,0.305979 0.64761,0.632199 0.64761,1.169514" /><path
     id="path28"
     style="fill:#2c7493;fill-opacity:1;fill-rule:evenodd;stroke:none;stroke-width:0.0142834"
     d="m 23.224597,7.4626489 c -0.535058,-0.01338 -0.94942,0.04001 -1.296936,0.187199 -0.10027,0.04007 -0.26053,0.04007 -0.274242,0.167101 0.05385,0.05339 0.06028,0.140206 0.107411,0.21408 0.07999,0.133693 0.220107,0.313908 0.347373,0.40775 0.140406,0.107011 0.280813,0.21358 0.428074,0.307151 0.26053,0.161131 0.554769,0.254316 0.808443,0.414834 0.147548,0.09346 0.294096,0.213694 0.441645,0.314235 0.07327,0.05345 0.119694,0.140492 0.213679,0.173572 v -0.02025 c -0.04713,-0.05998 -0.06028,-0.146905 -0.10684,-0.214137 -0.0667,-0.06633 -0.133693,-0.126879 -0.200682,-0.19344 -0.193969,-0.260673 -0.43493,-0.487751 -0.695032,-0.67495 -0.214109,-0.147462 -0.68232,-0.348044 -0.768878,-0.594648 0,0 -0.007,-0.0071 -0.01357,-0.01367 0.147119,-0.01357 0.321233,-0.06713 0.461498,-0.107683 0.226963,-0.05999 0.434216,-0.04642 0.668178,-0.106411 0.107126,-0.02694 0.214109,-0.06059 0.32152,-0.09346 v -0.06059 c -0.12098,-0.120067 -0.207538,-0.280755 -0.334517,-0.394295 -0.34066,-0.294038 -0.715458,-0.581278 -1.103111,-0.822311 -0.207538,-0.133736 -0.474924,-0.220222 -0.695603,-0.334147 -0.07984,-0.04018 -0.213394,-0.05998 -0.260387,-0.127208 -0.120409,-0.14702 -0.187541,-0.340632 -0.274242,-0.514718 -0.193683,-0.36727 -0.381224,-0.774919 -0.548056,-1.163286 -0.120265,-0.26053 -0.193825,-0.52106 -0.340944,-0.761878 -0.688891,-1.136676 -1.437343,-1.824852 -2.58716,-2.50017301 -0.247388,-0.140549 -0.541485,-0.200682 -0.855434,-0.274242 -0.167402,-0.007 -0.334375,-0.02 -0.501491,-0.02657 -0.107126,-0.04699 -0.214252,-0.174115 -0.307665,-0.234249 -0.381226,-0.240533 -1.363497,-0.761878 -1.644453,-0.07342 -0.180542,0.434787 0.267386,0.86243301 0.421219,1.08311201 0.113553,0.153547 0.260816,0.327663 0.34066,0.501206 0.04685,0.113696 0.06028,0.234249 0.107268,0.354372 0.106841,0.294096 0.206967,0.621758 0.347659,0.896 0.07327,0.140406 0.153405,0.287669 0.246961,0.414077 0.05399,0.07399 0.147262,0.106983 0.167402,0.227678 -0.09327,0.13355 -0.100556,0.33409 -0.153976,0.501349 -0.240533,0.755451 -0.147119,1.691358 0.193969,2.246127 0.106697,0.167102 0.361086,0.534901 0.702031,0.39418 0.300809,-0.120124 0.233962,-0.501192 0.320806,-0.835238 0.02,-0.08079 0.0066,-0.133793 0.04656,-0.187199 v 0.01351 c 0.09356,0.186913 0.1874,0.366956 0.274242,0.554769 0.207539,0.327234 0.568195,0.66825 0.869291,0.895328 0.159974,0.120795 0.287097,0.327691 0.487636,0.401451 v -0.0202 h -0.01314 c -0.04028,-0.05999 -0.10027,-0.08693 -0.153833,-0.133521 -0.120265,-0.12041 -0.253673,-0.267544 -0.347658,-0.401165 -0.28067,-0.374212 -0.528344,-0.788932 -0.748453,-1.21672 -0.107268,-0.207724 -0.200681,-0.434802 -0.287668,-0.641912 -0.03999,-0.07984 -0.03999,-0.200525 -0.106983,-0.240533 -0.100555,0.146905 -0.247245,0.274113 -0.320663,0.454056 -0.127122,0.287797 -0.140405,0.642026 -0.18754,1.009881 -0.02657,0.007 -0.01314,0 -0.02657,0.01328 -0.21368,-0.05345 -0.28724,-0.274013 -0.367655,-0.460584 -0.20054,-0.475267 -0.234249,-1.237331 -0.06013,-1.785529 0.04656,-0.14012 0.247675,-0.581336 0.167116,-0.715029 -0.04042,-0.127551 -0.173972,-0.200396 -0.247389,-0.301095 -0.0867,-0.126979 -0.180828,-0.287097 -0.24039,-0.427788 -0.160546,-0.374227 -0.241247,-0.788875 -0.414505,-1.163101 -0.08027,-0.174115 -0.220965,-0.354657 -0.334232,-0.514775 -0.127266,-0.180542 -0.26753,-0.30752201 -0.367942,-0.52120201 -0.03314,-0.0737 -0.07999,-0.194112 -0.02671,-0.274099 0.01314,-0.05356 0.04028,-0.0737 0.09384,-0.08713 0.08641,-0.07356 0.334089,0.01985 0.42079,0.05999 0.247532,0.09998 0.454785,0.194112 0.661752,0.334232 0.0937,0.06699 0.193969,0.19397 0.314092,0.227678 h 0.140692 c 0.213823,0.04642 0.454642,0.013 0.655324,0.07342 0.354087,0.113554 0.674892,0.28067 0.962561,0.461212 0.875432,0.554912 1.59746,1.343929 2.085239,2.28635 0.08042,0.153547 0.114124,0.294096 0.187541,0.454213 0.140406,0.328234 0.314378,0.662466 0.454499,0.983029 0.140264,0.314236 0.274242,0.634842 0.475067,0.895957 0.09998,0.140149 0.501206,0.213695 0.681749,0.287283 0.133406,0.05998 0.340945,0.113539 0.461355,0.18697 0.227249,0.140149 0.45407,0.300838 0.668321,0.454842 0.106697,0.08023 0.441073,0.24716 0.461213,0.381068" /><path
     id="path30"
     style="fill:#f18513;fill-opacity:1;fill-rule:nonzero;stroke:none;stroke-width:0.0142834"
     d="m 22.745531,14.848256 h 0.14669 V 14.285332 H 23.08419 V 14.17035 h -0.538057 v 0.114982 h 0.199398 z m 1.11625,0 h 0.138263 V 14.17035 h -0.207966 l -0.169259,0.462083 -0.184257,-0.462083 h -0.200396 v 0.677906 h 0.130837 v -0.515932 h 0.0074 l 0.192969,0.515932 h 0.0997 l 0.192684,-0.515932 v 0.515932" /></svg>
