<?xml version="1.0" encoding="UTF-8" standalone="no"?>
<svg
   viewBox="0 0 24.000002 33.876064"
   version="1.1"
   id="svg8"
   sodipodi:docname="icon.svg"
   width="24.000002"
   height="33.876064"
   inkscape:version="1.4.2 (ebf0e940d0, 2025-05-08)"
   xmlns:inkscape="http://www.inkscape.org/namespaces/inkscape"
   xmlns:sodipodi="http://sodipodi.sourceforge.net/DTD/sodipodi-0.dtd"
   xmlns="http://www.w3.org/2000/svg"
   xmlns:svg="http://www.w3.org/2000/svg"
   xmlns:rdf="http://www.w3.org/1999/02/22-rdf-syntax-ns#"
   xmlns:cc="http://creativecommons.org/ns#"
   xmlns:dc="http://purl.org/dc/elements/1.1/">
  <defs
     id="defs8" />
  <sodipodi:namedview
     id="namedview8"
     pagecolor="#ffffff"
     bordercolor="#999999"
     borderopacity="1"
     inkscape:showpageshadow="2"
     inkscape:pageopacity="0"
     inkscape:pagecheckerboard="0"
     inkscape:deskcolor="#d1d1d1"
     inkscape:zoom="0.97851562"
     inkscape:cx="181.39721"
     inkscape:cy="256"
     inkscape:window-width="1366"
     inkscape:window-height="707"
     inkscape:window-x="0"
     inkscape:window-y="0"
     inkscape:window-maximized="1"
     inkscape:current-layer="svg8" />
  <title
     id="title1">HTML5 Logo</title>
  <polygon
     fill="#e44d26"
     points="404.321,470.819 255.778,512 107.644,470.877 74.633,100.62 437.367,100.62 "
     id="polygon1"
     transform="matrix(0.06616419,0,0,0.06616419,-4.938032,0)" />
  <polygon
     fill="#f16529"
     points="256,130.894 256,480.523 376.03,447.246 404.27,130.894 "
     id="polygon2"
     transform="matrix(0.06616419,0,0,0.06616419,-4.938032,0)" />
  <polygon
     fill="#ebebeb"
     points="256,221.716 256,176.305 255.843,176.305 142.132,176.305 143.219,188.488 154.38,313.627 256,313.627 256,268.217 195.91,268.217 191.76,221.716 "
     id="polygon3"
     transform="matrix(0.06616419,0,0,0.06616419,-4.938032,0)" />
  <polygon
     fill="#ebebeb"
     points="201.994,336.333 177.419,336.333 156.409,336.333 162.771,407.634 255.791,433.457 256,433.399 256,386.153 255.801,386.206 205.227,372.55 "
     id="polygon4"
     transform="matrix(0.06616419,0,0,0.06616419,-4.938032,0)" />
  <path
     d="M 2.232975,0 H 3.759846 V 1.5085435 H 5.156572 V 0 H 6.683509 V 4.5682401 H 5.156638 V 3.0385241 H 3.759912 v 1.529716 H 2.233041 V 0 Z"
     id="path4"
     style="stroke-width:0.0661642" />
  <path
     d="M 8.691394,1.5148952 H 7.347202 V 0 h 4.215982 V 1.5148952 H 10.218397 V 4.5682401 H 8.69146 V 1.5148952 Z"
     id="path5"
     style="stroke-width:0.0661642" />
  <path
     d="m 12.232302,0 h 1.592109 L 14.803774,1.6051432 15.782143,0 h 1.592705 V 4.5682401 H 15.854262 V 2.3039693 l -1.050488,1.6242646 h -0.02627 L 13.72629,2.3039693 v 2.2642708 h -1.493988 z"
     id="path6"
     style="stroke-width:0.0661642" />
  <path
     d="m 18.134743,0 h 1.527334 v 3.058241 h 2.147227 v 1.5099991 h -3.674561 z"
     id="path7"
     style="stroke-width:0.0661642" />
  <polygon
     fill="#ffffff"
     points="306.49,372.521 255.843,386.191 255.843,433.435 348.937,407.634 349.62,399.962 360.291,280.411 361.399,268.217 349.162,268.217 255.843,268.217 255.843,313.627 311.761,313.627 "
     id="polygon7"
     transform="matrix(0.06616419,0,0,0.06616419,-4.938032,0)" />
  <polygon
     fill="#ffffff"
     points="255.843,221.716 365.385,221.716 365.385,221.716 365.531,221.716 366.442,211.509 368.511,188.488 369.597,176.305 255.843,176.305 255.843,204.509 255.843,221.605 "
     id="polygon8"
     transform="matrix(0.06616419,0,0,0.06616419,-4.938032,0)" />
  <metadata
     id="metadata8">
    <rdf:RDF>
      <cc:Work
         rdf:about="">
        <dc:title>HTML5 Logo</dc:title>
      </cc:Work>
    </rdf:RDF>
  </metadata>
</svg>
