<?xml version="1.0" encoding="UTF-8" standalone="no"?>
<svg
   version="1.1"
   id="Layer_1"
   x="0px"
   y="0px"
   width="24.000002"
   height="33.807564"
   viewBox="0 0 24.000002 33.807564"
   enable-background="new 0 0 512 512"
   xml:space="preserve"
   sodipodi:docname="icon-light.svg"
   inkscape:version="1.4.2 (ebf0e940d0, 2025-05-08)"
   xmlns:inkscape="http://www.inkscape.org/namespaces/inkscape"
   xmlns:sodipodi="http://sodipodi.sourceforge.net/DTD/sodipodi-0.dtd"
   xmlns="http://www.w3.org/2000/svg"
   xmlns:svg="http://www.w3.org/2000/svg"><defs
   id="defs8" /><sodipodi:namedview
   id="namedview8"
   pagecolor="#ffffff"
   bordercolor="#999999"
   borderopacity="1"
   inkscape:showpageshadow="2"
   inkscape:pageopacity="0"
   inkscape:pagecheckerboard="0"
   inkscape:deskcolor="#d1d1d1"
   inkscape:zoom="0.97851562"
   inkscape:cx="167.08982"
   inkscape:cy="235.56088"
   inkscape:window-width="1366"
   inkscape:window-height="707"
   inkscape:window-x="0"
   inkscape:window-y="0"
   inkscape:window-maximized="1"
   inkscape:current-layer="Layer_1" />
<g
   id="g8"
   transform="matrix(0.07172101,0,0,0.07172101,-6.3606495,-1.4567972)">
	<g
   id="g4">
		<path
   fill="#231f20"
   d="m 119.387,20.312 h 21.298 V 41.357 H 160.17 V 20.312 h 21.303 V 84.039 H 160.17 V 62.7 h -19.485 v 21.338 h -21.298 z"
   id="path1" />
		<path
   fill="#231f20"
   d="M 209.482,41.444 H 190.728 V 20.312 h 58.812 v 21.133 h -18.759 v 42.594 h -21.3 V 41.444 Z"
   id="path2" />
		<path
   fill="#231f20"
   d="m 258.879,20.312 h 22.21 l 13.661,22.392 13.648,-22.392 h 22.219 V 84.039 H 309.405 V 52.453 L 294.75,75.111 h -0.366 L 279.719,52.453 v 31.585 h -20.84 z"
   id="path3" />
		<path
   fill="#231f20"
   d="m 341.219,20.312 h 21.308 v 42.664 h 29.955 v 21.062 h -51.263 z"
   id="path4" />
	</g>
	<path
   fill="#231f20"
   d="M 200.662,266.676 H 256 v -42.92 H 196.831 Z M 88.686,111.982 l 30.47,341.74 136.762,37.966 136.891,-37.948 30.507,-341.758 H 88.686 Z M 366.694,431.981 256,462.668 v -43.494 l -0.067,0.02 -85.858,-23.835 -6.004,-67.298 h 42.075 l 3.116,34.914 46.68,12.607 0.059,-0.019 V 308.59 H 162.332 L 151.026,181.841 H 256 v -41.914 h 136.766 z"
   id="path5" />
	<path
   opacity="0.8"
   fill="#231f20"
   d="M 307.592,308.59 H 256 v 66.974 l 46.728,-12.613 z M 256,139.927 v 41.914 h 104.975 l -3.754,41.915 H 256 v 42.92 h 97.406 L 341.907,395.359 256,419.174 v 43.494 L 366.694,431.981 392.765,139.926 H 256 Z"
   id="path6" />
	<g
   opacity="0.2"
   id="g7">
		<polygon
   fill="#231f20"
   points="256,308.59 256,266.676 200.662,266.676 196.831,223.756 256,223.756 256,181.841 151.025,181.841 162.331,308.59 "
   id="polygon6" />
		<polygon
   fill="#231f20"
   points="206.146,328.061 164.07,328.061 170.074,395.358 255.933,419.193 256,419.174 256,375.563 255.941,375.582 209.262,362.975 "
   id="polygon7" />
	</g>
</g>
</svg>
