<?xml version="1.0" encoding="UTF-8" standalone="no"?>
<svg
   version="1.1"
   width="24"
   height="20.276939"
   id="svg3"
   sodipodi:docname="icon-mono-dark.svg"
   inkscape:version="1.4.2 (ebf0e940d0, 2025-05-08)"
   xmlns:inkscape="http://www.inkscape.org/namespaces/inkscape"
   xmlns:sodipodi="http://sodipodi.sourceforge.net/DTD/sodipodi-0.dtd"
   xmlns="http://www.w3.org/2000/svg"
   xmlns:svg="http://www.w3.org/2000/svg">
  <defs
     id="defs3" />
  <sodipodi:namedview
     id="namedview3"
     pagecolor="#ffffff"
     bordercolor="#999999"
     borderopacity="1"
     inkscape:showpageshadow="2"
     inkscape:pageopacity="0"
     inkscape:pagecheckerboard="0"
     inkscape:deskcolor="#d1d1d1"
     inkscape:zoom="0.92777778"
     inkscape:cx="317.42515"
     inkscape:cy="270"
     inkscape:window-width="1366"
     inkscape:window-height="707"
     inkscape:window-x="0"
     inkscape:window-y="0"
     inkscape:window-maximized="1"
     inkscape:current-layer="svg3" />
  <path
     d="m 1.515041,0.01413068 c 0.030204,-8.881e-5 0.060407,-1.7762e-4 0.091526,-2.6915e-4 0.1018399,-2.526e-4 0.2036779,-2.3531e-4 0.3055181,-2.1982e-4 0.073502,-1.2457e-4 0.1470038,-2.6522e-4 0.2205056,-4.2069e-4 C 2.3350759,0.01284237 2.5375606,0.0127023 2.7400461,0.01260219 2.9582382,0.0124549 3.1764299,0.01209324 3.3946218,0.01176347 3.9218093,0.01101694 4.4489965,0.01063707 4.9761842,0.01030117 5.2243685,0.01013571 5.4725528,0.00993306 5.7207371,0.00973521 6.5456287,0.00909283 7.3705199,0.0085446 8.1954118,0.00827213 c 0.053349,-1.793e-5 0.1066973,-3.59e-5 0.160046,-5.392e-5 0.026456,-8.93e-6 0.052912,-1.785e-5 0.08017,-2.705e-5 0.1340389,-4.535e-5 0.2680773,-9.126e-5 0.4021161,-1.3751e-4 0.0266,-9.07e-6 0.053201,-1.814e-5 0.080607,-2.748e-5 0.8623142,-2.9799e-4 1.7246261,-0.00118262 2.5869391,-0.00241004 0.911764,-0.00129545 1.823526,-0.00203929 2.735291,-0.00216364 0.496981,-8.179e-5 0.993959,-4.1268e-4 1.49094,-0.00137671 0.423224,-8.1906e-4 0.846445,-0.001123863 1.26967,-7.5642e-4 0.215931,1.7176e-4 0.431856,9.904e-5 0.647786,-6.3287926e-4 0.197772,-6.64594585e-4 0.395531,-6.28988479e-4 0.593303,-4.164737e-5 0.07145,8.990243e-5 0.142908,-7.442153e-5 0.21436,-5.2214392e-4 0.560859,-0.003295969 0.995715,0.0574751805 1.411098,0.46775028055 0.31974,0.34548225 0.431402,0.72351823 0.428384,1.18852333 1.13e-4,0.029998 2.26e-4,0.059996 3.39e-4,0.090903 2.65e-4,0.1000047 1.4e-5,0.2000006 -2.64e-4,0.3000053 7.6e-5,0.072628 1.89e-4,0.1452568 3.4e-4,0.2178852 3.02e-4,0.1991917 1.51e-4,0.3983807 -7.6e-5,0.5975725 -1.88e-4,0.21497 7.6e-5,0.4299395 3.02e-4,0.6449095 3.4e-4,0.4209745 2.65e-4,0.8419478 3.8e-5,1.2629218 -1.89e-4,0.3421284 -1.89e-4,0.6842564 -1.13e-4,1.0263848 1.2e-5,0.04869 2.3e-5,0.097379 3.5e-5,0.1475434 2.4e-5,0.098911 3.8e-5,0.1978216 7.6e-5,0.296732 2.26e-4,0.9010923 -8e-6,1.8021842 -4.05e-4,2.7032764 -3.39e-4,0.8223486 -3.39e-4,1.6446958 3.5e-5,2.4670448 4.04e-4,0.924211 5.63e-4,1.848421 3.4e-4,2.772632 -2.4e-5,0.09855 -3.8e-5,0.197095 -7.5e-5,0.295642 -1.2e-5,0.04849 -2.4e-5,0.09697 -3.6e-5,0.146931 -7.5e-5,0.341726 3.8e-5,0.683453 2.27e-4,1.025179 2.27e-4,0.416436 1.51e-4,0.832872 -2.64e-4,1.249308 -1.89e-4,0.21248 -2.65e-4,0.424959 -2.7e-5,0.637439 2.27e-4,0.19452 1.14e-4,0.389037 -3.02e-4,0.583556 -7.5e-5,0.07035 -3.8e-5,0.140708 1.51e-4,0.211062 2.27e-4,0.09571 -6e-6,0.191401 -3.4e-4,0.287106 1.89e-4,0.02724 3.4e-4,0.05448 5.37e-4,0.08254 -0.0031,0.429885 -0.133221,0.811879 -0.42774,1.129875 -0.313057,0.296248 -0.663429,0.430691 -1.086909,0.429848 -0.0302,7.5e-5 -0.06041,1.89e-4 -0.09153,2.64e-4 -0.10184,2.65e-4 -0.203678,2.27e-4 -0.305518,2.27e-4 -0.0735,1.13e-4 -0.147004,2.64e-4 -0.220506,4.19e-4 -0.202485,3.77e-4 -0.404969,5.17e-4 -0.607455,6.19e-4 -0.218192,1.51e-4 -0.436384,5.1e-4 -0.654576,8.38e-4 -0.527187,7.48e-4 -1.054374,0.0011 -1.581562,0.0015 -0.248184,1.51e-4 -0.496369,3.77e-4 -0.744553,5.66e-4 -0.824891,6.42e-4 -1.649783,0.0012 -2.474675,0.0015 -0.05335,1.8e-5 -0.106697,3.6e-5 -0.160046,3.8e-5 -0.03968,1.3e-5 -0.03968,1.3e-5 -0.08017,2.7e-5 -0.134039,3.8e-5 -0.268078,7.6e-5 -0.402116,1.51e-4 -0.0266,9e-6 -0.0532,1.8e-5 -0.08061,2.7e-5 -0.862314,3.02e-4 -1.7246254,0.0012 -2.5869388,0.0024 -0.9117639,0.0013 -1.8235263,0.002 -2.735291,0.0022 -0.496981,7.5e-5 -0.993959,4.11e-4 -1.4909394,0.0014 -0.4232244,8.19e-4 -0.8464452,0.0011 -1.2696703,7.55e-4 -0.2159316,-1.89e-4 -0.4318559,-1.13e-4 -0.6477865,6.35e-4 -0.1977719,6.64e-4 -0.3955308,6.3e-4 -0.5933028,3.7e-5 -0.071454,-7.5e-5 -0.142908,7.6e-5 -0.2143603,5.21e-4 -0.5608589,0.0033 -0.99571515,-0.05748 -1.41109739,-0.46775 -0.31973346,-0.345605 -0.43139495,-0.723641 -0.42837681903,-1.188646 -1.0949896e-4,-0.03 -2.1899793e-4,-0.06 -3.3227272e-4,-0.0909 -2.7563532e-4,-0.100004 -1.400832e-5,-0.2 2.4542871e-4,-0.300005 -8.6844e-5,-0.07263 -2.0767044e-4,-0.145257 -3.587035e-4,-0.217885 C 1.5174988e-4,17.812439 3.0655876e-4,17.61325 5.4065999e-4,17.414058 7.1057217e-4,17.199089 4.4626433e-4,16.984119 2.3859388e-4,16.769149 -9.7454663e-5,16.348175 -2.5713963e-5,15.927202 1.9328397e-4,15.506227 3.6319615e-4,15.164099 3.8585111e-4,14.821971 3.0655876e-4,14.479842 2.9500473e-4,14.431152 2.8341294e-4,14.382462 2.7151909e-4,14.332299 2.473538e-4,14.233389 2.2243335e-4,14.134478 1.9977839e-4,14.035567 -7.8921734e-6,13.134475 2.0755659e-4,12.233383 6.0341422e-4,11.33229 9.6211772e-4,10.509939 9.2813529e-4,9.6875908 5.686011e-4,8.8652423 1.642101e-4,7.9410314 5.2476766e-6,7.0168212 2.3632839e-4,6.0926103 2.603804e-4,5.9940633 2.8541413e-4,5.895516 3.0806909e-4,5.7969684 3.1973639e-4,5.7484814 3.3136594e-4,5.6999944 3.4337306e-4,5.650037 4.0756211e-4,5.3083108 2.9806315e-4,4.9665845 1.2059931e-4,4.6248583 -9.0846963e-5,4.208422 -3.4209573e-5,3.7919865 3.6980385e-4,3.3755503 5.6992264e-4,3.16307 6.4543917e-4,2.9505916 3.9627239e-4,2.7381114 1.6972281e-4,2.5435913 2.9432508e-4,2.3490746 6.983385e-4,2.1545548 7.8140668e-4,2.084201 7.3987259e-4,2.0138469 5.5485709e-4,1.9434933 3.2453169e-4,1.847787 5.6116272e-4,1.7520926 9.0978477e-4,1.6563869 7.3232093e-4,1.6291477 5.5485709e-4,1.6019086 3.7399501e-4,1.573844 0.00351208,1.1439587 0.13359451,0.76196488 0.42811362,0.44396962 0.74118947,0.14773035 1.0915612,0.01328757 1.515041,0.01413068 Z M 3.7862579,3.0021014 c -0.035239,0.01835 -0.070478,0.036699 -0.1067851,0.055605 C 3.2479487,3.3070707 2.9872158,3.6864291 2.8505609,4.1619881 2.7518399,4.6140258 2.8211289,5.0551949 3.0585264,5.4521113 3.2876157,5.7866181 3.5649632,6.0152561 3.937291,6.1737955 3.988689,6.1959905 3.988689,6.1959905 4.0411262,6.2186335 4.5222167,6.338906 5.0025992,6.2801923 5.4386245,6.0389868 5.8167297,5.7974744 6.0743883,5.4375388 6.2156186,5.0114013 6.3179121,4.5132505 6.2542785,4.0510252 5.9856768,3.6180331 5.7113275,3.2370682 5.351924,2.9500401 4.8812476,2.8510684 4.4941952,2.8276688 4.137929,2.8180748 3.7862579,3.0021014 Z m 7.4099111,5.4364525 c -0.132822,0.1579787 -0.242753,0.2952794 -0.311358,0.4915948 -0.03738,0 -0.07476,0 -0.113275,0 0,-0.4236477 0,-0.8472954 0,-1.2837809 -0.9345164,0 -1.8690334,0 -2.8318691,0 0,3.1648982 0,6.3297952 0,9.5905992 0.9718977,0 1.9437954,0 2.9451441,0 0.0019,-0.36597 0.0037,-0.731941 0.0056,-1.109001 0.0013,-0.232819 0.0027,-0.465637 0.0041,-0.698455 0.0023,-0.368968 0.0045,-0.737937 0.0062,-1.106908 0.0013,-0.268818 0.0028,-0.537633 0.0046,-0.806448 9.44e-4,-0.142068 0.0018,-0.284135 0.0023,-0.426206 0.0078,-2.063333 0.0078,-2.063333 0.543593,-2.649469 0.362605,-0.354137 0.841072,-0.424978 1.326093,-0.424735 0.388258,0.0055 0.707403,0.106883 1.001792,0.366475 0.599058,0.626495 0.484088,1.690517 0.485336,2.490166 3.4e-4,0.15385 0.0013,0.307695 0.0023,0.461541 0.0016,0.290294 0.0027,0.580587 0.0036,0.870884 0.0012,0.39301 0.0033,0.786016 0.0054,1.179023 0.0032,0.61771 0.0052,1.235418 0.0074,1.853133 0.971898,0 1.943796,0 2.945145,0 0.02973,-2.277228 0.02973,-2.277228 0.04248,-4.554591 7.5e-5,-0.03594 1.89e-4,-0.07188 3.02e-4,-0.108901 8.76e-4,-0.397987 -0.0063,-0.795156 -0.02138,-1.192874 -0.0014,-0.0382 -0.0028,-0.07639 -0.0043,-0.115751 C 17.197384,10.11154 16.975263,8.9366945 16.107268,8.1112664 14.734797,6.9801987 12.382464,7.1178167 11.196186,8.4385539 Z M 3.0688509,7.6463678 c 0,3.1648982 0,6.3297952 0,9.5905992 0.9718977,0 1.9437954,0 2.9451446,0 0,-3.164898 0,-6.329795 0,-9.5905992 -0.9718977,0 -1.9437954,0 -2.9451446,0 z"
     fill="#2867b2"
     id="path1"
     inkscape:label="path1"
     style="fill:#ffffff;stroke-width:0.0377583" />
  <path
     d="m 23.382649,17.611492 c 0.322256,0.230566 0.533788,0.55715 0.604279,0.947201 0.05568,0.450509 -0.07003,0.798805 -0.310325,1.176406 -0.293309,0.293309 -0.668353,0.466549 -1.083191,0.481418 -0.429971,-0.0163 -0.777921,-0.161786 -1.07847,-0.471978 -0.247169,-0.315101 -0.372042,-0.695492 -0.339824,-1.09499 0.05668,-0.396057 0.225291,-0.71655 0.528615,-0.981715 0.530891,-0.32534 1.132218,-0.390772 1.678916,-0.05634 z m -1.754432,0.433925 c -0.228867,0.322022 -0.276095,0.630794 -0.22655,1.019473 0.08264,0.344333 0.266014,0.578789 0.561654,0.766965 0.305415,0.171709 0.600626,0.224055 0.943957,0.134514 0.370674,-0.122058 0.609493,-0.333027 0.797643,-0.674929 0.121685,-0.301159 0.126987,-0.651841 0.01652,-0.958116 -0.163379,-0.349115 -0.429287,-0.574705 -0.783484,-0.715047 -0.51278,-0.0956 -0.965404,0.02074 -1.30974,0.42714 z"
     fill="#2867b2"
     id="path2"
     style="fill:#ffffff;stroke-width:0.0377583" />
  <path
     d="m 22.081316,18.045417 c 0.13239,-0.0031 0.26478,-0.0062 0.401182,-0.0094 0.0413,-0.0014 0.08261,-0.0027 0.125166,-0.0042 0.22689,-0.0026 0.359545,0.01095 0.530883,0.164639 0.07474,0.149485 0.05887,0.32832 0.03776,0.490858 -0.100954,0.140213 -0.174491,0.191928 -0.339825,0.226549 0.02726,0.04001 0.05451,0.08002 0.0826,0.12124 0.03541,0.0524 0.07081,0.104812 0.106196,0.157227 0.01801,0.02638 0.03602,0.05276 0.05457,0.07994 0.02555,0.03796 0.02555,0.03796 0.05162,0.0767 0.02373,0.035 0.02373,0.035 0.04793,0.07071 0.03466,0.06056 0.03466,0.06056 0.03466,0.136081 -0.119322,0.0174 -0.119322,0.0174 -0.264308,0 -0.08849,-0.08025 -0.144773,-0.176234 -0.205311,-0.278468 -0.01682,-0.02638 -0.03363,-0.05276 -0.05096,-0.07994 -0.121314,-0.193803 -0.121314,-0.193803 -0.121314,-0.283482 -0.08722,0 -0.174443,0 -0.264307,0 0,0.211824 0,0.423648 0,0.641891 -0.07476,0 -0.149523,0 -0.22655,0 0,-0.498409 0,-0.996819 0,-1.510331 z m 0.22655,0.188791 c 0,0.149523 0,0.299046 0,0.4531 0.07862,0.0041 0.1573,0.007 0.235989,0.0094 0.04381,0.0018 0.08761,0.0035 0.132744,0.0053 0.124901,-0.0046 0.124901,-0.0046 0.213422,-0.08481 0.0689,-0.07719 0.0689,-0.07719 0.06209,-0.177729 -0.03464,-0.09545 -0.03464,-0.09545 -0.110915,-0.160473 -0.179604,-0.06825 -0.341924,-0.05176 -0.533335,-0.04484 z"
     fill="#2867b2"
     id="path3"
     style="fill:#ffffff;stroke-width:0.0377583" />
</svg>
