<?xml version="1.0" encoding="UTF-8" standalone="no"?>
<svg
   version="1.1"
   width="635.62195"
   height="537.01691"
   id="svg3"
   sodipodi:docname="icon.svg"
   inkscape:version="1.4.2 (ebf0e940d0, 2025-05-08)"
   xmlns:inkscape="http://www.inkscape.org/namespaces/inkscape"
   xmlns:sodipodi="http://sodipodi.sourceforge.net/DTD/sodipodi-0.dtd"
   xmlns="http://www.w3.org/2000/svg"
   xmlns:svg="http://www.w3.org/2000/svg">
  <defs
     id="defs3" />
  <sodipodi:namedview
     id="namedview3"
     pagecolor="#ffffff"
     bordercolor="#999999"
     borderopacity="1"
     inkscape:showpageshadow="2"
     inkscape:pageopacity="0"
     inkscape:pagecheckerboard="0"
     inkscape:deskcolor="#d1d1d1"
     inkscape:zoom="0.92777778"
     inkscape:cx="317.42515"
     inkscape:cy="270"
     inkscape:window-width="1366"
     inkscape:window-height="707"
     inkscape:window-x="0"
     inkscape:window-y="0"
     inkscape:window-maximized="1"
     inkscape:current-layer="svg3" />
  <path
     d="m 40.12427,0.37423975 c 0.79992,-0.002352 1.599841,-0.004704 2.424001,-0.007128 2.697155,-0.00669 5.394262,-0.006232 8.091425,-0.005822 1.946644,-0.003299 3.893287,-0.007024 5.839929,-0.0111415 5.362671,-0.0100283 10.725332,-0.0137381 16.088011,-0.0163893 5.778658,-0.003901 11.557308,-0.0134791 17.33596,-0.0222129 13.962174,-0.0197714 27.924344,-0.0298315 41.886524,-0.0387278 6.57298,-0.004382 13.14596,-0.009749 19.71894,-0.0149889 21.84665,-0.017013 43.69329,-0.0315324 65.53995,-0.0387487 1.4129,-4.7475e-4 2.8258,-9.5064e-4 4.2387,-0.001428 0.70067,-2.3637e-4 1.40134,-4.7275e-4 2.12324,-7.1629e-4 3.54992,-0.001201 7.09983,-0.002417 10.64975,-0.003642 0.70449,-2.4015e-4 1.40898,-4.803e-4 2.13482,-7.2773e-4 22.83776,-0.007892 45.67547,-0.0313207 68.51321,-0.0638282 24.14739,-0.0343089 48.29476,-0.0540091 72.44218,-0.0573024 13.16218,-0.002166 26.32428,-0.0109296 39.48644,-0.0364612 11.20879,-0.0216921 22.41748,-0.0297647 33.62629,-0.0200332 5.71879,0.004549 11.43739,0.002623 17.15615,-0.0167614 5.23784,-0.0176013017 10.47535,-0.0166583 15.71319,-0.001103 1.8924,0.002381 3.78482,-0.001971 5.67718,-0.0138286 14.85393,-0.0872911 26.37078,1.52218836 37.37188,12.38802426 8.46809,9.149845 11.42536,19.161852 11.34543,31.477172 0.003,0.794471 0.006,1.588941 0.009,2.407486 0.007,2.648552 3.7e-4,5.29687 -0.007,7.94542 0.002,1.923511 0.005,3.847022 0.009,5.77053 0.008,5.275448 0.004,10.550823 -0.002,15.826271 -0.005,5.693324 0.002,11.386635 0.008,17.079957 0.009,11.149201 0.007,22.298371 10e-4,33.447561 -0.005,9.06102 -0.005,18.12203 -0.003,27.18305 3.1e-4,1.28951 6.1e-4,2.57901 9.3e-4,3.90758 6.4e-4,2.61958 10e-4,5.23916 0.002,7.85873 0.006,23.86477 -2e-4,47.72953 -0.0107,71.5943 -0.009,21.7793 -0.009,43.55858 9.2e-4,65.33788 0.0107,24.47705 0.0149,48.95408 0.009,73.43113 -6.4e-4,2.60995 -10e-4,5.21991 -0.002,7.82986 -3.1e-4,1.28415 -6.2e-4,2.56831 -9.3e-4,3.89137 -0.002,9.05037 10e-4,18.10074 0.006,27.15111 0.006,11.02901 0.004,22.058 -0.007,33.08701 -0.005,5.62738 -0.007,11.25472 -7e-4,16.8821 0.006,5.15173 0.003,10.30336 -0.008,15.45507 -0.002,1.86327 -10e-4,3.72655 0.004,5.58981 0.006,2.53471 -1.6e-4,5.06911 -0.009,7.60381 0.005,0.7214 0.009,1.44281 0.0142,2.18608 -0.0831,11.3852 -3.52825,21.50203 -11.32837,29.9239 -8.29109,7.84593 -17.57043,11.40655 -28.78598,11.38422 -0.79992,0.002 -1.59984,0.005 -2.424,0.007 -2.69716,0.007 -5.39427,0.006 -8.09143,0.006 -1.94664,0.003 -3.89329,0.007 -5.83993,0.0111 -5.36267,0.01 -10.72533,0.0137 -16.08801,0.0164 -5.77866,0.004 -11.55731,0.0135 -17.33596,0.0222 -13.96217,0.0198 -27.92434,0.0298 -41.88652,0.0387 -6.57298,0.004 -13.14596,0.01 -19.71895,0.015 -21.84664,0.017 -43.69329,0.0315 -65.53994,0.0387 -1.4129,4.8e-4 -2.8258,9.5e-4 -4.2387,10e-4 -1.05101,3.5e-4 -1.05101,3.5e-4 -2.12324,7.2e-4 -3.54992,0.001 -7.09984,0.002 -10.64975,0.004 -0.70449,2.4e-4 -1.40898,4.8e-4 -2.13482,7.2e-4 -22.83776,0.008 -45.67547,0.0313 -68.51321,0.0638 -24.1474,0.0343 -48.29476,0.054 -72.44218,0.0573 -13.16218,0.002 -26.32428,0.0109 -39.48644,0.0365 -11.20879,0.0217 -22.417483,0.0298 -33.62629,0.02 -5.718792,-0.005 -11.437389,-0.003 -17.156154,0.0168 -5.237842,0.0176 -10.475344,0.0167 -15.713189,0.001 -1.892396,-0.002 -3.784816,0.002 -5.677177,0.0138 -14.853937,0.0873 -26.370786,-1.52219 -37.371881,-12.38802 -8.4680925,-9.14985 -11.42536547,-19.16185 -11.34543247,-31.47717 -0.0029,-0.79447 -0.0058,-1.58895 -0.0088,-2.40749 -0.0073,-2.64855 -3.71e-4,-5.29687 0.0065,-7.94542 -0.0023,-1.92351 -0.0055,-3.84702 -0.0095,-5.77053 -0.0083,-5.27545 -0.0042,-10.55082 0.002,-15.82627 0.0045,-5.69332 -0.0025,-11.38664 -0.008,-17.07996 -0.0089,-11.14919 -0.007,-22.29836 -0.0012,-33.44756 0.0045,-9.06102 0.0051,-18.12203 0.003,-27.18305 -3.06e-4,-1.2895 -6.13e-4,-2.579 -9.28e-4,-3.90758 -6.4e-4,-2.61958 -0.0013,-5.23915 -0.0019,-7.85873 -0.005500003,-23.86477 2.06e-4,-47.72953 0.01069,-71.5943 0.0095,-21.7793 0.0086,-43.55858 -9.22e-4,-65.33788 -0.01071,-24.47705 -0.0149200035,-48.95408 -0.0088,-73.43113 6.37e-4,-2.60995 0.0013,-5.2199 0.0019,-7.82986 3.09e-4,-1.28415 6.17e-4,-2.5683 9.35e-4,-3.89137 0.0017,-9.05037 -0.0012,-18.10074 -0.0059,-27.15111 -0.0056,-11.02901 -0.0041,-22.058 0.0066,-33.087009 0.0053,-5.627384 0.0073,-11.25472 7.01e-4,-16.882104 -0.006,-5.151722 -0.0027,-10.303353 0.008,-15.455068 0.0022,-1.863269 0.0011,-3.726546 -0.0038,-5.589811 -0.0061,-2.53471 1.67e-4,-5.069108 0.0094,-7.603803 -0.0047,-0.721409 -0.0094,-1.442818 -0.01419,-2.186088 C 0.09253253,30.296908 3.5376705,20.180082 11.337794,11.75821 19.629379,3.9125295 28.908716,0.35191072 40.12427,0.37423975 Z M 100.27579,79.508461 c -0.933282,0.485977 -1.866564,0.971953 -2.828126,1.472656 -11.4286,6.604232 -18.33392,16.651261 -21.953125,29.246093 -2.61455,11.97189 -0.7795,23.65593 5.507812,34.16797 6.067265,8.85917 13.41261,14.91448 23.273439,19.11328 1.36125,0.58781 1.36125,0.58781 2.75,1.1875 12.74133,3.18533 25.46391,1.63034 37.01172,-4.75781 10.01384,-6.39628 16.83774,-15.92891 20.57812,-27.21485 2.70917,-13.19316 1.02388,-25.43486 -6.08984,-36.902339 -7.26594,-10.089576 -16.78448,-17.691307 -29.25,-20.3125 -10.2508,-0.619721 -19.68625,-0.873812 -29,4 z M 296.52188,223.48893 c -3.51768,4.18395 -6.42914,7.82026 -8.24609,13.01953 -0.99,0 -1.98,0 -3,0 0,-11.22 0,-22.44 0,-34 -24.75,0 -49.5,0 -75,0 0,83.82 0,167.64 0,254 25.74,0 51.48,0 78,0 0.049,-9.69246 0.098,-19.38492 0.14844,-29.37109 0.0354,-6.16603 0.0713,-12.33204 0.10937,-18.49805 0.0602,-9.77187 0.11858,-19.54372 0.16406,-29.31567 0.0332,-7.11944 0.0731,-14.23881 0.12092,-21.35817 0.025,-3.76258 0.0469,-7.52512 0.0606,-11.28777 0.20637,-54.64585 0.20637,-54.64585 14.39666,-70.16925 9.60334,-9.37906 22.27518,-11.25522 35.1206,-11.24878 10.28275,0.14452 18.73505,2.83071 26.53174,9.70581 15.8656,16.59226 12.82071,44.77212 12.85377,65.95024 0.009,4.07459 0.0357,8.14906 0.06,12.22358 0.0434,7.68821 0.0721,15.37641 0.0953,23.06472 0.0323,10.40859 0.0877,20.81706 0.14174,31.22556 0.0843,16.35959 0.13809,32.71913 0.19682,49.07887 25.74,0 51.48,0 78,0 0.78743,-60.31071 0.78743,-60.31071 1.125,-120.625 0.002,-0.95178 0.005,-1.90356 0.008,-2.88418 0.0232,-10.54038 -0.16716,-21.05912 -0.56616,-31.59238 -0.0372,-1.01164 -0.0744,-2.02329 -0.11265,-3.06558 -1.27034,-30.54459 -7.15304,-61.6595 -30.14126,-83.52036 -36.34888,-29.9555 -98.6487,-26.31079 -130.06641,8.66797 z M 81.275789,202.50846 c 0,83.82 0,167.64 0,254 25.740001,0 51.480001,0 78.000001,0 0,-83.82 0,-167.64 0,-254 -25.74,0 -51.48,0 -78.000001,0 z"
     fill="#2867b2"
     id="path1"
     inkscape:label="path1" />
  <path
     d="m 619.27189,466.42748 c 8.53472,6.10638 14.137,14.75572 16.0039,25.08594 1.47467,11.93138 -1.8548,21.15576 -8.21875,31.15625 -7.76807,7.76807 -17.70083,12.35621 -28.6875,12.75 -11.38748,-0.43175 -20.60268,-4.28479 -28.5625,-12.5 -6.54609,-8.34523 -9.85325,-18.41959 -9,-29 1.50112,-10.48928 5.96668,-18.97732 14,-26 14.06026,-8.61641 29.98596,-10.34932 44.46485,-1.49219 z m -46.46485,11.49219 c -6.06137,8.52851 -7.31218,16.70612 -6,27 2.18866,9.1194 7.04518,15.32879 14.875,20.3125 8.08867,4.5476 15.90714,5.93394 25,3.5625 9.81704,-3.23262 16.14198,-8.81997 21.125,-17.875 3.22272,-7.97596 3.36316,-17.26353 0.4375,-25.375 -4.32696,-9.24604 -11.36933,-15.22063 -20.75,-18.9375 -13.58059,-2.53197 -25.56801,0.54939 -34.6875,11.3125 z"
     fill="#2867b2"
     id="path2" />
  <path
     d="m 584.80704,477.91967 c 3.50625,-0.0825 7.0125,-0.165 10.625,-0.25 1.09393,-0.0364 2.18787,-0.0728 3.31495,-0.11035 6.009,-0.0684 9.52227,0.28991 14.06005,4.36035 1.9795,3.95899 1.55906,8.6953 1,13 -2.67368,3.71345 -4.62126,5.08309 -9,6 0.72188,1.05961 1.44375,2.11922 2.1875,3.21094 0.93775,1.38786 1.87523,2.77589 2.8125,4.16406 0.47696,0.69867 0.95391,1.39735 1.44532,2.11719 0.67675,1.00547 0.67675,1.00547 1.36718,2.03125 0.62842,0.92692 0.62842,0.92692 1.26954,1.87256 0.91796,1.604 0.91796,1.604 0.91796,3.604 -3.16015,0.46094 -3.16015,0.46094 -7,0 -2.34361,-2.12533 -3.8342,-4.66743 -5.4375,-7.375 -0.44537,-0.69867 -0.89074,-1.39734 -1.34961,-2.11719 -3.21289,-5.13272 -3.21289,-5.13272 -3.21289,-7.50781 -2.31,0 -4.62,0 -7,0 0,5.61 0,11.22 0,17 -1.98,0 -3.96,0 -6,0 0,-13.2 0,-26.4 0,-40 z m 6,5 c 0,3.96 0,7.92 0,12 2.08219,0.10832 4.166,0.18574 6.25,0.25 1.16016,0.0464 2.32032,0.0928 3.51563,0.14063 3.30792,-0.12098 3.30792,-0.12098 5.65234,-2.2461 1.82482,-2.04429 1.82482,-2.04429 1.64453,-4.70703 -0.91754,-2.52792 -0.91754,-2.52792 -2.9375,-4.25 -4.75667,-1.80753 -9.05561,-1.37073 -14.125,-1.1875 z"
     fill="#2867b2"
     id="path3" />
</svg>
