<?xml version="1.0" encoding="UTF-8" standalone="no"?>
<svg
   version="1.1"
   width="24"
   height="5.8265934"
   id="svg10"
   sodipodi:docname="logo.svg"
   inkscape:version="1.4.2 (ebf0e940d0, 2025-05-08)"
   xmlns:inkscape="http://www.inkscape.org/namespaces/inkscape"
   xmlns:sodipodi="http://sodipodi.sourceforge.net/DTD/sodipodi-0.dtd"
   xmlns="http://www.w3.org/2000/svg"
   xmlns:svg="http://www.w3.org/2000/svg">
  <defs
     id="defs10" />
  <sodipodi:namedview
     id="namedview10"
     pagecolor="#ffffff"
     bordercolor="#999999"
     borderopacity="1"
     inkscape:showpageshadow="2"
     inkscape:pageopacity="0"
     inkscape:pagecheckerboard="0"
     inkscape:deskcolor="#d1d1d1"
     inkscape:zoom="0.038879685"
     inkscape:cx="4153.8403"
     inkscape:cy="-12230.037"
     inkscape:window-width="1366"
     inkscape:window-height="707"
     inkscape:window-x="0"
     inkscape:window-y="0"
     inkscape:window-maximized="1"
     inkscape:current-layer="svg10" />
  <path
     d="m 17.542829,0.00406102 c 0.01305,-3.827e-5 0.01305,-3.827e-5 0.02636,-7.733e-5 0.02933,-7.259e-5 0.05865,-6.762e-5 0.08798,-6.317e-5 0.02116,-3.58e-5 0.04233,-7.621e-5 0.0635,-1.2089e-4 0.05831,-1.088e-4 0.116616,-1.4905e-4 0.174925,-1.7782e-4 0.06283,-4.232e-5 0.125661,-1.4625e-4 0.188493,-2.4101e-4 0.15181,-2.1452e-4 0.30362,-3.2367e-4 0.45543,-4.2019e-4 0.07147,-4.754e-5 0.142935,-1.0578e-4 0.214403,-1.6263e-4 0.237536,-1.8459e-4 0.475073,-3.4212e-4 0.712611,-4.2042e-4 0.01536,-5.15e-6 0.03072,-1.031e-5 0.04609,-1.549e-5 0.01143,-3.85e-6 0.01143,-3.85e-6 0.02308,-7.77e-6 0.0386,-1.303e-5 0.0772,-2.623e-5 0.115795,-3.952e-5 0.0077,-2.6e-6 0.01532,-5.21e-6 0.02321,-7.89e-6 0.248314,-8.563e-5 0.496627,-3.3983e-4 0.744941,-6.9253e-4 0.262553,-3.7225e-4 0.525105,-5.8601e-4 0.787658,-6.2173238e-4 0.143112,-2.350091e-5 0.286223,-1.1858734e-4 0.429335,-3.9560073e-4 0.121871,-2.3535515e-4 0.243743,-3.2294538e-4 0.365616,-2.173584e-4 0.06218,4.935623e-5 0.124358,2.845931e-5 0.186538,-1.8185968e-4 0.05695,-1.909693051e-4 0.113898,-1.80744305e-4 0.170848,-1.196745e-5 0.02058,2.583364e-5 0.04115,-2.138517e-5 0.06173,-1.50039061e-4 C 22.584039,-9.1811958e-4 22.707078,0.01650063 22.82821,0.13571622 c 0.112515,0.12775927 0.11485,0.28674655 0.11401,0.44748195 1.08e-4,0.020966 1.19e-4,0.041932 2.06e-4,0.0628978 1.84e-4,0.0573045 1.08e-4,0.11460582 0,0.17191032 -1.09e-4,0.0619202 0,0.12383986 1.73e-4,0.18576001 1.96e-4,0.1211797 1.52e-4,0.2423583 0,0.363538 -1.08e-4,0.098507 -1.08e-4,0.1970127 -1.08e-4,0.2955191 7e-6,0.014033 1.1e-5,0.028066 0,0.042524 1.1e-5,0.028509 0,0.057019 0,0.085528 1.19e-4,0.2595696 -5e-6,0.5191386 -2.28e-4,0.7787082 -2.06e-4,0.2367481 -1.85e-4,0.4734953 0,0.7102436 2.28e-4,0.2662421 3.25e-4,0.5324837 1.84e-4,0.798726 -10e-6,0.028403 0,0.056806 0,0.08521 -6e-6,0.013974 -10e-6,0.027948 0,0.042346 0,0.098361 0,0.196721 1.31e-4,0.2950817 1.19e-4,0.119908 1.08e-4,0.2398148 -1.41e-4,0.3597228 -1.09e-4,0.061151 -1.63e-4,0.1222993 0,0.18345 1.3e-4,0.056031 1.08e-4,0.1120585 -1.74e-4,0.1680893 0,0.020216 0,0.040432 1.08e-4,0.060647 8.14e-4,0.1679983 -0.01521,0.3037868 -0.136246,0.4299342 -0.05569,0.053528 -0.110345,0.084649 -0.184067,0.1071852 -0.0059,0.00191 -0.01184,0.00383 -0.01795,0.0058 -0.03659,0.00726 -0.07289,0.00658 -0.110039,0.0065 -0.0086,2.17e-5 -0.01723,5.43e-5 -0.02611,7.6e-5 -0.02905,7.59e-5 -0.05811,6.51e-5 -0.08716,6.51e-5 -0.02097,3.25e-5 -0.04194,7.59e-5 -0.06291,1.204e-4 -0.05777,1.085e-4 -0.115543,1.486e-4 -0.173314,1.779e-4 -0.06226,4.34e-5 -0.12451,1.465e-4 -0.186764,2.409e-4 -0.150427,2.148e-4 -0.300853,3.233e-4 -0.451279,4.199e-4 -0.07083,4.34e-5 -0.141655,1.085e-4 -0.212482,1.627e-4 -0.235433,1.845e-4 -0.470865,3.418e-4 -0.706299,4.199e-4 -0.01523,5.2e-6 -0.03045,1.03e-5 -0.04568,1.09e-5 -0.01133,3.8e-6 -0.01133,3.8e-6 -0.02288,7.8e-6 -0.03826,1.09e-5 -0.07651,2.17e-5 -0.114771,4.34e-5 -0.01139,3.9e-6 -0.01139,3.9e-6 -0.02301,7.8e-6 -0.246056,8.68e-5 -0.492114,3.396e-4 -0.73817,6.922e-4 -0.260202,3.722e-4 -0.520402,5.859e-4 -0.780602,6.217e-4 -0.141815,2.17e-5 -0.283629,1.183e-4 -0.425444,3.961e-4 -0.120783,2.354e-4 -0.241566,3.233e-4 -0.36235,2.17e-4 -0.06161,-5.43e-5 -0.123221,-3.26e-5 -0.184832,1.822e-4 -0.05646,1.91e-4 -0.11291,1.801e-4 -0.169366,1.09e-5 -0.02037,-2.17e-5 -0.04075,2.17e-5 -0.06112,1.497e-4 -0.158617,9.418e-4 -0.298447,-0.00989 -0.419018,-0.1248305 -0.0061,-0.00568 -0.01222,-0.011357 -0.01852,-0.017207 -0.0958,-0.099439 -0.113453,-0.2321247 -0.113073,-0.3642024 0,-0.00851 0,-0.017019 -1.09e-4,-0.025786 0,-0.028425 0,-0.05685 3e-6,-0.085275 0,-0.020621 0,-0.041243 -1.09e-4,-0.061864 -1.08e-4,-0.056602 -1.08e-4,-0.1132039 0,-0.1698059 2e-6,-0.06107 -1.08e-4,-0.1221399 -1.08e-4,-0.1832099 -1.09e-4,-0.1196203 -1.2e-4,-0.2392405 -1.31e-4,-0.3588608 -5e-6,-0.09723 0,-0.1944604 -1.08e-4,-0.2916907 -1.09e-4,-0.2308185 -1.52e-4,-0.4616371 -1.41e-4,-0.6924556 0,-0.00738 10e-7,-0.014758 10e-7,-0.02236 1e-6,-0.037398 2e-6,-0.074797 3e-6,-0.1121949 0,-0.00743 0,-0.014854 0,-0.022507 1e-6,-0.01502 1e-6,-0.030039 1e-6,-0.045059 8e-6,-0.2336797 -1.08e-4,-0.4673592 -2.28e-4,-0.7010389 -1.62e-4,-0.2626294 -2.6e-4,-0.5252587 -2.49e-4,-0.7878882 4e-6,-0.1390235 0,-0.2780467 -1.41e-4,-0.4170702 -1.09e-4,-0.118357 -1.2e-4,-0.2367138 0,-0.35507086 0,-0.0603781 0,-0.12075557 -1.09e-4,-0.18113357 -1.08e-4,-0.0553016 -1.08e-4,-0.11060231 0,-0.16590393 0,-0.0199761 -2e-6,-0.0399523 -1.08e-4,-0.0599283 -4.88e-4,-0.17397913 0.004,-0.32566699 0.128902,-0.45973193 0.08889,-0.08461722 0.186008,-0.11765115 0.306399,-0.11741198 z m 0.56567,0.91284869 c -0.01074,0.007832 -0.02148,0.0156646 -0.03255,0.0237342 -0.07708,0.065979 -0.130222,0.17093319 -0.151898,0.26921339 -0.01054,0.1742951 0.01578,0.2964 0.126639,0.4349711 0.07631,0.08495 0.192279,0.1465906 0.306721,0.1535093 0.16012,0.00385 0.276414,-0.028793 0.398692,-0.1368529 0.102958,-0.116871 0.161744,-0.236805 0.154611,-0.3960217 -0.01566,-0.1374 -0.07556,-0.2497564 -0.17915,-0.34045831 -0.191956,-0.14868977 -0.42777,-0.15131118 -0.623065,-0.008095 z m 2.213382,1.50813739 c -0.05912,0.063657 -0.05912,0.063657 -0.0868,0.1410489 -0.01074,0 -0.02148,0 -0.03255,0 0,-0.1253165 0,-0.2506329 0,-0.3797469 -0.268536,0 -0.537071,0 -0.813744,0 0,0.9130199 0,1.8260398 0,2.766727 0.279277,0 0.558554,0 0.846293,0 5.32e-4,-0.102435 0.0011,-0.2048701 0.0016,-0.3104091 3.79e-4,-0.065269 7.7e-4,-0.1305381 0.0012,-0.195807 6.51e-4,-0.1033776 0.0013,-0.2067551 0.0018,-0.3101336 3.58e-4,-0.075326 7.92e-4,-0.150652 0.0013,-0.2259774 2.71e-4,-0.039788 5.1e-4,-0.079575 6.62e-4,-0.1193634 0.0024,-0.6234227 0.0024,-0.6234227 0.156201,-0.7912932 0.117139,-0.1122572 0.259404,-0.1236799 0.413315,-0.1216377 0.100611,0.00307 0.183025,0.033108 0.25938,0.099938 0.127152,0.1427277 0.13339,0.3513933 0.133659,0.5323158 1.08e-4,0.015841 2.17e-4,0.031682 3.25e-4,0.047524 2.93e-4,0.042538 4.56e-4,0.085075 5.97e-4,0.1276142 1.74e-4,0.044629 4.66e-4,0.089257 7.38e-4,0.1338852 5.1e-4,0.084302 9e-4,0.1686035 0.0013,0.2529059 4.99e-4,0.1140651 0.0012,0.2281292 0.0018,0.3421934 10e-4,0.1794148 0.0018,0.3588297 0.0027,0.5382456 0.282857,0 0.565714,0 0.857143,0 6.29e-4,-0.2818434 6.29e-4,-0.2818434 0.0011,-0.5636867 1.3e-4,-0.1151816 2.82e-4,-0.2303629 5.75e-4,-0.3455442 2.17e-4,-0.083941 3.58e-4,-0.1678825 4.01e-4,-0.2518242 0,-0.044303 1.09e-4,-0.088604 2.5e-4,-0.132907 5.86e-4,-0.1671663 -1.08e-4,-0.3336571 -0.01175,-0.5005007 -0.0012,-0.017699 -0.0012,-0.017699 -0.0025,-0.035756 C 22.032397,2.815539 21.951454,2.52699 21.716762,2.3138356 21.319527,1.9918752 20.661738,2.0603474 20.321871,2.4250471 Z M 17.98915,2.1863491 c 0,0.9130199 0,1.8260398 0,2.766727 0.279277,0 0.558553,0 0.846293,0 0,-0.9130199 0,-1.8260398 0,-2.766727 -0.279277,0 -0.558553,0 -0.846293,0 z"
     fill="#2867b2"
     id="path1"
     style="stroke-width:0.0108499" />
  <path
     d="m 15.396022,0.86266016 c 0.286437,0 0.572875,0 0.867992,0 0,1.35341774 0,2.70683544 0,4.10126584 -0.264954,0 -0.529909,0 -0.802893,0 -0.0036,-0.1145751 -0.0072,-0.2291501 -0.01085,-0.3471971 -0.0188,0.021259 -0.0376,0.042518 -0.05696,0.064421 -0.151807,0.1660999 -0.344676,0.2713402 -0.561483,0.3261754 -0.01554,0.00399 -0.01554,0.00399 -0.0314,0.00805 -0.318245,0.066472 -0.698533,-0.014839 -0.970177,-0.1911449 -0.324563,-0.2281189 -0.515633,-0.5404763 -0.587845,-0.9298712 -0.06607,-0.4451989 0.0039,-0.9325072 0.275227,-1.3018593 0.02131,-0.027626 0.04375,-0.054182 0.06646,-0.080657 0.0076,-0.00938 0.01527,-0.018769 0.02314,-0.028439 0.189446,-0.224049 0.474981,-0.3644171 0.765746,-0.3928642 0.284272,-0.021084 0.637045,0.01104 0.865683,0.2019736 0.03206,0.028443 0.06233,0.058461 0.09227,0.08913 0.0179,0.017902 0.0358,0.035805 0.05425,0.05425 0.0054,-0.7787523 0.0054,-0.7787523 0.01085,-1.57323694 z M 14.238705,3.0893393 c -0.126731,0.1685734 -0.166909,0.3899101 -0.13929,0.5958655 0.02065,0.1311209 0.06832,0.2386352 0.146516,0.345629 0.01208,0.016783 0.01208,0.016783 0.02441,0.033906 0.125208,0.1308995 0.299048,0.1923963 0.477213,0.1983288 0.201601,0.0026 0.37912,-0.048905 0.529116,-0.1888351 0.150014,-0.1581548 0.189598,-0.3544554 0.186782,-0.5656364 -0.0059,-0.1875209 -0.07922,-0.3628526 -0.213904,-0.4942642 -0.290205,-0.2361468 -0.766656,-0.2163498 -1.010843,0.075006 z"
     fill="#2867b2"
     id="path2"
     style="stroke-width:0.0108499" />
  <path
     d="m 7.4104882,0.86266016 c 0.2900181,0 0.5800362,0 0.8788427,0 0.00358,0.79486434 0.00716,1.58972874 0.01085,2.40867994 0.046546,-0.053707 0.093092,-0.1074141 0.1410489,-0.1627487 0.040051,-0.046155 0.040051,-0.046155 0.055934,-0.064456 0.056703,-0.06535 0.1130808,-0.1309631 0.1692596,-0.1967632 0.031761,-0.037087 0.064044,-0.073597 0.096913,-0.1097123 0.032871,-0.036182 0.064216,-0.073187 0.094937,-0.1112116 0.041889,-0.051796 0.086114,-0.1008649 0.1312161,-0.1498644 0.034593,-0.038534 0.066897,-0.078702 0.099387,-0.1190099 0.035581,-0.042866 0.073222,-0.083624 0.1111267,-0.1244349 0.023654,-0.025286 0.023654,-0.025286 0.04412,-0.05764 0.019445,-0.00401 0.019445,-0.00401 0.043388,-0.00391 0.00907,-4.34e-5 0.018136,-8.68e-5 0.027478,-1.356e-4 0.00997,1.172e-4 0.019932,2.343e-4 0.0302,3.548e-4 0.01048,-4.7e-6 0.02096,-9.5e-6 0.031757,-1.09e-5 0.034757,2.17e-5 0.069508,2.767e-4 0.1042639,5.306e-4 0.024052,6.51e-5 0.048103,1.085e-4 0.072154,1.4e-4 0.063394,1.247e-4 0.1267859,4.448e-4 0.1901791,8.039e-4 0.064652,3.32e-4 0.1293037,4.818e-4 0.193956,6.456e-4 0.1269218,3.494e-4 0.2538428,9.049e-4 0.3807638,0.00159 -0.02018,0.043599 -0.04912,0.074779 -0.08205,0.1091772 -0.04103,0.043572 -0.08063,0.087456 -0.117993,0.1342676 -0.0437,0.054485 -0.09066,0.1051175 -0.1385032,0.1559225 -0.035184,0.037567 -0.068696,0.075782 -0.1008729,0.1160034 -0.04948,0.061805 -0.1032624,0.1190581 -0.1573661,0.1767773 -0.047493,0.050679 -0.09274,0.103123 -0.137743,0.1560097 -0.01103,0.012944 -0.022064,0.025885 -0.033101,0.038822 -0.00838,0.00982 -0.00838,0.00982 -0.016927,0.019848 -0.036683,0.042808 -0.074222,0.08465 -0.1125943,0.1259474 -0.046525,0.050218 -0.090284,0.1019631 -0.1328266,0.1555859 -0.022463,0.026825 -0.022463,0.026825 -0.053063,0.053992 -0.0078,0.00894 -0.015609,0.017874 -0.023649,0.027082 0.00331,0.040087 0.015426,0.065285 0.039416,0.097013 0.00598,0.00801 0.011958,0.016014 0.018118,0.024264 0.00652,0.00854 0.013049,0.017077 0.019771,0.025875 0.00678,0.00903 0.013553,0.018056 0.020534,0.027358 0.014337,0.019083 0.028717,0.038136 0.043135,0.057158 0.027777,0.036651 0.055353,0.07345 0.082929,0.1102526 0.01356,0.018092 0.027131,0.036175 0.040714,0.05425 0.084186,0.1120593 0.1671169,0.225043 0.2499479,0.338106 0.067199,0.091606 0.1351681,0.1825279 0.204241,0.2727312 0.052386,0.068414 0.1039842,0.13716 0.1535462,0.2076475 0.04016,0.056963 0.08217,0.1124826 0.124663,0.1677259 0.0052,0.0068 0.01034,0.0136 0.01567,0.020606 0.0068,0.00886 0.0068,0.00886 0.01375,0.017904 0.0216,0.031559 0.03969,0.064832 0.05856,0.098097 -0.141376,0.00277 -0.282745,0.00489 -0.4241422,0.00618 -0.065662,6.228e-4 -0.1313053,0.00147 -0.1969566,0.00282 -0.063387,0.0013 -0.126756,0.00201 -0.1901552,0.00232 -0.024158,2.202e-4 -0.048314,6.499e-4 -0.072464,0.0013 -0.1885046,0.00483 -0.1885046,0.00483 -0.2444095,-0.036479 -0.022846,-0.030801 -0.038665,-0.06064 -0.054512,-0.095489 -0.010942,-0.016859 -0.022178,-0.033532 -0.033745,-0.049969 -0.010862,-0.016553 -0.021694,-0.033125 -0.032499,-0.049715 -0.012428,-0.018954 -0.024857,-0.037908 -0.037286,-0.056861 -0.00644,-0.00984 -0.012877,-0.019684 -0.01951,-0.029825 C 8.8611966,4.4600258 8.7297852,4.263072 8.5967654,4.0671131 8.4961558,3.9186289 8.3983858,3.7687329 8.3001808,3.6185372 c -0.00358,0.4439783 -0.00716,0.8879566 -0.01085,1.3453888 -0.2900181,0 -0.5800361,0 -0.8788427,0 0,-1.3534177 0,-2.7068355 10e-8,-4.10126584 z"
     fill="#2867b2"
     id="path3"
     style="stroke-width:0.0108499" />
  <path
     d="m 11.640301,2.0873861 c 0.3542,-0.00828 0.692561,0.105655 0.951109,0.3504209 0.07034,0.068408 0.127361,0.1422045 0.178934,0.2259383 0.0056,0.00911 0.0056,0.00911 0.01135,0.01841 0.214284,0.3546256 0.20565,0.7495607 0.20565,1.1533803 -0.982839,0.00537 -0.982839,0.00537 -1.985534,0.01085 0.06023,0.1957504 0.136721,0.3365514 0.319824,0.4379697 0.174295,0.089884 0.362572,0.093479 0.547253,0.036422 0.150911,-0.052354 0.285069,-0.153747 0.369813,-0.2899437 0.03505,0.00665 0.05709,0.018428 0.08549,0.039797 0.0081,0.00604 0.0162,0.012075 0.02455,0.018296 0.0087,0.00656 0.01734,0.013128 0.02627,0.019891 0.01861,0.013903 0.03721,0.027805 0.05582,0.041704 0.0095,0.00715 0.01904,0.014294 0.02885,0.021657 0.04459,0.033394 0.08948,0.066384 0.134368,0.099387 0.01697,0.012502 0.03393,0.025005 0.0509,0.037508 0.07065,0.05203 0.14142,0.1039077 0.212208,0.1557555 -0.111907,0.2424663 -0.434286,0.3998402 -0.670951,0.4880526 -0.278272,0.097951 -0.615388,0.1129345 -0.902286,0.043593 -0.01357,-0.00323 -0.01357,-0.00323 -0.0274,-0.00653 C 10.87016,4.8949067 10.52975,4.6811645 10.320654,4.3357438 10.182776,4.0981683 10.118345,3.8419857 10.119575,3.5676782 c 5.5e-5,-0.014198 1.09e-4,-0.028395 1.62e-4,-0.043023 0.0047,-0.3886687 0.148499,-0.726693 0.416882,-1.0073833 0.29811,-0.2898751 0.69584,-0.4125423 1.103682,-0.4298858 z M 11.15125,2.89189 c -0.09691,0.1004619 -0.135557,0.2108639 -0.160292,0.3469004 0.372369,0 0.744738,0 1.128391,0 C 12.104439,3.074797 12.063939,2.961074 11.944394,2.8454812 11.707402,2.6480542 11.369383,2.6932742 11.15125,2.89189 Z"
     fill="#2867b2"
     id="path4"
     style="stroke-width:0.0108499" />
  <path
     d="m 5.9484629,2.106331 c 0.020562,1.53e-4 0.020562,1.53e-4 0.04154,3.104e-4 0.2574547,0.00413 0.5106234,0.0619 0.7043912,0.2424567 0.1857389,0.1925493 0.2516406,0.4463967 0.2820977,0.7052441 9.591e-4,0.00813 0.00192,0.01627 0.00291,0.024651 0.00946,0.090821 0.0094,0.1813956 0.00918,0.2725853 -3.1e-6,0.017655 -1.3e-6,0.03531 4.8e-6,0.052966 3.1e-6,0.047583 -6.51e-5,0.095166 -1.367e-4,0.1427491 -6.51e-5,0.049856 -7.59e-5,0.099712 -8.68e-5,0.1495682 -3.25e-5,0.094255 -1.226e-4,0.18851 -2.311e-4,0.282765 -1.443e-4,0.127476 -2.029e-4,0.254952 -2.658e-4,0.3824281 -9.76e-5,0.2006241 -3.179e-4,0.401248 -5.154e-4,0.601872 -0.2864376,0 -0.5728752,0 -0.8679927,0 -5.4e-4,-0.1090791 -0.00107,-0.2181575 -0.00162,-0.3305413 C 6.1173551,4.5640126 6.1169656,4.4946394 6.1165481,4.4252665 6.115895,4.3153133 6.1152581,4.2053604 6.1147681,4.0954065 6.1144133,4.0153002 6.1139793,3.9351946 6.1134605,3.8550892 6.1131893,3.8127495 6.1129517,3.7704102 6.1128041,3.7280699 6.1251675,3.3298045 6.1251675,3.3298045 5.9618144,2.9811901 5.8749106,2.8961894 5.7586966,2.8851867 5.6428837,2.8864654 c -0.1160197,0.00426 -0.219148,0.032366 -0.3047272,0.1136273 -0.00587,0.00557 -0.011748,0.011133 -0.017801,0.016868 -0.1382111,0.1458895 -0.146337,0.3682652 -0.1471757,0.5575624 -1.085e-4,0.015192 -2.126e-4,0.030384 -3.255e-4,0.045575 -2.918e-4,0.041017 -5.207e-4,0.082034 -7.377e-4,0.1230509 -2.387e-4,0.042949 -5.349e-4,0.085898 -8.257e-4,0.1288469 -5.404e-4,0.08123 -0.00103,0.1624592 -0.0015,0.2436891 -6.369e-4,0.109837 -0.00136,0.2196733 -0.00207,0.3295098 -0.00112,0.17291 -0.00214,0.3458204 -0.00317,0.5187309 -0.2864376,0 -0.5728752,0 -0.8679928,0 0,-0.9201808 0,-1.8403617 0,-2.7884268 0.2756962,0 0.5513924,0 0.8354431,0 0.00358,0.1145751 0.00716,0.2291501 0.01085,0.3471972 0.028644,-0.035805 0.057287,-0.071609 0.086799,-0.1084991 C 5.4140533,2.2021708 5.6701656,2.1030857 5.9484629,2.106331 Z"
     fill="#2867b2"
     id="path5"
     style="stroke-width:0.0108499" />
  <path
     d="m 0,0.86266016 c 0.30075949,0 0.60151899,0 0.91139241,0 0,1.07772154 0,2.15544304 0,3.26582274 0.54781189,0 1.09562389,0 1.66003619,0 0,0.2756963 0,0.5513925 0,0.8354431 -0.8485715,0 -1.69714289,0 -2.5714286,0 C 0,3.6105083 0,2.2570905 0,0.86266016 Z"
     fill="#2867b2"
     id="path6"
     style="stroke-width:0.0108499" />
  <path
     d="m 2.9511754,2.1754992 c 0.2900181,0 0.5800362,0 0.8788427,0 0,0.9201809 0,1.8403617 0,2.7884268 -0.2900181,0 -0.5800362,0 -0.8788427,0 0,-0.9201808 0,-1.8403617 0,-2.7884268 z"
     fill="#2867b2"
     id="path7"
     style="stroke-width:0.0108499" />
  <path
     d="M 3.7263082,0.91618921 C 3.8279136,1.0098862 3.8872915,1.1295696 3.8977877,1.2663531 3.9034116,1.4209262 3.8569623,1.552332 3.7541111,1.668266 3.6370865,1.7816403 3.5012569,1.8112673 3.3443576,1.8089334 3.2167925,1.8044086 3.1091957,1.7426525 3.0170801,1.6572889 2.9152981,1.5474563 2.8804116,1.4126115 2.8830668,1.2668193 2.8879255,1.1594941 2.9271174,1.0647552 2.994575,0.98200917 3.000565,0.97455417 3.006547,0.96709987 3.012715,0.95941937 3.197902,0.75246889 3.5152037,0.74899428 3.7263082,0.91618921 Z"
     fill="#2867b2"
     id="path8"
     style="stroke-width:0.0108499" />
  <path
     d="m 23.858613,5.1065312 c 0.09269,0.087988 0.134851,0.1766171 0.141387,0.3043909 -0.0012,0.1123672 -0.03952,0.2130726 -0.116297,0.2957448 -0.0794,0.073878 -0.178275,0.1152061 -0.286591,0.1162974 -0.139426,-0.00653 -0.228984,-0.050205 -0.324394,-0.1522378 -0.06859,-0.081545 -0.09119,-0.1839876 -0.08612,-0.2888788 0.01415,-0.1224227 0.0609,-0.20239 0.151221,-0.2861664 0.157624,-0.1221518 0.366733,-0.1104332 0.520796,0.01085 z m -0.531646,0.086799 c -0.07218,0.096602 -0.08577,0.1850333 -0.07595,0.3037975 0.02345,0.097046 0.09564,0.1711629 0.174997,0.2277633 0.08332,0.044878 0.186449,0.047568 0.277393,0.025557 0.105251,-0.042724 0.173442,-0.1238555 0.221405,-0.2240337 0.02843,-0.085422 0.02001,-0.1820695 -0.01805,-0.2625594 -0.05275,-0.091916 -0.118141,-0.1533312 -0.220177,-0.1853385 -0.141088,-0.027498 -0.26321,0.00875 -0.359615,0.1148141 z"
     fill="#2867b2"
     id="path9"
     style="stroke-width:0.0108499" />
  <path
     d="m 23.446316,5.2041804 c 0.03625,-6.716e-4 0.0725,-0.00134 0.109855,-0.00203 0.01695,-4.449e-4 0.01695,-4.449e-4 0.03425,-8.984e-4 0.05761,-5.154e-4 0.09968,0.00179 0.148843,0.035482 0.02589,0.038831 0.03023,0.062017 0.03255,0.1084991 -0.01407,0.049668 -0.02262,0.069913 -0.06713,0.096971 -0.01511,0.00571 -0.01511,0.00571 -0.03052,0.011528 0.03723,0.068941 0.03723,0.068941 0.07934,0.1349458 0.01831,0.027803 0.01831,0.027803 0.01831,0.049503 -0.03429,0.005 -0.03429,0.005 -0.07595,0 -0.02543,-0.02306 -0.0416,-0.050641 -0.059,-0.080018 -0.0048,-0.00758 -0.0097,-0.015161 -0.01464,-0.022971 -0.03486,-0.05569 -0.03486,-0.05569 -0.03486,-0.081459 -0.02148,0 -0.04297,0 -0.0651,0 0,0.060868 0,0.121736 0,0.1844485 -0.02506,0 -0.05013,0 -0.07595,0 0,-0.1432188 0,-0.2864376 0,-0.4339964 z m 0.07595,0.065099 c 0,0.042966 0,0.085931 0,0.1301989 0.07891,0.0041 0.07891,0.0041 0.151899,-0.0217 0.02492,-0.029934 0.02492,-0.029934 0.01899,-0.060353 -0.0064,-0.028074 -0.0064,-0.028074 -0.02984,-0.048146 -0.03394,-0.00264 -0.03394,-0.00264 -0.07188,-0.00136 -0.01934,2.941e-4 -0.01934,2.941e-4 -0.03908,5.935e-4 -0.0149,3.776e-4 -0.0149,3.776e-4 -0.03009,7.628e-4 z"
     fill="#2867b2"
     id="path10"
     style="stroke-width:0.0108499" />
</svg>
