<?xml version="1.0" encoding="UTF-8" standalone="no"?>
<svg
   width="23.999996"
   height="23.600075"
   version="1.1"
   id="svg1"
   sodipodi:docname="icon-dark.svg"
   inkscape:version="1.4.2 (ebf0e940d0, 2025-05-08)"
   xmlns:inkscape="http://www.inkscape.org/namespaces/inkscape"
   xmlns:sodipodi="http://sodipodi.sourceforge.net/DTD/sodipodi-0.dtd"
   xmlns="http://www.w3.org/2000/svg"
   xmlns:svg="http://www.w3.org/2000/svg">
  <defs
     id="defs1" />
  <sodipodi:namedview
     id="namedview1"
     pagecolor="#ffffff"
     bordercolor="#000000"
     borderopacity="0.25"
     inkscape:showpageshadow="2"
     inkscape:pageopacity="0.0"
     inkscape:pagecheckerboard="0"
     inkscape:deskcolor="#d1d1d1"
     inkscape:zoom="5.0833333"
     inkscape:cx="49.081967"
     inkscape:cy="48"
     inkscape:window-width="1366"
     inkscape:window-height="699"
     inkscape:window-x="0"
     inkscape:window-y="0"
     inkscape:window-maximized="1"
     inkscape:current-layer="svg1" />
  <path
     fill-rule="evenodd"
     clip-rule="evenodd"
     d="M 12.009929,0 C 5.3687487,0 0,5.4083278 0,12.099167 c 0,5.348344 3.4399423,9.875606 8.2120541,11.477946 0.5966369,0.120459 0.8151825,-0.260337 0.8151825,-0.580657 0,-0.280496 -0.019667,-1.241949 -0.019667,-2.243719 C 5.6666984,21.474011 4.9709908,19.310434 4.9709908,19.310434 4.4340913,17.908203 3.6385755,17.547811 3.6385755,17.547811 c -1.0934656,-0.741186 0.07965,-0.741186 0.07965,-0.741186 1.2129404,0.08014 1.8494023,1.241948 1.8494023,1.241948 1.073553,1.842765 2.8034804,1.322091 3.4994339,1.001524 0.099316,-0.781257 0.4176704,-1.32209 0.7556909,-1.622498 -2.6645848,-0.280496 -5.4680653,-1.32209 -5.4680653,-5.969565 0,-1.32209 0.4769162,-2.4037557 1.2326071,-3.2449965 -0.119229,-0.3004081 -0.5368995,-1.5426026 0.1194749,-3.2051718 0,0 1.0140614,-0.3205663 3.3005549,1.2419488 a 11.54678,11.54678 0 0 1 3.0026048,-0.400708 c 1.014062,0 2.04779,0.1403707 3.00236,0.400708 2.286739,-1.5625151 3.300801,-1.2419488 3.300801,-1.2419488 0.656374,1.6625692 0.238458,2.9047637 0.119229,3.2051718 0.775603,0.8412408 1.232853,1.9229065 1.232853,3.2449965 0,4.647475 -2.803481,5.668911 -5.487978,5.969565 0.437583,0.380549 0.815182,1.101578 0.815182,2.243473 0,1.622498 -0.01967,2.924676 -0.01967,3.325138 0,0.320566 0.218791,0.701362 0.815182,0.581149 C 20.56,21.974528 23.999942,17.447511 23.999942,12.099167 24.019613,5.4083278 18.631198,0 12.009929,0 Z"
     fill="#ffffff"
     id="path1"
     style="stroke-width:0.245833" />
</svg>
