<?xml version="1.0" encoding="UTF-8" standalone="no"?>
<!-- Created with Inkscape (http://www.inkscape.org/) -->

<svg
   width="24.000002mm"
   height="6.4903698mm"
   viewBox="0 0 24.000002 6.4903698"
   version="1.1"
   id="svg1"
   inkscape:version="1.4.2 (ebf0e940d0, 2025-05-08)"
   sodipodi:docname="logo-light.svg"
   xmlns:inkscape="http://www.inkscape.org/namespaces/inkscape"
   xmlns:sodipodi="http://sodipodi.sourceforge.net/DTD/sodipodi-0.dtd"
   xmlns="http://www.w3.org/2000/svg"
   xmlns:svg="http://www.w3.org/2000/svg">
  <sodipodi:namedview
     id="namedview1"
     pagecolor="#ffffff"
     bordercolor="#000000"
     borderopacity="0.25"
     inkscape:showpageshadow="2"
     inkscape:pageopacity="0.0"
     inkscape:pagecheckerboard="0"
     inkscape:deskcolor="#d1d1d1"
     inkscape:document-units="mm"
     inkscape:zoom="0.43473625"
     inkscape:cx="483.0515"
     inkscape:cy="308.23286"
     inkscape:window-width="1366"
     inkscape:window-height="699"
     inkscape:window-x="0"
     inkscape:window-y="0"
     inkscape:window-maximized="1"
     inkscape:current-layer="layer1" />
  <defs
     id="defs1" />
  <g
     inkscape:label="Layer 1"
     inkscape:groupmode="layer"
     id="layer1"
     transform="translate(22.225003,-66.67499)">
    <path
       style="fill:#0c0c0c;fill-opacity:1;fill-rule:nonzero;stroke:none;stroke-width:0.066632"
       d="m -17.602408,69.452979 h -2.016659 c -0.05206,0 -0.09448,0.04217 -0.09448,0.09422 v 0.985945 c 0,0.05206 0.04242,0.09448 0.09448,0.09448 h 0.78657 v 1.225143 c 0,0 -0.176471,0.06012 -0.665018,0.06012 -0.576262,0 -1.381052,-0.210568 -1.381052,-1.980479 0,-1.770432 0.838106,-2.003383 1.624935,-2.003383 0.681156,0 0.974753,0.119989 1.161375,0.177772 0.05856,0.01796 0.112961,-0.04034 0.112961,-0.0924 l 0.224883,-0.952889 c 0,-0.02421 -0.0081,-0.05362 -0.03592,-0.07366 -0.07574,-0.05388 -0.538522,-0.312858 -1.707184,-0.312858 -1.346174,0 -2.727486,0.572879 -2.727486,3.326393 0,2.753513 1.581208,3.163977 2.913847,3.163977 1.103072,0 1.772254,-0.471369 1.772254,-0.471369 0.02759,-0.01536 0.03071,-0.05388 0.03071,-0.07158 V 69.54719 c 0,-0.05206 -0.04217,-0.09422 -0.09422,-0.09422"
       id="path9"
       sodipodi:nodetypes="cssssccsssccccssscssc" />
    <path
       style="fill:#0c0c0c;fill-opacity:1;fill-rule:nonzero;stroke:none;stroke-width:0.066632"
       d="m -7.2088637,67.005035 c 0,-0.05258 -0.041645,-0.095 -0.093701,-0.095 h -1.135606 c -0.051796,0 -0.093962,0.04243 -0.093962,0.095 l 2.644e-4,2.19443 h -1.7699087 v -2.19443 c 0,-0.05258 -0.04191,-0.095 -0.0937,-0.095 h -1.135606 c -0.05154,0 -0.0937,0.04243 -0.0937,0.095 v 5.941958 c 0,0.05232 0.04217,0.095 0.0937,0.095 h 1.135606 c 0.0518,0 0.0937,-0.04269 0.0937,-0.095 v -2.541645 h 1.7699108 c 0,0 -0.00313,2.541384 -0.00313,2.541645 0,0.05232 0.042165,0.095 0.094222,0.095 h 1.1382092 c 0.051796,0 0.093441,-0.04269 0.093701,-0.095 z"
       id="path10"
       sodipodi:nodetypes="ssscccssssssssccssscs" />
    <path
       style="fill:#0c0c0c;fill-opacity:1;fill-rule:nonzero;stroke:none;stroke-width:0.066632"
       d="m -15.459514,67.784577 c 0,-0.408641 -0.327954,-0.739198 -0.732431,-0.739198 -0.403956,0 -0.731911,0.330557 -0.731911,0.739198 0,0.408642 0.327955,0.73998 0.731911,0.73998 0.404477,0 0.732431,-0.331338 0.732431,-0.73998"
       id="path11"
       sodipodi:nodetypes="csssc" />
    <path
       style="fill:#0c0c0c;fill-opacity:1;fill-rule:nonzero;stroke:none;stroke-width:0.066632"
       d="m -15.540722,71.693479 v -2.742842 c 0,-0.05206 -0.04217,-0.09448 -0.09396,-0.09448 h -1.131963 c -0.05206,0 -0.09839,0.05336 -0.09839,0.105413 v 3.929724 c 0,0.115565 0.07184,0.149922 0.165018,0.149922 h 1.019782 c 0.11192,0 0.13951,-0.05492 0.13951,-0.151743 z"
       id="path12"
       sodipodi:nodetypes="cssssssssc" />
    <path
       style="fill:#0c0c0c;fill-opacity:1;fill-rule:nonzero;stroke:none;stroke-width:0.066632"
       d="m -2.8934025,68.865004 h -1.1267572 c -0.051796,0 -0.093701,0.04243 -0.093701,0.095 v 2.913587 c 0,0 -0.2863088,0.209526 -0.6926079,0.209526 -0.4062983,0 -0.5143154,-0.184539 -0.5143154,-0.582249 v -2.540864 c 0,-0.05258 -0.041905,-0.095 -0.093701,-0.095 h -1.1436751 c -0.051536,0 -0.093701,0.04243 -0.093701,0.095 v 2.733211 c 0,1.181677 0.658511,1.47085 1.5645499,1.47085 0.7433628,0 1.34253,-0.410724 1.34253,-0.410724 0,0 0.028631,0.216553 0.041645,0.242061 0.012753,0.02551 0.04633,0.05154 0.082769,0.05154 l 0.7274858,-0.0034 c 0.051536,0 0.093962,-0.04243 0.093962,-0.09474 l -5.289e-4,-3.988808 c 0,-0.05258 -0.041906,-0.095 -0.093962,-0.095"
       id="path13"
       sodipodi:nodetypes="csscssssssssccccccc" />
    <path
       style="fill:#0c0c0c;fill-opacity:1;fill-rule:nonzero;stroke:none;stroke-width:0.066632"
       d="m -0.25779587,72.079476 c -0.39094236,-0.01197 -0.65616882,-0.189224 -0.65616882,-0.189224 v -1.881833 c 0,0 0.26158225,-0.160333 0.58250923,-0.188964 0.40577796,-0.03644 0.79672031,0.08615 0.79672031,1.054138 0,1.020823 -0.1764708,1.22228 -0.72306072,1.205883 M 0.18650414,68.73148 c -0.64003146,0 -1.07522132,0.285528 -1.07522132,0.285528 v -2.011973 c 0,-0.05258 -0.0421661,-0.095 -0.0937012,-0.095 H -2.1214086 c -0.051536,0 -0.093701,0.04243 -0.093701,0.095 v 5.941958 c 0,0.05258 0.042165,0.095 0.093961,0.095 h 0.7902137 c 0.035398,0 0.062467,-0.01823 0.082249,-0.05049 0.019782,-0.03175 0.048152,-0.273816 0.048152,-0.273816 0,0 0.46564286,0.441177 1.34695446,0.441177 1.03487844,0 1.62857874,-0.524987 1.62857874,-2.356325 0,-1.831598 -0.94794323,-2.071057 -1.58849486,-2.071057"
       id="path14"
       sodipodi:nodetypes="ccccscccsssssssccssc" />
    <path
       style="fill:#0c0c0c;fill-opacity:1;fill-rule:nonzero;stroke:none;stroke-width:0.066632"
       d="m -12.277057,68.855634 h -0.8519 c 0,0 -0.0013,-1.125195 -0.0013,-1.125456 0,-0.04268 -0.02186,-0.06403 -0.07132,-0.06403 h -1.160593 c -0.04503,0 -0.06949,0.02004 -0.06949,0.06351 v 1.162676 c 0,0 -0.581468,0.140551 -0.621031,0.151744 -0.03904,0.01145 -0.06793,0.04763 -0.06793,0.09058 v 0.730869 c 0,0.05258 0.0419,0.095 0.09396,0.095 h 0.595003 v 1.757939 c 0,1.30583 0.915929,1.433889 1.534097,1.433889 0.282405,0 0.62025,-0.09058 0.67595,-0.111141 0.03384,-0.01248 0.05336,-0.04737 0.05336,-0.08511 l 10e-4,-0.804009 c 0,-0.05232 -0.04425,-0.09474 -0.09422,-0.09474 -0.04971,0 -0.176731,0.02004 -0.307392,0.02004 -0.418272,0 -0.560125,-0.19443 -0.560125,-0.446383 v -1.670484 h 0.8519 c 0.0518,0 0.09396,-0.04242 0.09396,-0.095 v -0.915409 c 0,-0.05232 -0.04217,-0.09448 -0.09396,-0.09448"
       id="path15"
       sodipodi:nodetypes="ccssssccssscsssccssscsssc" />
  </g>
</svg>
