<?xml version="1.0" encoding="UTF-8" standalone="no"?>
<!-- Created with Inkscape (http://www.inkscape.org/) -->

<svg
   width="24mm"
   height="6.4903698mm"
   viewBox="0 0 24 6.4903698"
   version="1.1"
   id="svg1"
   inkscape:version="1.4.2 (ebf0e940d0, 2025-05-08)"
   sodipodi:docname="logo-dark.svg"
   xmlns:inkscape="http://www.inkscape.org/namespaces/inkscape"
   xmlns:sodipodi="http://sodipodi.sourceforge.net/DTD/sodipodi-0.dtd"
   xmlns="http://www.w3.org/2000/svg"
   xmlns:svg="http://www.w3.org/2000/svg">
  <sodipodi:namedview
     id="namedview1"
     pagecolor="#ffffff"
     bordercolor="#000000"
     borderopacity="0.25"
     inkscape:showpageshadow="2"
     inkscape:pageopacity="0.0"
     inkscape:pagecheckerboard="0"
     inkscape:deskcolor="#d1d1d1"
     inkscape:document-units="mm"
     inkscape:zoom="0.43473625"
     inkscape:cx="241.52575"
     inkscape:cy="289.8309"
     inkscape:window-width="1366"
     inkscape:window-height="699"
     inkscape:window-x="0"
     inkscape:window-y="0"
     inkscape:window-maximized="1"
     inkscape:current-layer="layer1" />
  <defs
     id="defs1" />
  <g
     inkscape:label="Layer 1"
     inkscape:groupmode="layer"
     id="layer1"
     transform="translate(-41.274997,-71.702071)">
    <path
       style="fill:#ffffff;fill-opacity:1;fill-rule:nonzero;stroke:none;stroke-width:0.066632"
       d="m 45.897592,74.480059 h -2.016659 c -0.05206,0 -0.09448,0.04216 -0.09448,0.09422 v 0.985945 c 0,0.05206 0.04243,0.09448 0.09448,0.09448 h 0.78657 v 1.225144 c 0,0 -0.176471,0.06012 -0.665018,0.06012 -0.576262,0 -1.381052,-0.210567 -1.381052,-1.980479 0,-1.770432 0.838106,-2.003383 1.624935,-2.003383 0.681156,0 0.974753,0.119989 1.161375,0.177772 0.05856,0.01796 0.112962,-0.0406 0.112962,-0.09266 l 0.224882,-0.952629 c 0,-0.02447 -0.0081,-0.05362 -0.03592,-0.0734 -0.07574,-0.0544 -0.538522,-0.313118 -1.707184,-0.313118 -1.346174,0 -2.727486,0.572879 -2.727486,3.326393 0,2.753774 1.581208,3.163977 2.913847,3.163977 1.103072,0 1.772254,-0.471369 1.772254,-0.471369 0.02759,-0.01536 0.03071,-0.05388 0.03071,-0.07158 V 74.57428 c 0,-0.05206 -0.04216,-0.09422 -0.09422,-0.09422"
       id="path2" />
    <path
       style="fill:#ffffff;fill-opacity:1;fill-rule:nonzero;stroke:none;stroke-width:0.066632"
       d="m 56.291137,72.032115 c 0,-0.05258 -0.04165,-0.095 -0.0937,-0.095 h -1.135606 c -0.0518,0 -0.09396,0.04243 -0.09396,0.095 0,2.64e-4 1.89e-4,2.19443 1.89e-4,2.19443 h -1.769911 v -2.19443 c 0,-0.05258 -0.0419,-0.095 -0.0937,-0.095 h -1.135607 c -0.05154,0 -0.0937,0.04243 -0.0937,0.095 v 5.941958 c 0,0.05258 0.04217,0.095 0.0937,0.095 h 1.135607 c 0.0518,0 0.0937,-0.04243 0.0937,-0.095 v -2.541646 h 1.769911 c 0,0 -0.0031,2.541385 -0.0031,2.541646 0,0.05258 0.04217,0.095 0.09422,0.095 h 1.138209 c 0.0518,0 0.09344,-0.04243 0.0937,-0.095 z m 0,0"
       id="path3" />
    <path
       style="fill:#ffffff;fill-opacity:1;fill-rule:nonzero;stroke:none;stroke-width:0.066632"
       d="m 48.040486,72.811657 c 0,-0.408902 -0.327954,-0.739198 -0.732431,-0.739198 -0.403956,0 -0.731911,0.330296 -0.731911,0.739198 0,0.408641 0.327955,0.739979 0.731911,0.739979 0.404477,0 0.732431,-0.331338 0.732431,-0.739979"
       id="path4" />
    <path
       style="fill:#ffffff;fill-opacity:1;fill-rule:nonzero;stroke:none;stroke-width:0.066632"
       d="m 47.959278,76.720558 v -2.742842 c 0,-0.05206 -0.04217,-0.09448 -0.09396,-0.09448 h -1.131963 c -0.05206,0 -0.09839,0.05336 -0.09839,0.105414 v 3.929723 c 0,0.115565 0.07184,0.149922 0.165018,0.149922 h 1.019782 c 0.11192,0 0.13951,-0.05492 0.13951,-0.151743 z m 0,0"
       id="path5" />
    <path
       style="fill:#ffffff;fill-opacity:1;fill-rule:nonzero;stroke:none;stroke-width:0.066632"
       d="M 60.606598,73.892083 H 59.47984 c -0.0518,0 -0.0937,0.04269 -0.0937,0.095 v 2.913587 c 0,0 -0.286309,0.209527 -0.692609,0.209527 -0.406299,0 -0.514316,-0.18454 -0.514316,-0.582249 v -2.540865 c 0,-0.05232 -0.0419,-0.095 -0.0937,-0.095 H 56.94184 c -0.05154,0 -0.0937,0.04269 -0.0937,0.095 v 2.733212 c 0,1.181677 0.658509,1.470849 1.56455,1.470849 0.743361,0 1.34253,-0.410725 1.34253,-0.410725 0,0 0.02863,0.216294 0.04164,0.242062 0.01275,0.02551 0.04633,0.05154 0.08277,0.05154 l 0.727484,-0.0034 c 0.05154,0 0.09396,-0.04269 0.09396,-0.09474 l -5.67e-4,-3.988808 c 0,-0.05232 -0.04191,-0.095 -0.09396,-0.095"
       id="path6" />
    <path
       style="fill:#ffffff;fill-opacity:1;fill-rule:nonzero;stroke:none;stroke-width:0.066632"
       d="m 63.242205,77.106554 c -0.390943,-0.01197 -0.65617,-0.189483 -0.65617,-0.189483 v -1.881572 c 0,0 0.261583,-0.160333 0.58251,-0.188965 0.405777,-0.03644 0.796719,0.08615 0.796719,1.054139 0,1.020823 -0.176471,1.22228 -0.723059,1.205881 m 0.4443,-3.347994 c -0.640032,0 -1.075222,0.285528 -1.075222,0.285528 v -2.011973 c 0,-0.05258 -0.04216,-0.09474 -0.0937,-0.09474 h -1.138991 c -0.05154,0 -0.0937,0.04217 -0.0937,0.09474 v 5.941958 c 0,0.05258 0.04216,0.095 0.09396,0.095 h 0.790212 c 0.0354,0 0.06247,-0.01823 0.08225,-0.05049 0.01978,-0.03175 0.04815,-0.273816 0.04815,-0.273816 0,0 0.465643,0.441177 1.346955,0.441177 1.034878,0 1.628578,-0.524988 1.628578,-2.356325 0,-1.831598 -0.947943,-2.071056 -1.588494,-2.071056"
       id="path7" />
    <path
       style="fill:#ffffff;fill-opacity:1;fill-rule:nonzero;stroke:none;stroke-width:0.066632"
       d="m 51.222943,73.882714 h -0.8519 c 0,0 -0.0013,-1.125196 -0.0013,-1.125456 0,-0.04269 -0.02186,-0.06403 -0.07132,-0.06403 H 49.13783 c -0.04503,0 -0.0695,0.02004 -0.0695,0.06351 v 1.162676 c 0,0 -0.581468,0.140552 -0.621031,0.151744 -0.03904,0.01145 -0.06793,0.04763 -0.06793,0.09058 v 0.730869 c 0,0.05258 0.0419,0.095 0.09396,0.095 h 0.595003 v 1.757938 c 0,1.30583 0.915929,1.433889 1.534097,1.433889 0.282405,0 0.62025,-0.09058 0.67595,-0.111141 0.03384,-0.01248 0.05336,-0.04737 0.05336,-0.08537 l 10e-4,-0.803748 c 0,-0.05232 -0.04425,-0.09474 -0.09422,-0.09474 -0.04971,0 -0.176731,0.02004 -0.307392,0.02004 -0.418272,0 -0.560125,-0.19443 -0.560125,-0.446382 0,-0.251432 0,-1.670484 0,-1.670484 h 0.8519 c 0.0518,0 0.09396,-0.04243 0.09396,-0.095 v -0.915408 c 0,-0.05232 -0.04216,-0.09448 -0.09396,-0.09448"
       id="path8" />
  </g>
</svg>
