<?xml version="1.0" encoding="UTF-8" standalone="no"?>
<svg
   fill="none"
   height="24"
   viewBox="0 0 24 24"
   width="24"
   version="1.1"
   id="svg2"
   sodipodi:docname="icon.svg"
   inkscape:version="1.4.2 (ebf0e940d0, 2025-05-08)"
   xmlns:inkscape="http://www.inkscape.org/namespaces/inkscape"
   xmlns:sodipodi="http://sodipodi.sourceforge.net/DTD/sodipodi-0.dtd"
   xmlns="http://www.w3.org/2000/svg"
   xmlns:svg="http://www.w3.org/2000/svg">
  <defs
     id="defs2" />
  <sodipodi:namedview
     id="namedview2"
     pagecolor="#ffffff"
     bordercolor="#999999"
     borderopacity="1"
     inkscape:showpageshadow="2"
     inkscape:pageopacity="0"
     inkscape:pagecheckerboard="0"
     inkscape:deskcolor="#d1d1d1"
     inkscape:zoom="0.97851562"
     inkscape:cx="255.48902"
     inkscape:cy="256"
     inkscape:window-width="1366"
     inkscape:window-height="707"
     inkscape:window-x="0"
     inkscape:window-y="0"
     inkscape:window-maximized="1"
     inkscape:current-layer="svg2" />
  <rect
     fill="#3178c6"
     height="24"
     rx="2.34375"
     width="24"
     id="rect1"
     x="0"
     y="0"
     style="stroke-width:0.046875" />
  <rect
     fill="#3178c6"
     height="24"
     rx="2.34375"
     width="24"
     id="rect2"
     x="0"
     y="0"
     style="stroke-width:0.046875" />
  <path
     clip-rule="evenodd"
     d="m 14.856516,19.098 v 2.346609 c 0.381468,0.195563 0.83264,0.342188 1.353515,0.439969 0.520875,0.09778 1.069828,0.146672 1.646953,0.146672 0.562453,0 1.096735,-0.05377 1.602938,-0.161344 0.506203,-0.107531 0.950062,-0.284765 1.331531,-0.531656 0.381469,-0.246844 0.683484,-0.569531 0.906,-0.967969 0.222516,-0.398437 0.333797,-0.890953 0.333797,-1.477594 0,-0.425343 -0.06356,-0.798093 -0.190734,-1.118296 -0.127172,-0.320204 -0.310547,-0.604969 -0.550219,-0.854297 -0.239625,-0.249328 -0.526969,-0.473016 -0.861985,-0.671016 -0.335015,-0.198 -0.712828,-0.384984 -1.133437,-0.560953 C 18.986766,15.561 18.710437,15.437578 18.465891,15.317813 18.221344,15.198 18.0135,15.075797 17.842312,14.951156 c -0.171187,-0.124687 -0.303234,-0.256687 -0.39614,-0.396 -0.09291,-0.139359 -0.139406,-0.297 -0.139406,-0.473015 0,-0.161297 0.04158,-0.30675 0.124734,-0.436313 0.08316,-0.129562 0.200531,-0.24075 0.352125,-0.333656 0.151641,-0.09286 0.337453,-0.165 0.557531,-0.216328 0.220125,-0.05133 0.464625,-0.07697 0.733641,-0.07697 0.195609,0 0.402234,0.01467 0.619875,0.04397 0.21764,0.02934 0.4365,0.07458 0.656625,0.135656 0.220078,0.06113 0.434015,0.138141 0.641906,0.231 0.207844,0.09291 0.399797,0.200438 0.575859,0.322688 v -2.192625 c -0.357,-0.136875 -0.747046,-0.238313 -1.170093,-0.304313 -0.423047,-0.066 -0.908485,-0.099 -1.456219,-0.099 -0.557578,0 -1.085766,0.05991 -1.584609,0.179672 -0.498844,0.119766 -0.937782,0.30675 -1.31686,0.560953 -0.379031,0.25425 -0.678562,0.578109 -0.89864,0.971672 -0.220079,0.393516 -0.330141,0.864047 -0.330141,1.411594 0,0.699093 0.20175,1.295531 0.60525,1.789312 0.403453,0.493735 1.016016,0.911719 1.837687,1.253953 0.322782,0.132 0.623579,0.261516 0.902344,0.388641 0.278766,0.127125 0.519656,0.259125 0.722578,0.396 0.202969,0.136875 0.363141,0.285984 0.480563,0.447328 0.117375,0.161297 0.176062,0.344625 0.176062,0.549984 0,0.151547 -0.0367,0.292079 -0.110062,0.421641 -0.07336,0.129562 -0.184641,0.241969 -0.333797,0.337313 -0.149156,0.09534 -0.335016,0.169875 -0.557531,0.22364 -0.222563,0.05381 -0.482953,0.08067 -0.781313,0.08067 -0.50864,0 -1.012359,-0.0892 -1.51125,-0.267656 C 15.744187,19.722563 15.282,19.454906 14.856516,19.098 Z m -3.944953,-5.781656 h 3.010312 V 11.390625 H 5.53125 v 1.925719 h 2.9955938 v 8.574281 h 2.3847192 z"
     fill="#ffffff"
     fill-rule="evenodd"
     id="path2"
     style="stroke-width:0.046875" />
</svg>
