<?xml version="1.0" encoding="UTF-8" standalone="no"?>
<svg
   fill="none"
   height="5.9760957"
   viewBox="0 0 24 5.9760957"
   width="24"
   version="1.1"
   id="svg1"
   sodipodi:docname="logo-dark.svg"
   inkscape:version="1.4.2 (ebf0e940d0, 2025-05-08)"
   xmlns:inkscape="http://www.inkscape.org/namespaces/inkscape"
   xmlns:sodipodi="http://sodipodi.sourceforge.net/DTD/sodipodi-0.dtd"
   xmlns="http://www.w3.org/2000/svg"
   xmlns:svg="http://www.w3.org/2000/svg">
  <defs
     id="defs1" />
  <sodipodi:namedview
     id="namedview1"
     pagecolor="#ffffff"
     bordercolor="#999999"
     borderopacity="1"
     inkscape:showpageshadow="2"
     inkscape:pageopacity="0"
     inkscape:pagecheckerboard="0"
     inkscape:deskcolor="#d1d1d1"
     inkscape:zoom="0.55976096"
     inkscape:cx="502"
     inkscape:cy="124.16014"
     inkscape:window-width="1366"
     inkscape:window-height="707"
     inkscape:window-x="0"
     inkscape:window-y="0"
     inkscape:window-maximized="1"
     inkscape:current-layer="svg1" />
  <rect
     fill="#3178c6"
     height="5.9760957"
     rx="0.33466136"
     width="24"
     id="rect1"
     x="0"
     y="0"
     style="stroke-width:0.0239044" />
  <path
     clip-rule="evenodd"
     d="M 14.653386,4.5106853 V 4.2866295 c 0.204526,0.1295378 0.411682,0.1942948 0.621514,0.1942948 0.2231,0 0.392439,-0.04592 0.507969,-0.1377849 0.115529,-0.091864 0.173306,-0.2203984 0.173306,-0.3856255 0,-0.1453864 -0.03884,-0.2613705 -0.116534,-0.3479521 -0.07492,-0.083474 -0.234095,-0.1961355 -0.477585,-0.338008 l -0.0274,-0.015872 C 15.04515,3.0878013 14.861875,2.947363 14.784856,2.834367 c -0.07702,-0.1130199 -0.11553,-0.2435378 -0.11553,-0.3915777 0,-0.2009043 0.07833,-0.3714071 0.235051,-0.5115155 0.156718,-0.140106 0.365881,-0.2101578 0.627491,-0.2101578 0.169984,0 0.339968,0.028418 0.509952,0.085253 v 0.2061935 c -0.167326,-0.075342 -0.34594,-0.1130103 -0.535836,-0.1130103 -0.193888,0 -0.347617,0.048904 -0.461163,0.1467155 -0.113546,0.09781 -0.170319,0.2220526 -0.170319,0.3727363 0,0.1453864 0.03885,0.2610358 0.116534,0.3469482 0.07769,0.085912 0.245354,0.2029004 0.502996,0.3509402 0.266916,0.1506694 0.44455,0.28451 0.532852,0.4014741 0.08833,0.1169881 0.132479,0.2514741 0.132479,0.4034582 0,0.2181036 -0.07604,0.3958805 -0.228096,0.5333307 -0.152056,0.1374741 -0.366861,0.2061992 -0.644414,0.2061992 -0.09827,0 -0.211482,-0.015203 -0.339634,-0.04561 -0.128151,-0.030383 -0.226111,-0.065426 -0.293833,-0.1050593 z M 7.5735777,2.1696311 H 8.3904382 V 1.7689243 H 6.2868526 V 2.1696311 H 7.1017291 V 4.6135458 H 7.5735777 Z M 9.1434263,4.9387888 10.063745,2.5816733 H 9.5976096 L 9.0876574,4.0618088 c -0.012096,0.045371 -0.021586,0.082303 -0.028446,0.1108207 l -0.00741,0.032032 h -0.00997 C 9.0312191,4.1593147 9.022757,4.1238884 9.0164701,4.0984064 L 9.0059761,4.0578406 8.5199283,2.5816733 H 8.0079681 L 8.8187331,4.6094104 8.6812829,4.942757 c -0.085004,0.1692908 -0.2138247,0.2539601 -0.3864622,0.2539601 -0.059761,0 -0.1261673,-0.011904 -0.1991952,-0.035713 v 0.3829243 c 0.065068,0.017187 0.1460797,0.025793 0.243012,0.025793 0.3452988,0 0.6135537,-0.2103107 0.8047888,-0.6309326 z M 10.820247,4.312494 h -0.008 V 5.5458167 H 10.350598 V 2.5814582 h 0.461689 v 0.3569163 h 0.008 c 0.157865,-0.2696892 0.388709,-0.40451 0.692534,-0.40451 0.258693,0 0.46035,0.09055 0.604972,0.2716494 0.144598,0.1810996 0.216908,0.4243267 0.216908,0.7296813 0,0.3384144 -0.08159,0.6093944 -0.244781,0.8129881 -0.163171,0.2035697 -0.386055,0.3053545 -0.668653,0.3053545 -0.260032,0 -0.460351,-0.1136892 -0.60098,-0.3410438 z M 10.804781,3.774239 V 3.5237689 c 0,-0.1735458 0.05003,-0.3181673 0.150119,-0.4338884 0.100064,-0.1156972 0.232279,-0.1735458 0.396646,-0.1735458 0.155091,0 0.278032,0.056199 0.368821,0.1686215 0.09081,0.1124223 0.136207,0.2678964 0.136207,0.4664223 0,0.2366773 -0.04872,0.4210757 -0.146128,0.5531952 -0.09743,0.1321434 -0.231633,0.1982151 -0.402645,0.1982151 -0.145793,0 -0.26608,-0.051275 -0.360861,-0.1538247 C 10.852159,4.0464143 10.804781,3.92149 10.804781,3.774239 Z m 3.609562,-0.05161 h -1.377036 c 0.0053,0.1878884 0.06282,0.332749 0.172637,0.4346295 0.109817,0.1018804 0.260725,0.1528207 0.452749,0.1528207 0.215713,0 0.413642,-0.064829 0.593833,-0.1944861 v 0.3711156 c -0.184136,0.1164382 -0.427458,0.1746454 -0.729944,0.1746454 -0.297251,0 -0.530367,-0.092295 -0.699371,-0.2768606 -0.169004,-0.1845657 -0.253506,-0.4442151 -0.253506,-0.7789482 0,-0.3162072 0.09306,-0.5738725 0.279156,-0.772996 0.186095,-0.1991235 0.417251,-0.2986853 0.693442,-0.2986853 0.276191,0 0.48992,0.089307 0.641163,0.2679204 0.151243,0.1786135 0.226877,0.4266932 0.226877,0.7442151 z M 13.868032,3.0069801 c 0.07604,0.092295 0.114717,0.2214502 0.116032,0.3874422 h -0.932271 c 0.02099,-0.1567171 0.07704,-0.2835299 0.168167,-0.380486 0.09112,-0.096932 0.202255,-0.1454104 0.333371,-0.1454104 0.133745,0 0.238637,0.046159 0.314701,0.1384542 z m 3.460422,1.6543745 c 0.21067,0 0.392008,-0.046231 0.544016,-0.1386693 V 4.3325259 c -0.152008,0.1082868 -0.330669,0.1624303 -0.536008,0.1624303 -0.224032,0 -0.404366,-0.079889 -0.541028,-0.2396893 -0.136685,-0.1598008 -0.205028,-0.3710916 -0.205028,-0.6338964 0,-0.2720319 0.07468,-0.4935538 0.224032,-0.6645896 0.149331,-0.171012 0.344008,-0.256518 0.584008,-0.256518 0.174693,0 0.335355,0.044893 0.482032,0.1347012 V 2.6289562 c -0.146677,-0.063394 -0.298016,-0.095092 -0.454016,-0.095092 -0.301362,0 -0.548032,0.1026694 -0.740032,0.3080319 -0.192024,0.2053626 -0.288024,0.4691474 -0.288024,0.7913785 0,0.3063825 0.08534,0.5543187 0.256016,0.7438088 0.170678,0.1895139 0.395355,0.2842709 0.674032,0.2842712 z m 1.747243,-1.8964064 c -0.06072,-0.043841 -0.131976,-0.065737 -0.213801,-0.065737 -0.159705,0 -0.293641,0.082996 -0.40188,0.248988 -0.108215,0.1660159 -0.162335,0.4017371 -0.162335,0.7071873 V 4.6135458 H 18.119522 V 2.5737131 h 0.178159 v 0.4521753 h 0.0079 c 0.04618,-0.1553784 0.119426,-0.2762151 0.219729,-0.3625338 0.100302,-0.086319 0.216454,-0.1294901 0.34843,-0.1294901 0.07523,0 0.142542,0.011952 0.20192,0.035857 z m 0.285466,-0.7302454 c 0.03093,0.029986 0.06657,0.044979 0.106949,0.044979 0.04303,0 0.08003,-0.015674 0.110964,-0.047022 0.03096,-0.031348 0.04642,-0.06883 0.04642,-0.1124463 0,-0.046341 -0.0158,-0.083139 -0.04743,-0.1104 -0.0316,-0.027258 -0.06827,-0.040888 -0.10996,-0.040888 -0.03901,0 -0.07434,0.01397 -0.105945,0.041912 -0.03162,0.027942 -0.04743,0.064401 -0.04743,0.1093768 0,0.046344 0.01547,0.084504 0.04642,0.1144901 z m 0.0014,2.578843 V 2.5816733 h 0.191235 v 2.0318725 z m 0.803761,-0.3616733 h 0.0079 c 0.145267,0.2734422 0.369777,0.4101753 0.673506,0.4101753 0.272032,0 0.490924,-0.1047012 0.656653,-0.3140797 0.16573,-0.2093785 0.248606,-0.4838247 0.248606,-0.8233386 0,-0.3051395 -0.07231,-0.5465737 -0.216908,-0.724255 -0.144598,-0.1776813 -0.345658,-0.26651 -0.60318,-0.26651 -0.16243,0 -0.31133,0.040614 -0.446677,0.1218646 -0.13537,0.081251 -0.239354,0.196494 -0.312,0.3457769 h -0.0079 V 2.5833944 h -0.182247 v 2.9624223 h 0.182247 z m 0.009,-0.7551872 v 0.2552749 c 0,0.2031633 0.06469,0.3776175 0.194056,0.5234103 0.12937,0.1457689 0.299402,0.2186534 0.510119,0.2186534 0.209402,0 0.379434,-0.088709 0.510144,-0.2661514 0.130685,-0.1774422 0.196039,-0.4106056 0.196039,-0.6995139 0,-0.2532909 -0.06002,-0.4544702 -0.180047,-0.6035618 -0.120024,-0.1490677 -0.280064,-0.2236016 -0.48012,-0.2236016 -0.238733,0 -0.423442,0.079147 -0.554151,0.2374662 -0.130686,0.1582948 -0.19604,0.3443187 -0.19604,0.5580239 z m 2.459139,1.1646693 c 0.08273,0 0.171395,-0.022422 0.26596,-0.067267 V 4.4239124 c -0.08668,0.048813 -0.16745,0.073219 -0.242318,0.073219 -0.105084,0 -0.179618,-0.031339 -0.223626,-0.093992 -0.04398,-0.062653 -0.066,-0.1638884 -0.066,-0.303729 V 2.7618406 h 0.531944 V 2.5956335 H 22.368454 V 2.0079681 c -0.0289,0.010554 -0.05909,0.020445 -0.09062,0.02968 -0.03153,0.010554 -0.06172,0.021105 -0.09062,0.031659 v 0.5263267 h -0.36251 v 0.1662071 h 0.36251 v 1.3613068 c 0,0.3588048 0.149068,0.5382072 0.447227,0.5382072 z"
     fill="#ffffff"
     fill-rule="evenodd"
     id="path1"
     style="stroke-width:0.0239044" />
</svg>
