<?xml version="1.0" encoding="UTF-8" standalone="no"?>
<svg
   width="24"
   height="23.981121"
   viewBox="0 0 24 23.981121"
   fill="none"
   version="1.1"
   id="svg3"
   sodipodi:docname="icon-light.svg"
   inkscape:version="1.4.2 (ebf0e940d0, 2025-05-08)"
   xmlns:inkscape="http://www.inkscape.org/namespaces/inkscape"
   xmlns:sodipodi="http://sodipodi.sourceforge.net/DTD/sodipodi-0.dtd"
   xmlns="http://www.w3.org/2000/svg"
   xmlns:svg="http://www.w3.org/2000/svg">
  <sodipodi:namedview
     id="namedview3"
     pagecolor="#ffffff"
     bordercolor="#000000"
     borderopacity="0.25"
     inkscape:showpageshadow="2"
     inkscape:pageopacity="0.0"
     inkscape:pagecheckerboard="0"
     inkscape:deskcolor="#d1d1d1"
     inkscape:zoom="4.88"
     inkscape:cx="50"
     inkscape:cy="50"
     inkscape:window-width="1366"
     inkscape:window-height="699"
     inkscape:window-x="0"
     inkscape:window-y="0"
     inkscape:window-maximized="1"
     inkscape:current-layer="svg3" />
  <path
     d="m 11.990634,4.1924366 c -4.2998734,0 -7.798149,3.4982756 -7.798149,7.7981484 0,4.299873 3.4982756,7.798149 7.798149,7.798149 4.299872,0 7.798148,-3.498276 7.798148,-7.798149 0,-4.2998728 -3.498276,-7.7981484 -7.798148,-7.7981484 z m 0,11.8337264 c -2.2290802,0 -4.0355786,-1.806498 -4.0355786,-4.035578 0,-2.2290796 1.8064984,-4.035578 4.0355786,-4.035578 2.229079,0 4.035578,1.8064984 4.035578,4.035578 0,2.22908 -1.806499,4.035578 -4.035578,4.035578 z"
     fill="#000000"
     id="path1"
     style="stroke-width:0.242028" />
  <path
     fill-rule="evenodd"
     clip-rule="evenodd"
     d="M 12.644013,2.9115992 V 0 C 18.972566,0.33835542 24,5.5777818 24,11.990561 24,18.40334 18.972566,23.641314 12.644013,23.981122 v -2.911599 c 4.716645,-0.336904 8.451624,-4.278091 8.451624,-9.078962 0,-4.8008714 -3.734979,-8.7420585 -8.451624,-9.0789618 z M 5.1130877,17.94443 C 3.86277,16.500974 3.0568161,14.662528 2.9130514,12.644013 H 0 c 0.15102559,2.824469 1.2808132,5.387547 3.0510074,7.361045 L 5.1116355,17.94443 Z m 6.2240213,6.036692 V 21.069523 C 9.3171416,20.925758 7.4786955,20.121256 6.0352393,18.869486 l -2.0606281,2.060628 c 1.9749501,1.771647 4.5380287,2.899982 7.3610458,3.051008 z"
     fill="url(#paint0_linear_2758_13612)"
     id="path2"
     style="fill:url(#paint0_linear_2758_13612);stroke-width:0.242028" />
  <defs
     id="defs3">
    <linearGradient
       id="paint0_linear_2758_13612"
       x1="54.186298"
       y1="6.9667001"
       x2="5.4183998"
       y2="55.7346"
       gradientUnits="userSpaceOnUse"
       gradientTransform="scale(0.2420282)">
      <stop
         stop-color="#0096FF"
         id="stop2" />
      <stop
         offset="1"
         stop-color="#FF1E56"
         id="stop3" />
    </linearGradient>
  </defs>
</svg>
