<?xml version="1.0" encoding="UTF-8" standalone="no"?>
<svg
   width="24"
   height="5.0827227"
   viewBox="0 0 24 5.0827227"
   fill="none"
   version="1.1"
   id="svg8"
   sodipodi:docname="logo.svg"
   inkscape:version="1.4.2 (ebf0e940d0, 2025-05-08)"
   xmlns:inkscape="http://www.inkscape.org/namespaces/inkscape"
   xmlns:sodipodi="http://sodipodi.sourceforge.net/DTD/sodipodi-0.dtd"
   xmlns="http://www.w3.org/2000/svg"
   xmlns:svg="http://www.w3.org/2000/svg">
  <sodipodi:namedview
     id="namedview8"
     pagecolor="#ffffff"
     bordercolor="#000000"
     borderopacity="0.25"
     inkscape:showpageshadow="2"
     inkscape:pageopacity="0.0"
     inkscape:pagecheckerboard="0"
     inkscape:deskcolor="#d1d1d1"
     inkscape:zoom="2.3198653"
     inkscape:cx="148.5"
     inkscape:cy="31.467344"
     inkscape:window-width="1366"
     inkscape:window-height="699"
     inkscape:window-x="0"
     inkscape:window-y="0"
     inkscape:window-maximized="1"
     inkscape:current-layer="svg8" />
  <path
     d="M 10.033147,1.9059522 V 1.2353667 H 6.8014053 V 1.9059522 H 8.0213828 V 4.1358374 H 8.8131132 V 1.9059522 Z"
     fill="#ffffff"
     id="path1"
     style="stroke-width:0.0809954" />
  <path
     d="m 11.859108,4.1802715 c 0.993733,0 1.539076,-0.5049579 1.539076,-1.3371212 V 1.2353667 h -0.791812 v 1.5310242 c 0,0.4645656 -0.242338,0.7271366 -0.747264,0.7271366 -0.505006,0 -0.747344,-0.262571 -0.747344,-0.7271366 V 1.2353667 h -0.791812 v 1.6077836 c 0,0.8321633 0.545342,1.3371212 1.539156,1.3371212 z"
     fill="#ffffff"
     id="path2"
     style="stroke-width:0.0809954" />
  <path
     d="m 14.610199,3.1743973 h 0.787762 l 0.622045,0.9614401 h 0.908931 L 16.226058,3.0895627 c 0.395906,-0.1413856 0.638244,-0.456474 0.638244,-0.8846807 0,-0.6221016 -0.464509,-0.9695153 -1.171518,-0.9695153 h -1.874396 v 2.9004707 h 0.791811 z m 0,-0.6261433 V 1.8978688 h 1.04225 c 0.278705,0 0.432191,0.1211935 0.432191,0.3272135 0,0.193903 -0.153486,0.3231717 -0.432191,0.3231717 z"
     fill="#ffffff"
     id="path3"
     style="stroke-width:0.0809954" />
  <path
     d="m 17.232751,4.1358374 h 2.072268 c 0.646343,0 1.018031,-0.3070131 1.018031,-0.8200544 0,-0.343364 -0.21812,-0.5776676 -0.476658,-0.6826943 0.177704,-0.084835 0.395825,-0.2868211 0.395825,-0.6059512 0,-0.5130332 -0.363508,-0.7917708 -1.005801,-0.7917708 H 17.232751 Z M 17.992164,2.3705096 V 1.8776685 h 1.163418 c 0.218121,0 0.339371,0.084835 0.339371,0.2464206 0,0.1615858 -0.12125,0.2464205 -0.339371,0.2464205 z m 0,0.5938261 h 1.236152 c 0.214071,0 0.331271,0.1050349 0.331271,0.2625791 0,0.1575442 -0.1172,0.2625791 -0.331271,0.2625791 h -1.236152 z"
     fill="#ffffff"
     id="path4"
     style="stroke-width:0.0809954" />
  <path
     d="m 22.258922,1.1868909 c -1.013982,0 -1.745127,0.6342266 -1.745127,1.4987071 0,0.8644886 0.731145,1.4987152 1.745127,1.4987152 C 23.272904,4.1843132 24,3.5500866 24,2.685598 24,1.8211175 23.272904,1.1868909 22.258922,1.1868909 Z m 0,0.6867441 c 0.533274,0 0.933149,0.3150884 0.933149,0.811963 0,0.4968827 -0.399875,0.8119711 -0.933149,0.8119711 -0.533193,0 -0.933148,-0.3150884 -0.933148,-0.8119711 0,-0.4968746 0.399955,-0.811963 0.933148,-0.811963 z"
     fill="#ffffff"
     id="path5"
     style="stroke-width:0.0809954" />
  <path
     d="m 2.5413694,0.88856851 c -0.9113444,0 -1.65279279,0.74144839 -1.65279279,1.65279279 0,0.9113445 0.74144839,1.6527929 1.65279279,1.6527929 0.9113445,0 1.6527929,-0.7414484 1.6527929,-1.6527929 0,-0.9113444 -0.7414484,-1.65279279 -1.6527929,-1.65279279 z m 0,2.50812079 c -0.4724463,0 -0.855328,-0.3828816 -0.855328,-0.855328 0,-0.4724463 0.3828817,-0.855328 0.855328,-0.855328 0.4724464,0 0.855328,0.3828817 0.855328,0.855328 0,0.4724464 -0.3828816,0.855328 -0.855328,0.855328 z"
     fill="#ffffff"
     id="path6"
     style="stroke-width:0.0809954" />
  <path
     fill-rule="evenodd"
     clip-rule="evenodd"
     d="M 2.6798554,0.61710421 V 0 c 1.3413168,0.07171336 2.4068603,1.1821932 2.4068603,2.5413613 0,1.3591682 -1.0655435,2.4693402 -2.4068603,2.5413614 V 4.4656185 c 0.9996781,-0.071406 1.791295,-0.9067277 1.791295,-1.9242572 0,-1.0175294 -0.7916169,-1.85285151 -1.791295,-1.92425709 z M 1.0837027,3.8032621 C 0.81870185,3.4973261 0.64788248,3.1076733 0.61741199,2.6798554 H 0 C 0.0320094,3.2784927 0.2714643,3.8217291 0.64665135,4.2400057 L 1.0833949,3.8032621 Z M 2.4028591,5.0827227 V 4.4656185 C 1.9747335,4.435148 1.5850806,4.2646364 1.2791447,3.9993277 L 0.84240111,4.4360713 C 1.2609855,4.8115661 1.8042219,5.0507133 2.4025514,5.0827227 Z"
     fill="url(#paint0_linear_2758_13670)"
     id="path7"
     style="fill:url(#paint0_linear_2758_13670);stroke-width:0.0809954" />
  <defs
     id="defs8">
    <linearGradient
       id="paint0_linear_2758_13670"
       x1="34.318001"
       y1="4.4122"
       x2="3.4317"
       y2="35.298599"
       gradientUnits="userSpaceOnUse"
       gradientTransform="scale(0.08099543)">
      <stop
         stop-color="#0096FF"
         id="stop7" />
      <stop
         offset="1"
         stop-color="#FF1E56"
         id="stop8" />
    </linearGradient>
  </defs>
</svg>
