<?xml version="1.0" encoding="UTF-8" standalone="no"?>
<svg
   width="23.999996"
   height="30.144289"
   viewBox="0 0 23.999996 30.144289"
   fill="none"
   version="1.1"
   id="svg4"
   sodipodi:docname="icon.svg"
   inkscape:version="1.4.2 (ebf0e940d0, 2025-05-08)"
   xmlns:inkscape="http://www.inkscape.org/namespaces/inkscape"
   xmlns:sodipodi="http://sodipodi.sourceforge.net/DTD/sodipodi-0.dtd"
   xmlns="http://www.w3.org/2000/svg"
   xmlns:svg="http://www.w3.org/2000/svg">
  <defs
     id="defs4" />
  <sodipodi:namedview
     id="namedview4"
     pagecolor="#ffffff"
     bordercolor="#999999"
     borderopacity="1"
     inkscape:showpageshadow="2"
     inkscape:pageopacity="0"
     inkscape:pagecheckerboard="0"
     inkscape:deskcolor="#d1d1d1"
     inkscape:zoom="0.835"
     inkscape:cx="223.9521"
     inkscape:cy="279.64072"
     inkscape:window-width="1366"
     inkscape:window-height="707"
     inkscape:window-x="0"
     inkscape:window-y="0"
     inkscape:window-maximized="1"
     inkscape:current-layer="svg4" />
  <path
     d="m 7.5169421,29.277821 c 1.261304,0.507658 2.6296519,0.808877 4.0664689,0.859063 1.944474,0.06793 3.793568,-0.334098 5.446643,-1.097782 -1.98229,-0.77882 -3.777564,-1.917781 -5.309814,-3.333818 -0.993179,1.590194 -2.4621689,2.846289 -4.2032979,3.572537 z"
     fill="#ff9100"
     id="path1"
     style="stroke-width:0.0542543" />
  <path
     d="M 11.720077,25.705773 C 8.2225201,22.471023 6.1007431,17.789148 6.2800531,12.653925 c 0.0059,-0.166724 0.01465,-0.333393 0.02496,-0.500008 -0.62642,-0.162003 -1.280401,-0.260854 -1.953372,-0.284346 -0.963285,-0.03364 -1.896187,0.08583 -2.776897,0.333826 -0.93367304,1.635496 -1.49709904,3.512044 -1.56729304,5.522057 -0.181144,5.187307 2.95804704,9.719874 7.50927704,11.552855 1.741184,-0.726302 3.2101189,-1.980824 4.2033519,-3.572536 z"
     fill="#ffc400"
     id="path2"
     style="stroke-width:0.0542543" />
  <path
     d="m 11.720131,25.70561 c 0.813164,-1.301344 1.306173,-2.826975 1.363574,-4.470717 0.150989,-4.323796 -2.755685,-8.043254 -6.7786409,-9.081138 -0.01031,0.166614 -0.0191,0.333284 -0.02496,0.500007 -0.17931,5.135224 1.942467,9.817098 5.4400239,13.051848 z"
     fill="#ff9100"
     id="path3"
     style="stroke-width:0.0542543" />
  <path
     d="m 12.633828,0 c -2.291213,1.835553 -4.1004859,4.255902 -5.1951739,7.044085 -0.626692,1.597029 -1.020524,3.312496 -1.135489,5.110755 4.0229559,1.037884 6.9296849,4.757342 6.7786949,9.081084 -0.0574,1.643742 -0.551875,3.167908 -1.363628,4.470771 1.532142,1.417502 3.327471,2.554997 5.30976,3.333764 3.978847,-1.839221 6.801861,-5.796855 6.965329,-10.47797 C 24.099226,15.52962 22.933952,12.826508 21.287388,10.544898 19.548484,8.131829 12.633828,0 12.633828,0 Z"
     fill="#dd2c00"
     id="path4"
     style="stroke-width:0.0542543" />
</svg>
