<?xml version="1.0" encoding="UTF-8" standalone="no"?>
<svg
   width="24.000002"
   height="30.020521"
   viewBox="0 0 24.000002 30.020521"
   fill="none"
   version="1.1"
   id="svg1"
   sodipodi:docname="icon-dark.svg"
   inkscape:version="1.4.2 (ebf0e940d0, 2025-05-08)"
   xmlns:inkscape="http://www.inkscape.org/namespaces/inkscape"
   xmlns:sodipodi="http://sodipodi.sourceforge.net/DTD/sodipodi-0.dtd"
   xmlns="http://www.w3.org/2000/svg"
   xmlns:svg="http://www.w3.org/2000/svg">
  <sodipodi:namedview
     id="namedview1"
     pagecolor="#ffffff"
     bordercolor="#999999"
     borderopacity="1"
     inkscape:showpageshadow="2"
     inkscape:pageopacity="0"
     inkscape:pagecheckerboard="0"
     inkscape:deskcolor="#d1d1d1"
     inkscape:zoom="0.585"
     inkscape:cx="221.36752"
     inkscape:cy="279.48718"
     inkscape:window-width="1366"
     inkscape:window-height="707"
     inkscape:window-x="0"
     inkscape:window-y="0"
     inkscape:window-maximized="1"
     inkscape:current-layer="svg1" />
  <g
     clip-path="url(#clip0_135_824)"
     id="g1"
     transform="matrix(0.05407018,0,0,0.05407018,-4.271228,-1.1354738)">
    <path
       d="M 473.406,214.608 C 460.939,197.309 432.272,161.741 388.237,108.901 369.122,85.9821 352.725,66.5283 344.653,56.9775 340.202,51.7091 336.384,47.2013 333.37,43.6374 L 328.566,37.9745 325.96,34.9036 325.453,34.157 325.227,34.0584 314.113,21 300.026,32.2976 c -35.963,28.8073 -65.419,65.9399 -85.154,107.3264 -12.101,24.624 -20.003,48.698 -24.145,73.491 -1.084,5.578 -2.014,11.311 -2.789,17.059 -4.832,-0.395 -9.748,-0.648 -14.622,-0.761 -0.408,-0.028 -0.817,-0.042 -1.366,-0.056 -17.848,-0.62 -35.598,1.507 -52.741,6.339 l -7.339,2.056 -3.775,6.621 c -17.6934,31.033 -27.7091,66.363 -28.9628,102.157 -1.62,46.486 11.044,91.479 36.6258,130.119 25.032,37.795 60.389,66.687 102.255,83.549 l 5.452,2.197 1.648,0.578 0.07,-0.028 c 21.807,7.916 44.698,12.34 68.039,13.143 2.649,0.098 5.283,0.14 7.917,0.14 29.455,0 58.136,-5.761 85.352,-17.157 l 0.197,0.084 7.24,-3.352 c 36.71,-16.975 68.124,-43.655 90.846,-77.167 23.37,-34.471 36.498,-74.801 37.963,-116.624 1.747,-49.994 -14.861,-99.58 -49.345,-147.39 z M 309.535,369.506 c 7.593,28.779 6.099,56.431 -4.409,82.308 -26.258,-25.919 -45.515,-54.417 -57.263,-84.788 -12.579,-32.484 -20.144,-63.39 -22.539,-91.972 11.115,3.649 21.328,8.466 30.428,14.397 26.173,17.059 44.274,43.993 53.783,80.069 z m 4.789,139.317 c 11.157,8.495 22.891,16.454 34.992,23.779 -17.82,4.846 -36.203,6.973 -54.798,6.311 -2.873,-0.099 -5.747,-0.268 -8.635,-0.507 10.593,-9.129 20.116,-19.032 28.427,-29.583 z m 31.16,-148.798 c -11.945,-45.274 -35.315,-79.505 -69.447,-101.734 -14.975,-9.748 -32.034,-17.144 -50.769,-21.975 0.268,-3.114 0.606,-6.213 1,-9.255 0.338,-2.606 0.69,-5.001 1.071,-7.241 3.085,-15.932 7.677,-31.695 13.622,-46.838 2.282,-5.804 4.775,-11.565 7.423,-17.13 l 0.099,-0.197 c 4.085,-8.269 8.691,-16.622 14.115,-25.553 l 2.127,-3.508 -0.071,-0.042 c 12.594,-19.679 27.681,-37.6258 44.937,-53.4452 l 6.663,7.8745 c 15.538,18.4113 30.146,35.8227 43.43,51.7547 29.877,35.837 68.616,82.9 83.562,103.65 29.554,40.964 43.796,82.788 42.345,124.344 -1.127,32.272 -10.678,63.742 -27.638,90.986 -16.059,25.821 -38.429,47.43 -64.785,62.643 -14.707,-7.339 -36.062,-19.411 -58.742,-36.977 18.285,-36.443 22.018,-75.899 11.072,-117.357 z M 285.911,484.89 c -16.763,21.722 -36.71,35.851 -48.345,42.95 -1.888,-0.69 -3.776,-1.408 -5.635,-2.169 l -1.493,-0.592 c -34.47,-14.241 -63.545,-38.315 -84.084,-69.644 -20.989,-32.019 -31.385,-69.237 -30.047,-107.637 0.958,-27.525 7.818,-53.825 20.412,-78.181 7.311,-1.62 14.763,-2.635 22.215,-3.015 l 1.929,-0.042 c 3.762,-0.085 7.509,-0.085 11.073,0 5.24,0.239 10.494,0.789 15.664,1.62 1.69,34.991 10.283,72.744 25.567,112.243 14.721,38.02 39.176,73.138 72.73,104.453 z"
       fill="#ffffff"
       id="path1" />
  </g>
  <defs
     id="defs1">
    <clipPath
       id="clip0_135_824">
      <rect
         width="443.88699"
         height="555.21399"
         fill="#ffffff"
         transform="translate(78.9941,21)"
         id="rect1"
         x="0"
         y="0" />
    </clipPath>
  </defs>
</svg>
