<?xml version="1.0" encoding="UTF-8" standalone="no"?>
<svg
   width="24"
   height="6.3346977"
   viewBox="0 0 24 6.3346977"
   fill="none"
   version="1.1"
   id="svg12"
   sodipodi:docname="logo-dark.svg"
   inkscape:version="1.4.2 (ebf0e940d0, 2025-05-08)"
   xmlns:inkscape="http://www.inkscape.org/namespaces/inkscape"
   xmlns:sodipodi="http://sodipodi.sourceforge.net/DTD/sodipodi-0.dtd"
   xmlns="http://www.w3.org/2000/svg"
   xmlns:svg="http://www.w3.org/2000/svg">
  <defs
     id="defs12" />
  <sodipodi:namedview
     id="namedview12"
     pagecolor="#ffffff"
     bordercolor="#999999"
     borderopacity="1"
     inkscape:showpageshadow="2"
     inkscape:pageopacity="0"
     inkscape:pagecheckerboard="0"
     inkscape:deskcolor="#d1d1d1"
     inkscape:zoom="1.6408545"
     inkscape:cx="372.06225"
     inkscape:cy="101.47152"
     inkscape:window-width="1366"
     inkscape:window-height="707"
     inkscape:window-x="0"
     inkscape:window-y="0"
     inkscape:window-maximized="1"
     inkscape:current-layer="svg12" />
  <path
     d="m 22.853015,5.1905359 c -0.234532,0 -0.446597,-0.054629 -0.636161,-0.1638873 C 22.030499,4.9174228 21.884313,4.7664065 21.778297,4.5736322 21.672281,4.3776483 21.619273,4.1591966 21.619273,3.9182126 c 0,-0.2313227 0.0498,-0.4433874 0.149395,-0.6361617 0.102807,-0.195971 0.245782,-0.3501905 0.428895,-0.4626421 0.183146,-0.1156614 0.392001,-0.1734937 0.626533,-0.1734937 0.240952,0 0.449807,0.053011 0.6265,0.1590372 0.179936,0.1060259 0.316493,0.2538195 0.409638,0.4433809 C 23.953414,3.4346882 24,3.6499301 24,3.8941239 c 0,0.028919 -0.0016,0.057839 -0.0048,0.086758 -0.0032,0.028887 -0.0048,0.044968 -0.0048,0.048177 h -1.840985 c 0.01605,0.218484 0.09477,0.3871697 0.236153,0.5060244 0.141355,0.1188873 0.302001,0.1783146 0.481936,0.1783146 0.276291,0 0.488355,-0.1285162 0.636129,-0.3855486 L 23.95665,4.5447448 C 23.850634,4.7407287 23.702859,4.8981319 23.513295,5.0170191 23.32694,5.1326966 23.106867,5.1905354 22.853044,5.1905354 Z m 0.607243,-1.5662831 c -0.0065,-0.077129 -0.03213,-0.1558469 -0.07713,-0.2361534 -0.04497,-0.080339 -0.115646,-0.1478066 -0.212033,-0.2024195 -0.09318,-0.057832 -0.210443,-0.086748 -0.351831,-0.086748 -0.157435,0 -0.293959,0.048194 -0.409637,0.144571 -0.112435,0.096387 -0.189565,0.2233147 -0.231323,0.3807503 z"
     fill="#ffffff"
     id="path1"
     style="stroke-width:0.0324208" />
  <path
     d="m 20.455754,5.1905359 c -0.273081,0 -0.499605,-0.06267 -0.679508,-0.187976 C 19.59952,4.8740437 19.474213,4.7133984 19.400326,4.5206241 l 0.472307,-0.2024032 c 0.05463,0.1317258 0.133314,0.2313226 0.236153,0.2987904 0.106016,0.067468 0.221661,0.1012179 0.346968,0.1012179 0.131726,0 0.239363,-0.024089 0.322911,-0.072299 0.08352,-0.051387 0.125307,-0.1172662 0.125307,-0.1975726 0,-0.077129 -0.03375,-0.1397662 -0.101218,-0.187976 -0.06747,-0.051387 -0.178315,-0.096387 -0.33254,-0.1349355 l -0.32771,-0.077097 C 19.962601,4.0065593 19.806754,3.9294626 19.675028,3.8170271 19.546511,3.7013496 19.482253,3.5519544 19.482253,3.368809 c 0,-0.2216839 0.09159,-0.3967856 0.274702,-0.5253018 0.183145,-0.1317291 0.408049,-0.1975921 0.67471,-0.1975921 0.221694,0 0.417678,0.046585 0.587952,0.1397598 0.173516,0.093174 0.298823,0.2281162 0.37592,0.4048228 l -0.467476,0.1976017 c -0.04497,-0.099597 -0.114057,-0.1735163 -0.207234,-0.2216969 -0.09318,-0.048194 -0.194363,-0.072292 -0.303621,-0.072292 -0.106017,0 -0.199194,0.024098 -0.279501,0.072292 -0.08034,0.044971 -0.120508,0.1060194 -0.120508,0.1831486 0,0.067468 0.02733,0.1220644 0.08193,0.1638549 0.05784,0.041758 0.147806,0.077097 0.269903,0.1060161 l 0.356629,0.086758 c 0.240952,0.061016 0.420888,0.1541935 0.539742,0.2795 0.118888,0.1220969 0.178315,0.2699035 0.178315,0.4433874 0,0.1413549 -0.04335,0.2698711 -0.130105,0.3855486 -0.08355,0.1156451 -0.200814,0.207234 -0.351831,0.2747018 -0.147774,0.067468 -0.316459,0.1012178 -0.506024,0.1012178 z"
     fill="#ffffff"
     id="path2"
     style="stroke-width:0.0324208" />
  <path
     d="m 17.919569,5.1905359 c -0.170274,0 -0.3245,-0.03375 -0.462645,-0.1012178 -0.134968,-0.070677 -0.242573,-0.1670646 -0.322912,-0.2891615 -0.0771,-0.1253065 -0.115677,-0.2666614 -0.115677,-0.424097 0,-0.250613 0.09318,-0.448218 0.279532,-0.5927826 0.189565,-0.1445969 0.428928,-0.2168629 0.718089,-0.2168629 0.253823,0 0.470686,0.043379 0.650622,0.1301048 V 3.5953334 c 0,-0.1445969 -0.05784,-0.2634517 -0.173517,-0.3566292 -0.112435,-0.0964 -0.248992,-0.1445937 -0.409637,-0.1445937 -0.244194,0 -0.440178,0.0996 -0.587952,0.2987872 L 17.090633,3.113388 c 0.112468,-0.1510033 0.252234,-0.2666679 0.419299,-0.3469905 0.170274,-0.080323 0.361427,-0.1204824 0.573492,-0.1204824 0.35021,0 0.620081,0.088353 0.809645,0.2650631 0.192775,0.1734936 0.289162,0.4192825 0.289162,0.7373633 V 5.1134067 H 18.666578 V 4.819447 h -0.02892 c -0.07713,0.1092258 -0.175105,0.1991936 -0.293992,0.2698711 -0.118887,0.067468 -0.260242,0.1012178 -0.424097,0.1012178 z m 0.08676,-0.4385891 c 0.118855,0 0.228113,-0.028887 0.32771,-0.086726 0.102806,-0.061049 0.183113,-0.1397662 0.240952,-0.2361534 0.06105,-0.099597 0.09159,-0.205613 0.09159,-0.3180808 -0.170307,-0.093178 -0.351831,-0.1397663 -0.544606,-0.1397663 -0.176693,0 -0.314871,0.038548 -0.414468,0.1156776 -0.0996,0.077097 -0.149395,0.1751049 -0.149395,0.2939597 0,0.1092582 0.04338,0.1992261 0.130137,0.2699035 0.08994,0.067468 0.195984,0.1011854 0.318081,0.1011854 z"
     fill="#ffffff"
     id="path3"
     style="stroke-width:0.0324208" />
  <path
     d="m 15.69537,5.1905035 c -0.173484,0 -0.329299,-0.036927 -0.467476,-0.1108468 -0.134936,-0.073887 -0.236121,-0.1670646 -0.303621,-0.2795001 h -0.02889 V 5.1134067 H 14.39416 V 1.662763 h 0.530113 v 1.0361537 l -0.02889,0.3325341 h 0.02889 c 0.0675,-0.1092388 0.168685,-0.200805 0.303621,-0.2747018 0.138177,-0.073897 0.293992,-0.1108436 0.467476,-0.1108436 0.205645,0 0.39521,0.054619 0.568694,0.1638582 0.176693,0.1092355 0.31646,0.2618501 0.419266,0.4578276 0.106049,0.1927743 0.159057,0.4096373 0.159057,0.6506214 0,0.2409516 -0.05301,0.457847 -0.159057,0.6505889 -0.102806,0.1927743 -0.242573,0.3454116 -0.419266,0.4578471 -0.173484,0.1092582 -0.363049,0.1638549 -0.568694,0.1638549 z m -0.09156,-0.486734 c 0.125307,0 0.240952,-0.032129 0.347001,-0.096387 0.109225,-0.064258 0.195984,-0.155847 0.260242,-0.2747017 0.06747,-0.1220969 0.101185,-0.2602421 0.101185,-0.414468 0,-0.154226 -0.03372,-0.2907825 -0.101185,-0.4096373 C 16.146793,3.3864786 16.060036,3.2933011 15.950811,3.229043 15.844762,3.164785 15.729117,3.132659 15.60381,3.132659 c -0.125306,0 -0.242572,0.032126 -0.351798,0.096384 -0.106049,0.064258 -0.192774,0.1558146 -0.260242,0.2747018 -0.06426,0.1188872 -0.09639,0.2570324 -0.09639,0.414468 0,0.1574356 0.03213,0.2955807 0.09639,0.414468 0.06747,0.1188547 0.154193,0.2104436 0.260242,0.2747017 0.109226,0.064258 0.226492,0.096387 0.351798,0.096387 z"
     fill="#ffffff"
     id="path4"
     style="stroke-width:0.0324208" />
  <path
     d="m 12.931331,5.1905359 c -0.234532,0 -0.446564,-0.054629 -0.636129,-0.1638873 C 12.108847,4.9174228 11.962662,4.7664065 11.856645,4.5736322 11.750597,4.3776483 11.697589,4.1591966 11.697589,3.9182126 c 0,-0.2313227 0.0498,-0.4433874 0.149395,-0.6361617 0.102839,-0.195971 0.245782,-0.3501905 0.428928,-0.4626421 0.183145,-0.1156614 0.391968,-0.1734937 0.626532,-0.1734937 0.240952,0 0.449775,0.053011 0.626501,0.1590372 0.179903,0.1060259 0.316459,0.2538195 0.409637,0.4433809 0.09318,0.186355 0.139766,0.4015969 0.139766,0.6457907 0,0.028919 -0.0016,0.057839 -0.0048,0.086758 -0.0032,0.028887 -0.0048,0.044968 -0.0048,0.048177 h -1.840985 c 0.01605,0.218484 0.09477,0.3871697 0.236121,0.5060244 0.141388,0.1188873 0.302033,0.1783146 0.481936,0.1783146 0.276323,0 0.488355,-0.1285162 0.636162,-0.3855486 l 0.453016,0.2168955 C 13.928982,4.7407287 13.781175,4.8981319 13.591611,5.0170191 13.405288,5.1326966 13.185183,5.1905354 12.93136,5.1905354 Z m 0.607243,-1.5662831 c -0.0064,-0.077129 -0.03213,-0.1558469 -0.0771,-0.2361534 -0.045,-0.080339 -0.115678,-0.1478066 -0.212065,-0.2024195 -0.09318,-0.057832 -0.210443,-0.086748 -0.351798,-0.086748 -0.157436,0 -0.293992,0.048194 -0.409638,0.144571 -0.112468,0.096387 -0.189564,0.2233147 -0.231322,0.3807503 z"
     fill="#ffffff"
     id="path5"
     style="stroke-width:0.0324208" />
  <path
     d="m 10.226364,2.7230249 h 0.501226 v 0.3566292 h 0.02892 c 0.05139,-0.1220872 0.144565,-0.2232953 0.2795,-0.3036179 0.134968,-0.083532 0.273113,-0.1253001 0.414468,-0.1253001 0.115678,0 0.210444,0.016065 0.284363,0.048194 v 0.5542342 c -0.109258,-0.054632 -0.231355,-0.08194 -0.36629,-0.08194 -0.173484,0 -0.31967,0.067481 -0.438557,0.2024163 -0.115645,0.1317258 -0.173484,0.2939597 -0.173484,0.486734 v 1.2530329 h -0.530145 z"
     fill="#ffffff"
     id="path6"
     style="stroke-width:0.0324208" />
  <path
     d="m 9.4697261,2.3181923 c -0.0996,0 -0.184734,-0.033734 -0.255411,-0.1012048 -0.067468,-0.070684 -0.101218,-0.1558243 -0.101218,-0.2554244 0,-0.0996 0.03375,-0.1831356 0.101218,-0.2506033 0.07068,-0.070684 0.155814,-0.1060259 0.255411,-0.1060259 0.09963,0 0.183145,0.035342 0.250613,0.1060259 0.07068,0.067468 0.106049,0.1510033 0.106049,0.2506033 0,0.0996 -0.03537,0.1847404 -0.106049,0.2554244 -0.06747,0.067471 -0.150984,0.1012048 -0.250613,0.1012048 z m -0.26504,0.4048261 h 0.530113 v 2.3903883 h -0.530113 z"
     fill="#ffffff"
     id="path7"
     style="stroke-width:0.0324208" />
  <path
     d="m 6.7900142,1.662763 h 2.0964289 v 0.5156664 h -1.556654 v 0.9927811 h 1.402428 V 3.6820592 H 7.3297891 V 5.1134067 H 6.7900142 Z"
     fill="#ffffff"
     id="path8"
     style="stroke-width:0.0324208" />
  <path
     d="M 1.5796679,6.1526243 C 1.8447245,6.2592888 2.1322876,6.3226067 2.4342228,6.3331435 2.8428518,6.3474087 3.2314383,6.26292 3.5788275,6.1024368 3.1622522,5.9387764 2.7849677,5.6994458 2.4629833,5.4018549 2.2542677,5.7360489 1.9455662,5.999987 1.5796679,6.1526243 Z"
     fill="#ff9100"
     id="path9"
     style="stroke-width:0.0324208" />
  <path
     d="M 2.462925,5.4019522 C 1.7279316,4.7221845 1.2820478,3.7383093 1.3197338,2.6591753 c 0.00122,-0.035044 0.00307,-0.070065 0.00524,-0.105076 C 1.1933315,2.5200542 1.055906,2.4992789 0.91448313,2.4943412 0.71204413,2.4872703 0.51600183,2.512377 0.33092103,2.5644967 0.13471823,2.90819 0.01631633,3.3025409 0.00156583,3.7249195 -0.03650107,4.8150378 0.62318513,5.7675296 1.5796095,6.1527215 1.9455111,6.0000842 2.2541996,5.736438 2.462925,5.4019522 Z"
     fill="#ffc400"
     id="path10"
     style="stroke-width:0.0324208" />
  <path
     d="M 2.4629574,5.4019198 C 2.6338379,5.12845 2.7374484,4.8078403 2.7495122,4.4624287 2.7812425,3.5538023 2.1704112,2.7721749 1.324999,2.5540637 1.322839,2.5890747 1.320989,2.6240957 1.319759,2.6591396 1.282076,3.7382769 1.7279568,4.7221521 2.4629534,5.4019198 Z"
     fill="#ff9100"
     id="path11"
     style="stroke-width:0.0324208" />
  <path
     d="M 2.6549698,0 C 2.1734782,0.3857353 1.7932661,0.8943599 1.5632305,1.4802823 1.4315274,1.8158931 1.3487667,2.1763933 1.3246067,2.5542874 2.1700157,2.7723986 2.780847,3.5540293 2.7491167,4.4626557 2.7370561,4.8080673 2.6331441,5.1283528 2.4625619,5.4021467 2.7845365,5.7000294 3.1618307,5.9390682 3.5784061,6.1027286 4.4145395,5.7162398 5.007776,4.8845481 5.0421096,3.900835 5.0643827,3.2634737 4.8195081,2.6954412 4.4734805,2.215963 4.1080653,1.7088686 2.6549698,0 2.6549698,0 Z"
     fill="#dd2c00"
     id="path12"
     style="stroke-width:0.0324208" />
</svg>
