<?xml version="1.0" encoding="UTF-8" standalone="no"?>
<svg
   width="24"
   height="6.334692"
   viewBox="0 0 24 6.334692"
   fill="none"
   version="1.1"
   id="svg12"
   sodipodi:docname="logo-light.svg"
   inkscape:version="1.4.2 (ebf0e940d0, 2025-05-08)"
   xmlns:inkscape="http://www.inkscape.org/namespaces/inkscape"
   xmlns:sodipodi="http://sodipodi.sourceforge.net/DTD/sodipodi-0.dtd"
   xmlns="http://www.w3.org/2000/svg"
   xmlns:svg="http://www.w3.org/2000/svg">
  <defs
     id="defs12" />
  <sodipodi:namedview
     id="namedview12"
     pagecolor="#ffffff"
     bordercolor="#999999"
     borderopacity="1"
     inkscape:showpageshadow="2"
     inkscape:pageopacity="0"
     inkscape:pagecheckerboard="0"
     inkscape:deskcolor="#d1d1d1"
     inkscape:zoom="0.46862483"
     inkscape:cx="372.3661"
     inkscape:cy="101.3604"
     inkscape:window-width="1366"
     inkscape:window-height="707"
     inkscape:window-x="0"
     inkscape:window-y="0"
     inkscape:window-maximized="1"
     inkscape:current-layer="svg12" />
  <path
     d="m 22.852984,5.1905314 c -0.234532,0 -0.446597,-0.054629 -0.636161,-0.1638872 C 22.0305,4.9174185 21.884315,4.7664023 21.778267,4.5736282 21.67225,4.3776444 21.619242,4.159193 21.619242,3.9182091 c 0,-0.2313225 0.0498,-0.443387 0.149396,-0.6361611 0.102806,-0.1959708 0.245782,-0.3501901 0.428927,-0.4626417 0.183113,-0.1156612 0.391967,-0.1734935 0.6265,-0.1734935 0.240983,0 0.449806,0.053011 0.626532,0.1590371 0.179903,0.1060257 0.316459,0.2538192 0.409637,0.4433805 C 23.953414,3.4346852 24,3.6499269 24,3.8941205 c 0,0.028919 -0.0016,0.057839 -0.0048,0.086758 -0.0032,0.028887 -0.0048,0.044968 -0.0048,0.048177 h -1.840983 c 0.01608,0.2184838 0.0948,0.3871693 0.236153,0.506024 0.141387,0.1188871 0.302,0.1783144 0.481936,0.1783144 0.276322,0 0.488354,-0.1285161 0.636161,-0.3855483 l 0.453016,0.2168953 C 23.850634,4.7407247 23.70286,4.8981277 23.513296,5.0170148 23.326941,5.1326922 23.106868,5.190531 22.853046,5.190531 Z m 0.607242,-1.5662818 c -0.0064,-0.077129 -0.03213,-0.1558468 -0.0771,-0.2361531 -0.045,-0.080339 -0.115677,-0.1478065 -0.212065,-0.2024194 -0.09318,-0.057832 -0.210443,-0.086748 -0.351798,-0.086748 -0.157435,0 -0.293992,0.048193 -0.409669,0.1445709 -0.112435,0.096387 -0.189532,0.2233145 -0.231323,0.3807499 z"
     fill="#5e5e5e"
     id="path1"
     style="stroke-width:0.0324208" />
  <path
     d="m 20.455757,5.1905314 c -0.273113,0 -0.499605,-0.06267 -0.67954,-0.1879759 -0.176694,-0.1285161 -0.302,-0.2891612 -0.375887,-0.4819353 l 0.472274,-0.2024031 c 0.05463,0.1317257 0.133347,0.2313224 0.236153,0.2987901 0.106016,0.067468 0.221693,0.1012178 0.347,0.1012178 0.131726,0 0.239363,-0.024089 0.322879,-0.072298 0.08355,-0.051387 0.125306,-0.1172661 0.125306,-0.1975724 0,-0.077129 -0.03372,-0.1397661 -0.101218,-0.1879759 -0.06747,-0.051387 -0.178314,-0.096387 -0.332507,-0.1349358 L 20.142475,4.0483462 C 19.962572,4.0065558 19.806757,3.9294591 19.675031,3.8170238 19.546515,3.7013463 19.482257,3.5519512 19.482257,3.3688061 c 0,-0.2216838 0.09156,-0.3967853 0.274702,-0.5253014 0.183112,-0.131729 0.408016,-0.1975919 0.674677,-0.1975919 0.221693,0 0.417677,0.046586 0.587984,0.1397596 0.173483,0.093174 0.29879,0.2281161 0.375886,0.4048225 l -0.467475,0.1976016 c -0.04497,-0.099597 -0.114057,-0.1735162 -0.207234,-0.2216968 -0.09318,-0.048193 -0.194363,-0.072292 -0.303588,-0.072292 -0.106049,0 -0.199226,0.024098 -0.279533,0.072292 -0.08034,0.044971 -0.120475,0.1060193 -0.120475,0.1831484 0,0.067468 0.0273,0.1220644 0.08193,0.1638548 0.05781,0.041758 0.147774,0.077097 0.269871,0.106016 l 0.356629,0.086758 c 0.240951,0.061016 0.420887,0.1541934 0.539774,0.2794998 0.118854,0.1220968 0.178314,0.2699033 0.178314,0.443387 0,0.1413547 -0.04338,0.2698708 -0.130137,0.3855483 -0.08352,0.115645 -0.200782,0.2072338 -0.351798,0.2747015 -0.147807,0.067468 -0.31646,0.1012178 -0.506024,0.1012178 z"
     fill="#5e5e5e"
     id="path2"
     style="stroke-width:0.0324208" />
  <path
     d="m 17.919607,5.1905314 c -0.170274,0 -0.3245,-0.03375 -0.462645,-0.1012178 C 17.322026,5.0186366 17.214389,4.9222492 17.13405,4.8001524 17.05695,4.674846 17.018405,4.5334912 17.018405,4.3760558 c 0,-0.2506129 0.09318,-0.4482177 0.2795,-0.5927821 0.189565,-0.1445968 0.428928,-0.2168628 0.718089,-0.2168628 0.253822,0 0.470685,0.043379 0.650621,0.1301047 V 3.5953303 c 0,-0.1445968 -0.05784,-0.2634515 -0.173517,-0.3566289 -0.112435,-0.0964 -0.248991,-0.1445936 -0.409637,-0.1445936 -0.244161,0 -0.440144,0.0996 -0.587951,0.2987869 L 17.090704,3.1133852 c 0.112435,-0.1510031 0.252201,-0.2666676 0.419266,-0.3469902 0.170274,-0.080323 0.361459,-0.1204822 0.573491,-0.1204822 0.35021,0 0.620081,0.088353 0.809645,0.2650628 0.192774,0.1734935 0.289161,0.4192821 0.289161,0.7373627 v 1.465064 H 18.666615 V 4.8194428 h -0.02892 c -0.0771,0.1092257 -0.175105,0.1991934 -0.293992,0.2698708 -0.118854,0.067468 -0.260242,0.1012178 -0.424096,0.1012178 z m 0.08676,-0.4385887 c 0.118887,0 0.228113,-0.028887 0.327709,-0.086726 0.102807,-0.061048 0.183145,-0.1397661 0.240952,-0.2361532 0.06105,-0.099597 0.09159,-0.2056128 0.09159,-0.3180805 -0.170275,-0.093177 -0.351831,-0.1397662 -0.544605,-0.1397662 -0.176694,0 -0.314839,0.038548 -0.414435,0.1156775 -0.0996,0.077097 -0.149396,0.1751048 -0.149396,0.2939595 0,0.1092581 0.04335,0.1992258 0.130105,0.2699032 0.08997,0.067468 0.195984,0.1011854 0.318081,0.1011854 z"
     fill="#5e5e5e"
     id="path3"
     style="stroke-width:0.0324208" />
  <path
     d="m 15.695377,5.1904989 c -0.173516,0 -0.329331,-0.036927 -0.467476,-0.1108467 -0.134935,-0.073887 -0.236153,-0.1670644 -0.30362,-0.2794998 h -0.02892 V 5.1134023 H 14.394135 V 1.6627615 h 0.530146 v 1.0361529 l -0.02892,0.3325337 h 0.02892 c 0.06747,-0.1092387 0.168685,-0.2008048 0.30362,-0.2747015 0.138145,-0.073897 0.29396,-0.1108435 0.467476,-0.1108435 0.205613,0 0.395177,0.054619 0.568661,0.163858 0.176726,0.1092354 0.316492,0.2618499 0.419298,0.4578272 0.106016,0.1927742 0.159024,0.4096369 0.159024,0.6506208 0,0.2409515 -0.05301,0.4578467 -0.159024,0.6505884 -0.102806,0.1927741 -0.242572,0.3454113 -0.419298,0.4578467 -0.173484,0.1092581 -0.363048,0.1638547 -0.568661,0.1638547 z m -0.09159,-0.4867336 c 0.125307,0 0.240984,-0.032129 0.347,-0.096387 0.109226,-0.064258 0.195984,-0.1558469 0.260242,-0.2747016 0.06747,-0.1220967 0.101218,-0.2602418 0.101218,-0.4144676 0,-0.1542258 -0.03375,-0.2907822 -0.101218,-0.4096369 C 16.146772,3.3864754 16.060014,3.293298 15.950788,3.22904 c -0.106016,-0.064258 -0.221693,-0.096384 -0.347,-0.096384 -0.125306,0 -0.242572,0.032126 -0.351798,0.096384 -0.106016,0.064258 -0.192774,0.1558144 -0.260242,0.2747015 -0.06426,0.1188871 -0.09639,0.2570322 -0.09639,0.4144676 0,0.1574355 0.03213,0.2955805 0.09639,0.4144676 0.06747,0.1188547 0.154226,0.2104435 0.260242,0.2747016 0.109226,0.064258 0.226492,0.096387 0.351798,0.096387 z"
     fill="#5e5e5e"
     id="path4"
     style="stroke-width:0.0324208" />
  <path
     d="m 12.931406,5.1905314 c -0.234565,0 -0.446597,-0.054629 -0.636161,-0.1638872 C 12.10889,4.9174185 11.962704,4.7664023 11.856688,4.5736282 11.750672,4.3776444 11.697664,4.159193 11.697664,3.9182091 c 0,-0.2313225 0.0498,-0.443387 0.149395,-0.6361611 0.102807,-0.1959708 0.245783,-0.3501901 0.428895,-0.4626417 0.183145,-0.1156612 0.392,-0.1734935 0.626532,-0.1734935 0.240952,0 0.449807,0.053011 0.6265,0.1590371 0.179936,0.1060257 0.316492,0.2538192 0.409637,0.4433805 0.09318,0.1863548 0.139766,0.4015965 0.139766,0.6457901 0,0.028919 -0.0016,0.057839 -0.0048,0.086758 -0.0032,0.028887 -0.0048,0.044968 -0.0048,0.048177 h -1.841012 c 0.01605,0.2184838 0.09477,0.3871693 0.236153,0.506024 0.141355,0.1188871 0.302,0.1783144 0.481935,0.1783144 0.276291,0 0.488355,-0.1285161 0.636129,-0.3855483 l 0.453016,0.2168953 c -0.106016,0.1959838 -0.25379,0.3533868 -0.443354,0.4722739 -0.186355,0.1156774 -0.406428,0.1735162 -0.66025,0.1735166 z m 0.607242,-1.5662818 c -0.0065,-0.077129 -0.03213,-0.1558468 -0.07713,-0.2361531 -0.04497,-0.080339 -0.115645,-0.1478065 -0.212032,-0.2024194 -0.09318,-0.057832 -0.210443,-0.086748 -0.35183,-0.086748 -0.157436,0 -0.29396,0.048193 -0.409637,0.1445709 -0.112436,0.096387 -0.189565,0.2233145 -0.231323,0.3807499 z"
     fill="#5e5e5e"
     id="path5"
     style="stroke-width:0.0324208" />
  <path
     d="m 10.226376,2.7230225 h 0.501193 v 0.3566289 h 0.02892 c 0.05142,-0.1220871 0.144597,-0.2232951 0.279532,-0.3036177 0.134936,-0.083532 0.273081,-0.1252999 0.414468,-0.1252999 0.115645,0 0.210444,0.016064 0.284331,0.048193 v 0.5542338 c -0.109259,-0.054632 -0.231323,-0.08194 -0.366258,-0.08194 -0.173516,0 -0.319702,0.067481 -0.438589,0.2024161 -0.115645,0.1317257 -0.173484,0.2939595 -0.173484,0.4867336 v 1.2530319 h -0.530112 z"
     fill="#5e5e5e"
     id="path6"
     style="stroke-width:0.0324208" />
  <path
     d="m 9.4698042,2.3181903 c -0.0996,0 -0.184734,-0.033734 -0.255444,-0.1012048 -0.06747,-0.070684 -0.101185,-0.1558241 -0.101185,-0.2554241 0,-0.0996 0.03372,-0.1831354 0.101185,-0.2506031 0.07071,-0.070684 0.155847,-0.1060258 0.255444,-0.1060258 0.0996,0 0.183112,0.035342 0.250612,0.1060258 0.07068,0.067468 0.106016,0.1510031 0.106016,0.2506031 0,0.0996 -0.03534,0.1847403 -0.106016,0.2554241 -0.0675,0.067471 -0.151016,0.1012048 -0.250612,0.1012048 z M 9.2047312,2.723016 h 0.530113 v 2.3903863 h -0.530113 z"
     fill="#5e5e5e"
     id="path7"
     style="stroke-width:0.0324208" />
  <path
     d="M 6.7900293,1.6627615 H 8.8864242 V 2.1784274 H 7.329771 V 3.1712077 H 8.7321982 V 3.6820559 H 7.329771 V 5.1134023 H 6.7900293 Z"
     fill="#5e5e5e"
     id="path8"
     style="stroke-width:0.0324208" />
  <path
     d="M 1.5796649,6.1526189 C 1.8447245,6.2592833 2.1322841,6.3226012 2.4342191,6.3331379 2.8428477,6.3474031 3.2314241,6.2629145 3.578813,6.1024315 3.1622381,5.9387712 2.7849668,5.6994408 2.4629828,5.4018502 2.2542674,5.7360439 1.9455661,5.9999817 1.5796649,6.1526189 Z"
     fill="#ff9100"
     id="path9"
     style="stroke-width:0.0324208" />
  <path
     d="M 2.4629244,5.4019475 C 1.7279285,4.7221803 1.2820483,3.7383061 1.319731,2.6591729 1.320961,2.6241289 1.322801,2.5891079 1.324971,2.5540971 1.193332,2.520052 1.0559067,2.4992767 0.91448074,2.4943391 0.71204514,2.4872681 0.51600304,2.5123747 0.33092234,2.5644944 0.13471804,2.9081874 0.01631604,3.302538 0.00156584,3.7249163 -0.03650106,4.8150335 0.62318294,5.7675245 1.5796065,6.1527161 1.9455078,6.000079 2.2541993,5.7364329 2.4629244,5.4019475 Z"
     fill="#ffc400"
     id="path10"
     style="stroke-width:0.0324208" />
  <path
     d="M 2.4629536,5.401915 C 2.6338372,5.1284455 2.7374476,4.8078361 2.7495082,4.4624248 2.7812384,3.5537992 2.1704077,2.7721724 1.3249994,2.5540614 c -0.00216,0.035011 -0.00401,0.070032 -0.00524,0.1050759 -0.037686,1.0791363 0.4081942,2.0630106 1.1431901,2.7427777 z"
     fill="#ff9100"
     id="path11"
     style="stroke-width:0.0324208" />
  <path
     d="M 2.6549659,0 C 2.1734747,0.385735 1.7932629,0.8943591 1.5632275,1.480281 1.4315277,1.8158915 1.3487671,2.1763914 1.3246039,2.5542851 2.1700154,2.7723961 2.7808461,3.5540262 2.7491159,4.4626518 2.7370521,4.8080631 2.6331402,5.1283482 2.4625613,5.402142 2.7845356,5.7000244 3.1618166,5.939063 3.5783916,6.1027232 4.4145242,5.7162348 5.0077602,4.8845438 5.0421263,3.9008316 5.0643669,3.2634709 4.8194926,2.6954388 4.4734653,2.215961 4.1080503,1.7088671 2.6549659,0 2.6549659,0 Z"
     fill="#dd2c00"
     id="path12"
     style="stroke-width:0.0324208" />
</svg>
