<?xml version="1.0" encoding="UTF-8" standalone="no"?>
<svg
   viewBox="0 0 23.99996 13.927097"
   version="1.1"
   id="svg1"
   sodipodi:docname="icon-light.svg"
   width="23.99996"
   height="13.927097"
   inkscape:version="1.4.2 (ebf0e940d0, 2025-05-08)"
   xmlns:inkscape="http://www.inkscape.org/namespaces/inkscape"
   xmlns:sodipodi="http://sodipodi.sourceforge.net/DTD/sodipodi-0.dtd"
   xmlns="http://www.w3.org/2000/svg"
   xmlns:svg="http://www.w3.org/2000/svg">
  <defs
     id="defs1" />
  <sodipodi:namedview
     id="namedview1"
     pagecolor="#ffffff"
     bordercolor="#999999"
     borderopacity="1"
     inkscape:showpageshadow="2"
     inkscape:pageopacity="0"
     inkscape:pagecheckerboard="0"
     inkscape:deskcolor="#d1d1d1"
     inkscape:zoom="1.002"
     inkscape:cx="390.71856"
     inkscape:cy="227.04591"
     inkscape:window-width="1366"
     inkscape:window-height="707"
     inkscape:window-x="0"
     inkscape:window-y="0"
     inkscape:window-maximized="1"
     inkscape:current-layer="svg1" />
  <path
     d="m 23.99996,13.551389 c -0.722964,0.273379 -1.536245,-0.03585 -1.894943,-0.720502 L 18.655389,8.0602094 18.155194,7.3938034 14.152057,12.837943 c -0.337523,0.654962 -1.108718,0.957667 -1.801646,0.707174 l 5.157193,-6.9188556 -4.798118,-6.251665 c 0.711877,-0.257154 1.505292,0.02195 1.901215,0.666405 l 3.575069,4.829479 3.596236,-4.810663 c 0.340263,-0.64417 1.109276,-0.931075 1.788319,-0.667189 l -1.862016,2.470403 -2.522148,3.282635 c -0.296703,0.264958 -0.296703,0.729162 0,0.99412 l 4.803607,6.4116026 z M 0.001528,6.5400214 0.421755,4.4647564 c 1.154058,-4.103489 5.858095,-5.811054 9.094474,-3.269306 1.894942,1.488044 2.367698,3.596238 2.275186,5.971776 H 1.115601 C 0.94312,11.410268 4.004664,13.9724 7.920775,12.664678 9.211249,12.194275 10.182633,11.121754 10.502508,9.7889434 10.709485,9.1225384 11.051312,9.0080724 11.676949,9.2009384 11.465543,10.84676 10.511536,12.304927 9.08816,13.157818 6.707224,14.459922 3.758937,14.08312 1.782006,12.224066 0.828655,11.15233 0.253194,9.7975674 0.141081,8.3667554 c 0,-0.235202 -0.0784,-0.454724 -0.133281,-0.666405 C 0.0026,7.3046894 0,6.9179124 0,6.5400214 Z m 1.127401,-0.286946 h 9.654253 c -0.06037,-3.075657 -2.001568,-5.257547 -4.590357,-5.277931 -2.882007,-0.0392 -4.943943,2.094865 -5.070952,5.264603 z"
     id="path1"
     style="stroke-width:0.0306718" />
</svg>
