<?xml version="1.0" encoding="UTF-8" standalone="no"?>
<svg
   viewBox="0 0 24 5.3556032"
   version="1.1"
   id="svg1"
   sodipodi:docname="logo-dark.svg"
   width="24"
   height="5.3556032"
   inkscape:version="1.4.2 (ebf0e940d0, 2025-05-08)"
   xmlns:inkscape="http://www.inkscape.org/namespaces/inkscape"
   xmlns:sodipodi="http://sodipodi.sourceforge.net/DTD/sodipodi-0.dtd"
   xmlns="http://www.w3.org/2000/svg"
   xmlns:svg="http://www.w3.org/2000/svg">
  <defs
     id="defs1" />
  <sodipodi:namedview
     id="namedview1"
     pagecolor="#ffffff"
     bordercolor="#999999"
     borderopacity="1"
     inkscape:showpageshadow="2"
     inkscape:pageopacity="0"
     inkscape:pagecheckerboard="0"
     inkscape:deskcolor="#d1d1d1"
     inkscape:zoom="1.097006"
     inkscape:cx="560.16101"
     inkscape:cy="125.34115"
     inkscape:window-width="1366"
     inkscape:window-height="707"
     inkscape:window-x="0"
     inkscape:window-y="0"
     inkscape:window-maximized="1"
     inkscape:current-layer="svg1" />
  <path
     fill="#ffffff"
     d="M 7.4436802,5.355603 V 0.10476553 H 7.7284946 V 0.9307272 A 1.0800161,1.0800161 0 0 0 7.8214581,0.8142951 C 8.0593351,0.32076879 8.561064,0.0092957 9.1088191,0.01544779 9.7581958,-0.00391979 10.2859,0.23646367 10.596006,0.8142951 a 2.5678863,2.5678863 0 0 1 0.06198,2.3539335 C 10.369066,3.8157828 9.6554348,4.1377368 8.8914486,4.0194818 A 1.4286289,1.4286289 0 0 1 7.7512799,3.2671162 v 2.0882589 z m 0.2848144,-3.3933922 0.063799,0.616566 C 7.9048519,3.2805594 8.3197693,3.6952491 8.9711968,3.7731744 A 1.3397668,1.3397668 0 0 0 10.442889,2.9219213 C 10.69626,2.3181147 10.677577,1.6345603 10.392762,1.0448808 A 1.3124246,1.3124246 0 0 0 9.0101594,0.28089461 1.2782469,1.2782469 0 0 0 7.8681677,1.2251112 6.5211097,6.5211097 0 0 0 7.7284946,1.9619831 Z M 16.728173,2.6758416 A 1.535719,1.535719 0 0 1 15.227315,4.033153 C 14.032918,4.0933058 13.472403,3.3001547 13.383313,2.3848753 a 2.6407988,2.6407988 0 0 1 0.232636,-1.45437604 1.6223026,1.6223026 0 0 1 1.688836,-0.90548187 1.5516686,1.5516686 0 0 1 1.376678,1.18095441 7.9679666,7.9679666 0 0 1 0.133749,0.8726711 h -3.136831 c -0.0581,0.8298351 0.387803,1.4969843 1.019863,1.6578474 0.787227,0.1936738 1.460072,-0.1474199 1.704329,-0.8959121 0.05423,-0.1920787 0.153116,-0.219193 0.32765,-0.1647366 z M 13.676102,1.8129681 h 2.805763 C 16.464321,0.92890436 15.913832,0.28636311 15.167162,0.27907177 14.324112,0.26540085 13.712786,0.88219472 13.676102,1.8129681 Z m 3.631953,0.8822408 h 0.275017 a 1.1028012,1.1028012 0 0 0 0.647554,0.9501408 1.6929366,1.6929366 0 0 0 1.46987,-0.038735 A 0.66076933,0.66076933 0 0 0 20.088299,2.95701 0.59924941,0.59924941 0 0 0 19.685002,2.3577607 C 19.382415,2.2452022 19.060689,2.1832268 18.752406,2.0843393 A 6.8355447,6.8355447 0 0 1 17.813885,1.7411949 c -0.496716,-0.242434 -0.527476,-1.18665061 0.03486,-1.48559181 a 1.9800294,1.9800294 0 0 1 1.892534,-0.0291649 c 0.363195,0.20050928 0.563932,0.60540144 0.504235,1.01621751 H 20.00969 c 0,-0.011392 -0.02142,-0.021418 -0.02142,-0.033038 C 19.959107,0.45770749 19.327047,0.22256459 18.648505,0.28864159 18.443439,0.31142669 18.249081,0.37340237 18.0668,0.4649986 a 0.5810213,0.5810213 0 0 0 -0.33722,0.581705 0.5810213,0.5810213 0 0 0 0.387803,0.5468435 c 0.296207,0.1086851 0.610642,0.1784078 0.917103,0.2636242 l 0.740517,0.1936738 a 0.87494973,0.87494973 0 0 1 0.601072,0.7892775 C 20.435317,3.2377234 20.232529,3.6284887 19.87389,3.8096307 19.226337,4.1760158 18.159764,4.079179 17.684693,3.6159568 17.441576,3.3714723 17.306004,3.0394926 17.308739,2.694981 Z m 6.557566,-1.4523252 h -0.257928 c 0,-0.034861 -0.01367,-0.068356 -0.01755,-0.095014 a 0.84305052,0.84305052 0 0 0 -0.68651,-0.81046791 1.6929366,1.6929366 0 0 0 -1.087764,0.0524059 0.66076933,0.66076933 0 0 0 -0.478944,0.63023725 0.60836347,0.60836347 0 0 0 0.465272,0.6126926 L 22.9811,1.9353244 a 3.2787829,3.2787829 0 0 1 0.375957,0.1143815 c 0.375955,0.1367107 0.631147,0.4857792 0.64254,0.8847472 a 0.96836884,0.96836884 0 0 1 -0.592413,0.92052 2.1577536,2.1577536 0 0 1 -1.745115,0.017545 1.2098914,1.2098914 0 0 1 -0.729125,-1.1750303 h 0.252004 c 0.09479,0.4568424 0.408537,0.8373543 0.83895,1.017357 0.43041,0.1800027 0.921885,0.1357995 1.313335,-0.1175713 a 0.69266852,0.69266852 0 0 0 0.372309,-0.6475539 0.59924941,0.59924941 0 0 0 -0.40922,-0.595376 C 22.997735,2.2417845 22.676009,2.1818596 22.367725,2.0809214 A 6.8697224,6.8697224 0 0 1 21.423509,1.7416505 C 20.93864,1.5030901 20.899906,0.56662053 21.452673,0.26790706 a 1.9526873,1.9526873 0 0 1 1.923523,-0.0214179 1.0139391,1.0139391 0 0 1 0.486692,0.99479964 z M 6.9749898,3.9383667 A 0.4443104,0.4443104 0 0 1 6.4242727,3.7289712 L 5.4217263,2.3424949 5.276357,2.1488211 4.1129472,3.731022 A 0.42608229,0.42608229 0 0 1 3.5893444,3.9365439 L 5.0881517,1.9257545 3.6937005,0.10886685 c 0.2068891,-0.07473529 0.4374748,0.00638 0.5525399,0.19367382 L 5.2852433,1.7061058 6.330398,0.30800895 A 0.41696823,0.41696823 0 0 1 6.8501271,0.11410742 L 6.3089798,0.83206735 5.5759816,1.7860817 a 0.19367377,0.19367377 0 0 0 0,0.2889157 L 6.9720277,3.9383667 Z M 13.338882,0.08949949 V 0.36292124 A 1.4058437,1.4058437 0 0 0 11.841898,1.8152466 V 3.9481645 H 11.564602 V 0.10658837 h 0.273422 V 0.8938151 C 12.173421,0.31962933 12.6911,0.10658837 13.340705,0.09109439 Z M 4.5569755e-4,1.900691 0.1225841,1.297568 C 0.4579815,0.10499325 1.8250904,-0.39126721 2.7656615,0.34742726 3.3163783,0.77988942 3.4537729,1.3925822 3.4268865,2.0829721 H 0.32423266 C 0.27410533,3.3161043 1.1638654,4.060723 2.3019836,3.6806667 2.6770271,3.5439559 2.9593351,3.2322551 3.0522985,2.8449075 3.1124513,2.6512337 3.2117946,2.6179672 3.3936201,2.6740187 A 1.5744538,1.5744538 0 0 1 2.6412545,3.8239854 1.8228119,1.8228119 0 0 1 0.51790644,3.5526142 C 0.24083903,3.2411411 0.07359603,2.8474139 0.04101327,2.4315847 c 0,-0.068356 -0.02278515,-0.1321538 -0.03873476,-0.1936736 Q 0,2.0654276 0,1.900691 Z M 0.32810616,1.8172974 H 3.1338695 C 3.1163249,0.92343587 2.5521646,0.28932518 1.7997989,0.28340103 0.96221684,0.27200838 0.36296743,0.8922202 0.32605547,1.8134238 Z"
     id="path1"
     style="stroke-width:0.0214224" />
</svg>
