<svg width="24pt" height="24pt" version="1.1" viewBox="0 0 24 24" xmlns="http://www.w3.org/2000/svg">
 <defs>
  <clipPath id="a">
   <path d="m0 0.113h91.887v91.887h-91.887z"/>
  </clipPath>
 </defs>
 <g transform="matrix(.26119 0 0 .26119 0 -.029597)" clip-path="url(#a)">
  <path d="m90.156 41.965-40.12-40.117a5.918 5.918 0 0 0-8.372 0l-8.328 8.332 10.566 10.566a7.03 7.03 0 0 1 7.23 1.684 7.034 7.034 0 0 1 1.669 7.277l10.187 10.184a7.028 7.028 0 0 1 7.278 1.672 7.04 7.04 0 0 1 0 9.957 7.05 7.05 0 0 1-9.965 0 7.044 7.044 0 0 1-1.528-7.66l-9.5-9.497v24.997a7.04 7.04 0 0 1 1.86 11.29 7.04 7.04 0 0 1-9.957 0 7.04 7.04 0 0 1 0-9.958 7.06 7.06 0 0 1 2.304-1.539v-25.227a7.049 7.049 0 0 1-3.82-9.234l-10.418-10.42-27.512 27.505a5.925 5.925 0 0 0 0 8.371l40.122 40.122a5.925 5.925 0 0 0 8.37 0l39.934-39.934a5.925 5.925 0 0 0 0-8.371" fill="#fff"/>
 </g>
</svg>
