<svg width="24pt" height="24pt" version="1.1" viewBox="0 0 24 24" xmlns="http://www.w3.org/2000/svg">
 <defs>
  <clipPath id="a">
   <path d="m0 0.113h91.887v91.887h-91.887z"/>
  </clipPath>
 </defs>
 <g transform="matrix(.26119 0 0 .26119 0 -.029578)" clip-path="url(#a)">
  <path d="m90.156 41.965-40.12-40.117a5.913 5.913 0 0 0-8.368 0l-8.332 8.332 10.566 10.566a7.03 7.03 0 0 1 7.23 1.684 7.043 7.043 0 0 1 1.673 7.277l10.183 10.184a7.026 7.026 0 0 1 7.278 1.672 7.04 7.04 0 0 1 0 9.957 7.045 7.045 0 0 1-9.961 0 7.038 7.038 0 0 1-1.532-7.66l-9.5-9.497v24.997a7.04 7.04 0 0 1 1.86 11.29 7.04 7.04 0 0 1-9.957 0 7.04 7.04 0 0 1 0-9.958 7.034 7.034 0 0 1 2.308-1.539v-25.227a7.001 7.001 0 0 1-2.308-1.535 7.049 7.049 0 0 1-1.516-7.7l-10.418-10.418-27.508 27.504a5.918 5.918 0 0 0 0 8.371l40.121 40.122a5.92 5.92 0 0 0 8.368 0l39.933-39.934a5.925 5.925 0 0 0 0-8.371" fill="#100f0d"/>
 </g>
</svg>
