<svg width="24pt" height="10.024pt" version="1.1" viewBox="0 0 24 10.024" xmlns="http://www.w3.org/2000/svg">
 <defs>
  <clipPath id="a">
   <path d="m159 0.79h25v68.21h-25z"/>
  </clipPath>
  <clipPath id="b">
   <path d="m183 9h35.371v60h-35.371z"/>
  </clipPath>
  <clipPath id="c">
   <path d="m0 0.79h92v91.21h-92z"/>
  </clipPath>
 </defs>
 <path d="m14.383 3.4121c-0.52589 0-0.91781 0.2585-0.91781 0.88012 0 0.4683 0.25795 0.79373 0.88946 0.79373 0.53535 0 0.89902-0.3151 0.89902-0.81308 0-0.56414-0.32543-0.86077-0.87067-0.86077zm-1.0518 4.3907c-0.12452 0.15277-0.2486 0.31543-0.2486 0.50688 0 0.38247 0.48732 0.49721 1.157 0.49721 0.55513 0 1.3107-0.038686 1.3107-0.55425 0-0.30696-0.36356-0.32587-0.82297-0.35466zm2.8313-4.3619c0.17178 0.22025 0.35389 0.52633 0.35389 0.96639 0 1.0612-0.83209 1.6833-2.0372 1.6833-0.30652 0-0.58381-0.038247-0.75603-0.086275l-0.31543 0.50699 0.93705 0.05715c1.6551 0.10551 2.6305 0.15365 2.6305 1.4252 0 1.0999-0.96595 1.7217-2.6305 1.7217-1.731 0-2.3912-0.44006-2.3912-1.1958 0-0.4305 0.19145-0.65943 0.52633-0.97573-0.31598-0.13309-0.42072-0.37225-0.42072-0.63074 0-0.21036 0.10474-0.40181 0.27729-0.58381 0.17211-0.18156 0.36324-0.36324 0.59294-0.57359-0.46841-0.2297-0.82264-0.72724-0.82264-1.4351 0-1.0999 0.7268-1.8552 2.1904-1.8552 0.41126 0 0.65987 0.037807 0.88012 0.095837h1.8653v0.81264l-0.88001 0.067042" fill="#362701"/>
 <g transform="matrix(.1099 0 0 .1099 0 -.086825)" clip-path="url(#a)">
  <path d="m170.38 16.281c-4.961 0-7.832-2.87-7.832-7.836 0-4.957 2.871-7.656 7.832-7.656 5.05 0 7.922 2.7 7.922 7.656 0 4.965-2.871 7.836-7.922 7.836zm-11.227 52.305v-6.876l4.438-0.606c1.219-0.175 1.394-0.437 1.394-1.746v-25.585c0-0.953-0.261-1.566-1.132-1.824l-4.7-1.656 0.957-7.047h18.016v36.114c0 1.399 0.086 1.57 1.395 1.746l4.437 0.606v6.875h-24.805" fill="#362701"/>
 </g>
 <g transform="matrix(.1099 0 0 .1099 0 -.086825)" clip-path="url(#b)">
  <path d="m218.37 65.21c-3.742 1.825-9.223 3.481-14.187 3.481-10.356 0-14.27-4.175-14.27-14.015v-22.797c0-0.524 0-0.871-0.7-0.871h-6.093v-7.746c7.664-0.871 10.707-4.703 11.664-14.188h8.27v12.36c0 0.609 0 0.87 0.695 0.87h12.27v8.704h-12.965v20.797c0 5.136 1.218 7.136 5.918 7.136 2.437 0 4.96-0.609 7.047-1.39l2.351 7.66" fill="#362701"/>
 </g>
 <g transform="matrix(.1099 0 0 .1099 0 -.086825)" clip-path="url(#c)">
  <path d="m89.422 42.371-39.793-39.789a5.868 5.868 0 0 0-8.3 0l-8.263 8.262 10.48 10.484a6.965 6.965 0 0 1 7.173 1.668 6.98 6.98 0 0 1 1.656 7.215l10.102 10.105a6.963 6.963 0 0 1 7.214 1.657 6.976 6.976 0 0 1 0 9.875 6.98 6.98 0 0 1-9.879 0 6.987 6.987 0 0 1-1.519-7.594l-9.422-9.422v24.793a6.979 6.979 0 0 1 1.848 1.32 6.988 6.988 0 0 1 0 9.88c-2.73 2.726-7.153 2.726-9.875 0a6.98 6.98 0 0 1 0-9.88 6.893 6.893 0 0 1 2.285-1.523v-25.024a6.893 6.893 0 0 1-2.285-1.523 6.988 6.988 0 0 1-1.508-7.637l-10.332-10.336-27.285 27.285a5.868 5.868 0 0 0 0 8.301l39.793 39.793a5.868 5.868 0 0 0 8.3 0l39.61-39.605a5.873 5.873 0 0 0 0-8.305" fill="#f03c2e"/>
 </g>
</svg>
