<svg fill="none" version="1.1" viewBox="0 0 24 14.4" xmlns="http://www.w3.org/2000/svg">
 <g transform="scale(.44444)" clip-path="url(#prefix__clip0)">
  <path d="m27 0c-7.2 0-11.7 3.6-13.5 10.8 2.7-3.6 5.85-4.95 9.45-4.05 2.054 0.513 3.522 2.004 5.147 3.653 2.647 2.687 5.711 5.797 12.403 5.797 7.2 0 11.7-3.6 13.5-10.8-2.7 3.6-5.85 4.95-9.45 4.05-2.054-0.513-3.522-2.004-5.147-3.653-2.647-2.687-5.711-5.797-12.403-5.797zm-13.5 16.2c-7.2 0-11.7 3.6-13.5 10.8 2.7-3.6 5.85-4.95 9.45-4.05 2.054 0.514 3.522 2.004 5.147 3.653 2.647 2.687 5.711 5.797 12.403 5.797 7.2 0 11.7-3.6 13.5-10.8-2.7 3.6-5.85 4.95-9.45 4.05-2.054-0.513-3.522-2.004-5.147-3.653-2.647-2.687-5.711-5.797-12.403-5.797z" clip-rule="evenodd" fill="#38bdf8" fill-rule="evenodd"/>
 </g>
 <defs>
  <clipPath id="prefix__clip0">
   <path d="m0 0h54v32.4h-54z" fill="#fff"/>
  </clipPath>
 </defs>
</svg>
