<svg version="1.1" viewBox="0 0 24 2.9755" xmlns="http://www.w3.org/2000/svg">
 <path d="m2.4796 0c-0.66123 0-1.0745 0.33061-1.2398 0.99184 0.24796-0.33061 0.53725-0.45459 0.86786-0.37194 0.18863 0.047112 0.32345 0.18404 0.47269 0.33548 0.24309 0.24677 0.52448 0.53238 1.1391 0.53238 0.66123 0 1.0745-0.33061 1.2398-0.99184-0.24796 0.33061-0.53725 0.45459-0.86786 0.37194-0.18863-0.047112-0.32345-0.18404-0.47269-0.33548-0.24309-0.24677-0.52448-0.53238-1.1391-0.53238zm-1.2398 1.4878c-0.66123 0-1.0745 0.33061-1.2398 0.99184 0.24796-0.33061 0.53725-0.45459 0.86786-0.37194 0.18863 0.047204 0.32345 0.18404 0.47269 0.33548 0.24309 0.24677 0.52448 0.53238 1.1391 0.53238 0.66123 0 1.0745-0.33061 1.2398-0.99184-0.24796 0.33061-0.53725 0.45459-0.86786 0.37194-0.18863-0.047112-0.32345-0.18404-0.47269-0.33548-0.24309-0.24677-0.52448-0.53238-1.1391-0.53238z" clip-rule="evenodd" fill="#38bdf8" fill-rule="evenodd" stroke-width=".091837"/>
 <path d="m7.4384 1.2538h-0.43274v0.83756c0 0.22335 0.14657 0.21986 0.43274 0.2059v0.33851c-0.57931 0.069796-0.80964-0.090735-0.80964-0.54441v-0.83756h-0.32106v-0.36294h0.32106v-0.46874l0.3769-0.11167v0.58041h0.43274zm1.6496-0.36294h0.3769v1.7449h-0.3769v-0.25127c-0.13261 0.18496-0.33851 0.29663-0.61072 0.29663-0.47461 0-0.86896-0.40133-0.86896-0.91782 0-0.51998 0.39435-0.91782 0.86896-0.91782 0.27221 0 0.4781 0.11168 0.61072 0.29315zm-0.55139 1.4308c0.31408 0 0.55139-0.23382 0.55139-0.55837s-0.23731-0.55837-0.55139-0.55837-0.55139 0.23382-0.55139 0.55837 0.23731 0.55837 0.55139 0.55837zm1.5565-1.6926c-0.13261 0-0.2408-0.11167-0.2408-0.2408 9.18e-5 -0.063826 0.025531-0.125 0.070623-0.17013 0.045184-0.045132 0.10635-0.070541 0.17017-0.070662 0.06383 1.2123e-4 0.12499 0.02553 0.17018 0.070662 0.04509 0.045132 0.07053 0.10631 0.07062 0.17013 0 0.12912-0.10818 0.2408-0.2408 0.2408zm-0.18845 2.0066v-1.7449h0.3769v1.7449zm0.81313 0v-2.5476h0.3769v2.5476zm2.8233-1.7449h0.39784l-0.5479 1.7449h-0.36992l-0.36294-1.1761-0.36643 1.1761h-0.36992l-0.5479-1.7449h0.39784l0.33851 1.204 0.36643-1.204h0.35945l0.36294 1.204zm0.86547-0.26174c-0.13261 0-0.2408-0.11167-0.2408-0.2408 9.2e-5 -0.063826 0.02553-0.125 0.07062-0.17013 0.04518-0.045132 0.10635-0.070541 0.17017-0.070662 0.06383 1.2123e-4 0.12499 0.02553 0.17017 0.070662 0.04509 0.045132 0.07053 0.10631 0.07062 0.17013 0 0.12912-0.10818 0.2408-0.2408 0.2408zm-0.18845 2.0066v-1.7449h0.3769v1.7449zm1.7309-1.7903c0.39086 0 0.67004 0.26523 0.67004 0.71891v1.0714h-0.3769v-1.033c0-0.26523-0.15355-0.40482-0.39086-0.40482-0.24778 0-0.44321 0.14657-0.44321 0.50253v0.93527h-0.3769v-1.7449h0.3769v0.22335c0.11516-0.18147 0.30361-0.26872 0.54092-0.26872zm2.4568-0.6526h0.3769v2.4429h-0.3769v-0.25127c-0.13261 0.18496-0.33851 0.29663-0.61072 0.29663-0.47461 0-0.86896-0.40133-0.86896-0.91782 0-0.51998 0.39435-0.91782 0.86896-0.91782 0.27221 0 0.4781 0.11168 0.61072 0.29315zm-0.55139 2.1288c0.31408 0 0.55139-0.23382 0.55139-0.55837s-0.23731-0.55837-0.55139-0.55837-0.55139 0.23382-0.55139 0.55837 0.23731 0.55837 0.55139 0.55837zm2.1916 0.35945c-0.52696 0-0.92131-0.40133-0.92131-0.91782 0-0.51998 0.39435-0.91782 0.92131-0.91782 0.342 0 0.63864 0.17798 0.77823 0.45019l-0.32455 0.18845c-0.076776-0.16402-0.24778-0.26872-0.45717-0.26872-0.3071 0-0.54092 0.23382-0.54092 0.5479s0.23382 0.5479 0.54092 0.5479c0.20939 0 0.38039-0.10818 0.46414-0.26872l0.32455 0.18496c-0.14657 0.2757-0.44321 0.45368-0.78521 0.45368zm1.4064-1.3087c0 0.31757 0.93876 0.12563 0.93876 0.77125 0 0.34898-0.30361 0.53743-0.68051 0.53743-0.34898 0-0.60025-0.15704-0.71192-0.40831l0.32455-0.18845c0.05584 0.15704 0.19543 0.25127 0.38737 0.25127 0.16751 0 0.29663-0.055837 0.29663-0.19543 0-0.31059-0.93876-0.1361-0.93876-0.76078 0-0.32804 0.28268-0.53395 0.63864-0.53395 0.28616 0 0.52347 0.13262 0.64562 0.36294l-0.31757 0.17798c-0.062817-0.1361-0.18496-0.19892-0.32804-0.19892-0.1361 0-0.25476 0.059327-0.25476 0.18496zm1.6088 0c0 0.31757 0.93876 0.12563 0.93876 0.77125 0 0.34898-0.30361 0.53743-0.68051 0.53743-0.34898 0-0.60025-0.15704-0.71192-0.40831l0.32455-0.18845c0.05584 0.15704 0.19543 0.25127 0.38737 0.25127 0.16751 0 0.29663-0.055837 0.29663-0.19543 0-0.31059-0.93876-0.1361-0.93876-0.76078 0-0.32804 0.28268-0.53395 0.63864-0.53395 0.28616 0 0.52347 0.13262 0.64562 0.36294l-0.31757 0.17798c-0.062817-0.1361-0.18496-0.19892-0.32804-0.19892-0.1361 0-0.25476 0.059327-0.25476 0.18496z" clip-rule="evenodd" fill="#fff" fill-rule="evenodd" stroke-width=".091837"/>
</svg>
