<?xml version="1.0" encoding="UTF-8" standalone="no"?>
<svg
   width="24"
   height="26.996943"
   viewBox="0 0 24 26.996943"
   fill="none"
   version="1.1"
   id="svg3"
   sodipodi:docname="icon-light.svg"
   inkscape:version="1.4.2 (ebf0e940d0, 2025-05-08)"
   xmlns:inkscape="http://www.inkscape.org/namespaces/inkscape"
   xmlns:sodipodi="http://sodipodi.sourceforge.net/DTD/sodipodi-0.dtd"
   xmlns="http://www.w3.org/2000/svg"
   xmlns:svg="http://www.w3.org/2000/svg">
  <sodipodi:namedview
     id="namedview3"
     pagecolor="#ffffff"
     bordercolor="#999999"
     borderopacity="1"
     inkscape:showpageshadow="2"
     inkscape:pageopacity="0"
     inkscape:pagecheckerboard="0"
     inkscape:deskcolor="#d1d1d1"
     inkscape:zoom="6.2625"
     inkscape:cx="34.730539"
     inkscape:cy="38.882236"
     inkscape:window-width="1366"
     inkscape:window-height="707"
     inkscape:window-x="0"
     inkscape:window-y="0"
     inkscape:window-maximized="1"
     inkscape:current-layer="svg3" />
  <g
     clipPath="url(#clip0_337_7891)"
     fill="#5fa04e"
     id="g2"
     transform="matrix(0.34455531,0,0,0.34455531,-0.27495513,-0.39520494)">
    <path
       d="m 35.625,79.5 c -1.081,0 -2.09,-0.288 -3.028,-0.792 l -9.59,-5.686 c -1.442,-0.792 -0.721,-1.08 -0.289,-1.224 1.947,-0.648 2.308,-0.792 4.327,-1.944 0.216,-0.144 0.504,-0.072 0.72,0.072 l 7.356,4.391 c 0.288,0.144 0.649,0.144 0.865,0 l 28.77,-16.628 c 0.289,-0.144 0.433,-0.431 0.433,-0.791 V 23.714 c 0,-0.36 -0.144,-0.648 -0.432,-0.792 L 35.986,6.366 c -0.288,-0.144 -0.65,-0.144 -0.865,0 L 6.35,22.922 c -0.29,0.144 -0.434,0.504 -0.434,0.792 v 33.184 c 0,0.287 0.145,0.647 0.433,0.791 l 7.86,4.535 c 4.254,2.16 6.922,-0.36 6.922,-2.879 V 26.593 c 0,-0.432 0.36,-0.864 0.865,-0.864 h 3.678 c 0.432,0 0.865,0.36 0.865,0.864 v 32.752 c 0,5.687 -3.1,8.998 -8.509,8.998 -1.658,0 -2.956,0 -6.633,-1.8 L 3.825,62.224 A 6.073,6.073 0 0 1 0.798,56.97 V 23.786 A 6.073,6.073 0 0 1 3.826,18.531 L 32.596,1.903 c 1.804,-1.008 4.255,-1.008 6.058,0 l 28.77,16.628 a 6.073,6.073 0 0 1 3.029,5.255 V 56.97 a 6.073,6.073 0 0 1 -3.029,5.254 l -28.77,16.628 c -0.865,0.36 -1.947,0.648 -3.029,0.648 z"
       id="path1" />
    <path
       d="m 44.567,56.682 c -12.62,0 -15.215,-5.759 -15.215,-10.654 0,-0.432 0.36,-0.864 0.865,-0.864 h 3.75 c 0.433,0 0.793,0.288 0.793,0.72 0.577,3.815 2.235,5.687 9.879,5.687 6.057,0 8.652,-1.368 8.652,-4.607 0,-1.871 -0.72,-3.24 -10.167,-4.175 -7.86,-0.792 -12.762,-2.52 -12.762,-8.782 0,-5.83 4.903,-9.285 13.123,-9.285 9.23,0 13.772,3.167 14.35,10.077 0,0.216 -0.073,0.432 -0.217,0.648 -0.144,0.144 -0.36,0.288 -0.577,0.288 h -3.822 a 0.844,0.844 0 0 1 -0.793,-0.648 c -0.865,-3.96 -3.1,-5.255 -9.013,-5.255 -6.634,0 -7.427,2.304 -7.427,4.031 0,2.088 0.937,2.736 9.879,3.887 8.869,1.152 13.05,2.808 13.05,8.998 0,6.335 -5.263,9.934 -14.348,9.934 z"
       id="path2" />
  </g>
  <defs
     id="defs3">
    <clipPath
       id="clip0_337_7891">
      <path
         fill="#ffffff"
         d="m 0,0.5 h 71 v 79 H 0 Z"
         id="path3" />
    </clipPath>
  </defs>
</svg>
