<?xml version="1.0" encoding="UTF-8" standalone="no"?>
<svg
   width="24"
   height="27.516914"
   viewBox="0 0 5.28 6.8792286"
   version="1.1"
   id="svg13"
   sodipodi:docname="icon.svg"
   inkscape:version="1.4.2 (ebf0e940d0, 2025-05-08)"
   xmlns:inkscape="http://www.inkscape.org/namespaces/inkscape"
   xmlns:sodipodi="http://sodipodi.sourceforge.net/DTD/sodipodi-0.dtd"
   xmlns="http://www.w3.org/2000/svg"
   xmlns:svg="http://www.w3.org/2000/svg">
  <sodipodi:namedview
     id="namedview13"
     pagecolor="#ffffff"
     bordercolor="#999999"
     borderopacity="1"
     inkscape:showpageshadow="2"
     inkscape:pageopacity="0"
     inkscape:pagecheckerboard="0"
     inkscape:deskcolor="#d1d1d1"
     inkscape:zoom="2.505"
     inkscape:cx="96.806387"
     inkscape:cy="99.201597"
     inkscape:window-width="1366"
     inkscape:window-height="707"
     inkscape:window-x="0"
     inkscape:window-y="0"
     inkscape:window-maximized="1"
     inkscape:current-layer="svg13" />
  <defs
     id="defs12">
    <clipPath
       id="hexClip">
      <path
         d="M 22.8725,0.4166 C 22.136,0 21.2616,0 20.5253,0.4166 L 1.1505,11.6694 C 0.4142,12.0862 0,12.8733 0,13.707 v 22.5514 c 0,0.8337 0.4602,1.6207 1.1505,2.0376 l 19.3748,11.2527 c 0.7363,0.4166 1.6107,0.4166 2.3472,0 L 42.2471,38.296 c 0.7365,-0.4169 1.1505,-1.2039 1.1505,-2.0376 V 13.707 c 0,-0.8337 -0.4601,-1.6208 -1.1505,-2.0376 z"
         id="path1" />
    </clipPath>
    <linearGradient
       id="main"
       x1="30.33"
       y1="8.5600004"
       x2="14.9"
       y2="44.700001"
       gradientUnits="userSpaceOnUse"
       gradientTransform="matrix(0.13825649,0,0,0.13825649,-0.36,-0.01439941)">
      <stop
         stop-color="#3F8B3D"
         id="stop1" />
      <stop
         offset="0.64"
         stop-color="#3F873F"
         id="stop2" />
      <stop
         offset="0.93"
         stop-color="#3DA92E"
         id="stop3" />
      <stop
         offset="1"
         stop-color="#3DAE2B"
         id="stop4" />
    </linearGradient>
    <linearGradient
       id="r1"
       x1="18.799999"
       y1="26.799999"
       x2="68"
       y2="0.40000001"
       gradientUnits="userSpaceOnUse">
      <stop
         offset="0.14"
         stop-color="#3F873F"
         id="stop5" />
      <stop
         offset="0.4"
         stop-color="#52A044"
         id="stop6" />
      <stop
         offset="0.71"
         stop-color="#64B749"
         id="stop7" />
      <stop
         offset="0.91"
         stop-color="#6ABF4B"
         id="stop8" />
    </linearGradient>
    <linearGradient
       id="r2"
       x1="0.25"
       y1="24.5"
       x2="44"
       y2="24.5"
       gradientUnits="userSpaceOnUse">
      <stop
         offset="0.09"
         stop-color="#6ABF4B"
         id="stop9" />
      <stop
         offset="0.29"
         stop-color="#64B749"
         id="stop10" />
      <stop
         offset="0.6"
         stop-color="#52A044"
         id="stop11" />
      <stop
         offset="0.86"
         stop-color="#3F873F"
         id="stop12" />
    </linearGradient>
  </defs>
  <path
     fill="url(#main)"
     d="m 2.8022716,0.04319824 c -0.1018259,-0.05759765 -0.2227173,-0.05759765 -0.3245156,0 L -0.2009359,1.5989709 C -0.3027342,1.6565962 -0.36,1.7654179 -0.36,1.8806823 v 3.1178775 c 0,0.1152645 0.063626,0.2240723 0.1590641,0.2817115 L 2.477756,6.8360301 c 0.1017983,0.057598 0.2226897,0.057598 0.3245156,0 L 5.4809359,5.2802713 C 5.5827618,5.2226321 5.64,5.1138243 5.64,4.9985598 V 1.8806823 C 5.64,1.7654179 5.5763882,1.6565962 5.4809359,1.5989709 Z"
     id="path12"
     style="fill:url(#main);stroke-width:0.138256" />
  <polygon
     fill="url(#r1)"
     clip-path="url(#hexClip)"
     points="43.20532,11.948247 21.698901,51.072715 0.152778,38.055107 21.698901,-1.046618 "
     id="polygon12"
     style="fill:url(#r1)"
     transform="matrix(0.13825649,0,0,0.13825649,-0.36,-0.01439941)" />
  <polygon
     fill="url(#r2)"
     clip-path="url(#hexClip)"
     points="0.152778,11.948247 21.698901,51.072715 43.20532,38.055107 21.698901,-1.046618 "
     id="polygon13"
     style="fill:url(#r2)"
     transform="matrix(0.13825649,0,0,0.13825649,-0.36,-0.01439941)" />
</svg>
