<?xml version="1.0" encoding="UTF-8" standalone="no"?>
<svg
   width="24"
   height="27.050478"
   viewBox="0 0 24 27.050478"
   fill="none"
   version="1.1"
   id="svg2"
   sodipodi:docname="icon-dark.svg"
   inkscape:version="1.4.2 (ebf0e940d0, 2025-05-08)"
   xmlns:inkscape="http://www.inkscape.org/namespaces/inkscape"
   xmlns:sodipodi="http://sodipodi.sourceforge.net/DTD/sodipodi-0.dtd"
   xmlns="http://www.w3.org/2000/svg"
   xmlns:svg="http://www.w3.org/2000/svg">
  <sodipodi:namedview
     id="namedview2"
     pagecolor="#ffffff"
     bordercolor="#999999"
     borderopacity="1"
     inkscape:showpageshadow="2"
     inkscape:pageopacity="0"
     inkscape:pagecheckerboard="0"
     inkscape:deskcolor="#d1d1d1"
     inkscape:zoom="6.2625"
     inkscape:cx="35.369261"
     inkscape:cy="39.201597"
     inkscape:window-width="1366"
     inkscape:window-height="707"
     inkscape:window-x="0"
     inkscape:window-y="0"
     inkscape:window-maximized="1"
     inkscape:current-layer="svg2" />
  <g
     clipPath="url(#clip0_337_7892)"
     id="g2"
     transform="matrix(0.34347843,0,0,0.34347843,-0.062725,-0.25605707)">
    <path
       d="m 35.1193,79.5 c -1.085,0 -2.0976,-0.2894 -3.038,-0.7959 l -9.6202,-5.7157 c -1.4467,-0.7959 -0.7233,-1.0853 -0.2893,-1.23 1.9529,-0.6512 2.3146,-0.7959 4.3399,-1.9535 0.217,-0.1447 0.5064,-0.0723 0.7234,0.0724 l 7.3779,4.4134 c 0.2893,0.1447 0.651,0.1447 0.868,0 L 64.3417,57.5775 c 0.2894,-0.1447 0.434,-0.4341 0.434,-0.7958 V 23.4276 c 0,-0.3617 -0.1446,-0.6511 -0.434,-0.7958 L 35.481,5.99096 c -0.2893,-0.1447 -0.651,-0.1447 -0.868,0 L 5.75223,22.6318 c -0.28933,0.1447 -0.434,0.5064 -0.434,0.7958 v 33.3541 c 0,0.2894 0.14467,0.6511 0.434,0.7958 l 7.88427,4.5582 c 4.2676,2.1705 6.9439,-0.3618 6.9439,-2.8941 V 26.3217 c 0,-0.4341 0.3617,-0.8682 0.868,-0.8682 h 3.689 c 0.434,0 0.868,0.3617 0.868,0.8682 v 32.9199 c 0,5.7158 -3.1103,9.0439 -8.5353,9.0439 -1.6636,0 -2.9656,0 -6.6546,-1.8088 L 3.22059,62.1357 C 1.33994,61.0504 0.182617,59.0246 0.182617,56.854 V 23.5 c 0,-2.1705 1.157323,-4.1964 3.037973,-5.2817 L 32.0813,1.50517 c 1.8084,-1.012917 4.2677,-1.012917 6.076,0 L 67.0181,18.2183 c 1.8806,1.0853 3.0379,3.1112 3.0379,5.2817 v 33.354 c 0,2.1706 -1.1573,4.1964 -3.0379,5.2817 L 38.1573,78.8488 c -0.868,0.3618 -1.953,0.6512 -3.038,0.6512 z"
       fill="#ffffff"
       id="path1" />
    <path
       d="m 44.0884,56.5646 c -12.6582,0 -15.2622,-5.7881 -15.2622,-10.708 0,-0.4341 0.3616,-0.8683 0.868,-0.8683 h 3.7613 c 0.434,0 0.7956,0.2895 0.7956,0.7236 0.5787,3.8346 2.2423,5.7157 9.9096,5.7157 6.076,0 8.6799,-1.3747 8.6799,-4.6305 0,-1.8811 -0.7233,-3.2558 -10.1989,-4.1963 -7.8842,-0.7959 -12.8029,-2.5323 -12.8029,-8.8269 0,-5.8605 4.9187,-9.3333 13.1646,-9.3333 9.2586,0 13.8155,3.1834 14.3942,10.1291 0,0.2171 -0.0723,0.4342 -0.217,0.6512 -0.1447,0.1447 -0.3617,0.2894 -0.5787,0.2894 h -3.8336 c -0.3617,0 -0.7233,-0.2894 -0.7957,-0.6511 -0.8679,-3.9794 -3.1103,-5.2817 -9.0415,-5.2817 -6.6547,0 -7.4503,2.3152 -7.4503,4.0517 0,2.0982 0.9403,2.7493 9.9096,3.907 8.8969,1.1576 13.0922,2.8217 13.0922,9.0439 0,6.3669 -5.2803,9.9845 -14.3942,9.9845 z"
       fill="#ffffff"
       id="path2" />
  </g>
  <defs
     id="defs2">
    <clipPath
       id="clip0_337_7892">
      <rect
         width="71"
         height="79"
         fill="#ffffff"
         transform="translate(0,0.5)"
         id="rect2"
         x="0"
         y="0" />
    </clipPath>
  </defs>
</svg>
