<?xml version="1.0" encoding="UTF-8" standalone="no"?>
<svg
   width="24"
   height="7.0917025"
   viewBox="0 0 24 7.0917025"
   fill="none"
   version="1.1"
   id="svg20"
   sodipodi:docname="brand-light.svg"
   inkscape:version="1.4.2 (ebf0e940d0, 2025-05-08)"
   xmlns:inkscape="http://www.inkscape.org/namespaces/inkscape"
   xmlns:sodipodi="http://sodipodi.sourceforge.net/DTD/sodipodi-0.dtd"
   xmlns="http://www.w3.org/2000/svg"
   xmlns:svg="http://www.w3.org/2000/svg">
  <sodipodi:namedview
     id="namedview20"
     pagecolor="#ffffff"
     bordercolor="#999999"
     borderopacity="1"
     inkscape:showpageshadow="2"
     inkscape:pageopacity="0"
     inkscape:pagecheckerboard="0"
     inkscape:deskcolor="#d1d1d1"
     inkscape:zoom="4.6029963"
     inkscape:cx="133.5"
     inkscape:cy="40.082587"
     inkscape:window-width="1366"
     inkscape:window-height="707"
     inkscape:window-x="0"
     inkscape:window-y="0"
     inkscape:window-maximized="1"
     inkscape:current-layer="svg20" />
  <mask
     id="a"
     maskUnits="userSpaceOnUse"
     x="0"
     y="0"
     width="267"
     height="80">
    <path
       d="M 267,0 H 0 v 79.378 h 267 z"
       fill="#ffffff"
       id="path1" />
  </mask>
  <g
     mask="url(#a)"
     id="g9"
     transform="matrix(0.08988764,0,0,0.08988764,0,-2.247191e-5)">
    <path
       d="m 234.983,78.755 a 4,4 0 0 1 -1.933,-0.51 l -6.121,-3.658 c -0.921,-0.51 -0.46,-0.695 -0.184,-0.787 1.242,-0.417 1.472,-0.51 2.761,-1.25 0.138,-0.093 0.322,-0.047 0.46,0.046 l 4.694,2.825 c 0.184,0.092 0.414,0.092 0.552,0 l 18.363,-10.698 c 0.183,-0.092 0.277,-0.277 0.277,-0.509 V 42.867 c 0,-0.232 -0.094,-0.417 -0.277,-0.51 l -18.363,-10.65 c -0.184,-0.093 -0.414,-0.093 -0.552,0 l -18.362,10.65 c -0.184,0.093 -0.276,0.324 -0.276,0.51 v 21.347 c 0,0.186 0.092,0.417 0.276,0.51 l 5.016,2.917 c 2.715,1.39 4.418,-0.232 4.418,-1.852 v -21.07 c 0,-0.278 0.23,-0.556 0.553,-0.556 h 2.347 c 0.276,0 0.552,0.232 0.552,0.556 v 21.07 c 0,3.658 -1.979,5.788 -5.431,5.788 -1.058,0 -1.886,0 -4.234,-1.157 l -4.832,-2.779 a 3.91,3.91 0 0 1 -1.933,-3.38 V 42.912 c 0,-1.39 0.737,-2.686 1.933,-3.38 L 233.05,28.835 c 1.15,-0.649 2.715,-0.649 3.865,0 l 18.363,10.696 a 3.91,3.91 0 0 1 1.932,3.381 V 64.26 c 0,1.39 -0.736,2.686 -1.932,3.381 l -18.363,10.697 c -0.552,0.232 -1.242,0.417 -1.932,0.417"
       fill="#5fa04e"
       id="path2" />
    <path
       d="m 240.69,64.075 c -8.055,0 -9.712,-3.705 -9.712,-6.854 0,-0.277 0.23,-0.555 0.552,-0.555 h 2.393 c 0.277,0 0.507,0.185 0.507,0.463 0.368,2.454 1.426,3.658 6.305,3.658 3.866,0 5.523,-0.88 5.523,-2.963 0,-1.204 -0.462,-2.084 -6.49,-2.686 -5.016,-0.51 -8.146,-1.621 -8.146,-5.65 0,-3.75 3.13,-5.974 8.376,-5.974 5.892,0 8.791,2.038 9.159,6.484 a 0.76,0.76 0 0 1 -0.137,0.416 c -0.094,0.093 -0.231,0.186 -0.371,0.186 h -2.439 a 0.54,0.54 0 0 1 -0.505,-0.417 c -0.553,-2.547 -1.98,-3.38 -5.753,-3.38 -4.234,0 -4.74,1.481 -4.74,2.593 0,1.342 0.598,1.76 6.305,2.5 5.66,0.741 8.33,1.806 8.33,5.788 0,4.076 -3.36,6.391 -9.157,6.391 M 267.2,41.662 c 0,1.945 -1.612,3.566 -3.546,3.566 a 3.556,3.556 0 0 1 -3.543,-3.566 3.556,3.556 0 0 1 3.543,-3.565 c 1.888,0 3.546,1.574 3.546,3.565 m -6.536,0 c 0,1.667 1.335,3.01 2.944,3.01 1.658,0 2.993,-1.39 2.993,-3.01 0,-1.667 -1.335,-2.963 -2.993,-2.963 a 2.975,2.975 0 0 0 -2.944,2.963 m 1.657,-1.991 h 1.381 c 0.46,0 1.381,0 1.381,1.065 0,0.74 -0.462,0.88 -0.739,0.973 0.554,0.046 0.599,0.416 0.645,0.926 0.046,0.324 0.094,0.88 0.185,1.065 h -0.83 c 0,-0.186 -0.137,-1.204 -0.137,-1.25 -0.045,-0.232 -0.137,-0.325 -0.413,-0.325 h -0.691 v 1.62 h -0.782 z m 0.736,1.76 h 0.597 c 0.508,0 0.599,-0.37 0.599,-0.556 0,-0.556 -0.368,-0.556 -0.599,-0.556 h -0.642 v 1.112 z"
       fill="#5fa04e"
       id="path3" />
    <path
       fill-rule="evenodd"
       clip-rule="evenodd"
       d="m 43.674,41.954 c 0,-0.834 -0.46,-1.62 -1.197,-2.038 L 23.01,28.572 c -0.322,-0.185 -0.69,-0.278 -1.058,-0.324 h -0.184 c -0.368,0 -0.736,0.139 -1.059,0.324 L 1.197,39.872 A 2.38,2.38 0 0 0 0,41.953 l 0.046,30.378 c 0,0.416 0.23,0.833 0.598,1.018 0.368,0.232 0.829,0.232 1.15,0 l 11.598,-6.668 a 2.36,2.36 0 0 0 1.197,-2.037 V 50.428 c 0,-0.833 0.46,-1.62 1.196,-2.037 l 4.924,-2.871 a 2.2,2.2 0 0 1 1.197,-0.325 c 0.414,0 0.828,0.093 1.15,0.325 l 4.925,2.87 a 2.36,2.36 0 0 1 1.196,2.038 v 14.217 c 0,0.833 0.46,1.62 1.197,2.037 l 11.505,6.668 c 0.368,0.232 0.828,0.232 1.197,0 0.368,-0.185 0.598,-0.602 0.598,-1.018 z M 137.465,0.139 c -0.369,-0.185 -0.829,-0.185 -1.151,0 -0.368,0.231 -0.598,0.602 -0.598,1.019 v 30.1 a 0.89,0.89 0 0 1 -0.415,0.74 0.88,0.88 0 0 1 -0.828,0 l -4.878,-2.825 a 2.36,2.36 0 0 0 -2.347,0 L 107.735,40.52 a 2.36,2.36 0 0 0 -1.196,2.037 V 65.2 c 0,0.834 0.46,1.621 1.196,2.038 l 19.513,11.345 a 2.36,2.36 0 0 0 2.347,0 L 149.108,67.238 A 2.36,2.36 0 0 0 150.304,65.2 V 8.752 c 0,-0.88 -0.46,-1.667 -1.196,-2.084 z m -1.795,57.606 c 0,0.232 -0.092,0.417 -0.276,0.51 l -6.674,3.89 a 0.68,0.68 0 0 1 -0.598,0 l -6.673,-3.89 c -0.184,-0.093 -0.276,-0.325 -0.276,-0.51 v -7.78 c 0,-0.231 0.092,-0.416 0.276,-0.509 l 6.673,-3.89 a 0.68,0.68 0 0 1 0.598,0 l 6.674,3.89 c 0.184,0.093 0.276,0.324 0.276,0.51 z m 66.728,-7.965 c 0.737,-0.417 1.151,-1.204 1.151,-2.038 v -5.51 c 0,-0.834 -0.46,-1.62 -1.151,-2.037 l -19.375,-11.3 a 2.36,2.36 0 0 0 -2.347,0 l -19.512,11.346 a 2.36,2.36 0 0 0 -1.197,2.037 v 22.645 c 0,0.833 0.46,1.62 1.197,2.037 l 19.374,11.114 c 0.737,0.416 1.611,0.416 2.301,0 l 11.736,-6.576 c 0.368,-0.185 0.598,-0.602 0.598,-1.019 0,-0.417 -0.23,-0.833 -0.598,-1.018 L 174.97,58.115 c -0.368,-0.231 -0.598,-0.602 -0.598,-1.018 v -7.085 c 0,-0.417 0.23,-0.834 0.598,-1.02 l 6.121,-3.518 a 1.12,1.12 0 0 1 1.196,0 l 6.121,3.519 c 0.368,0.231 0.598,0.602 0.598,1.019 v 5.557 c 0,0.416 0.23,0.833 0.599,1.018 0.368,0.232 0.828,0.232 1.196,0 z"
       fill="#333333"
       id="path4" />
    <path
       fill-rule="evenodd"
       clip-rule="evenodd"
       d="m 181.551,48.716 a 0.42,0.42 0 0 1 0.461,0 l 3.727,2.176 c 0.138,0.092 0.23,0.231 0.23,0.417 v 4.352 a 0.49,0.49 0 0 1 -0.23,0.417 l -3.727,2.177 a 0.42,0.42 0 0 1 -0.461,0 l -3.727,-2.177 a 0.49,0.49 0 0 1 -0.23,-0.417 V 51.31 c 0,-0.185 0.092,-0.325 0.23,-0.417 z"
       fill="#5fa04e"
       id="path5" />
    <g
       transform="translate(53.428,28.628)"
       id="g8">
      <path
         fill="url(#b)"
         d="m 22.873,0.417 a 2.36,2.36 0 0 0 -2.348,0 L 1.151,11.669 C 0.414,12.086 0,12.873 0,13.707 v 22.551 c 0,0.834 0.46,1.621 1.15,2.038 l 19.375,11.253 a 2.36,2.36 0 0 0 2.348,0 L 42.247,38.296 c 0.737,-0.417 1.15,-1.204 1.15,-2.038 V 13.707 c 0,-0.834 -0.46,-1.62 -1.15,-2.038 z"
         id="path6"
         style="fill:url(#b)" />
      <path
         fill="url(#c)"
         clip-path="url(#d)"
         d="M 21.699,-1.047 43.205,11.948 21.7,51.073 0.153,38.055 Z"
         id="path7"
         style="fill:url(#c)" />
      <path
         fill="url(#e)"
         clip-path="url(#d)"
         d="M 21.699,-1.047 0.153,11.948 21.699,51.073 43.205,38.055 Z"
         id="path8"
         style="fill:url(#e)" />
    </g>
  </g>
  <defs
     id="defs20">
    <linearGradient
       id="b"
       x1="30.33"
       y1="8.5600004"
       x2="14.9"
       y2="44.700001"
       gradientUnits="userSpaceOnUse">
      <stop
         stop-color="#3F8B3D"
         id="stop9" />
      <stop
         offset=".64"
         stop-color="#3F873F"
         id="stop10" />
      <stop
         offset=".93"
         stop-color="#3DA92E"
         id="stop11" />
      <stop
         offset="1"
         stop-color="#3DAE2B"
         id="stop12" />
    </linearGradient>
    <linearGradient
       id="c"
       x1="18.799999"
       y1="26.799999"
       x2="68"
       y2="0.40000001"
       gradientUnits="userSpaceOnUse">
      <stop
         offset=".14"
         stop-color="#3F873F"
         id="stop13" />
      <stop
         offset=".4"
         stop-color="#52A044"
         id="stop14" />
      <stop
         offset=".71"
         stop-color="#64B749"
         id="stop15" />
      <stop
         offset=".91"
         stop-color="#6ABF4B"
         id="stop16" />
    </linearGradient>
    <linearGradient
       id="e"
       x1="0.25"
       y1="24.5"
       x2="44"
       y2="24.5"
       gradientUnits="userSpaceOnUse">
      <stop
         offset=".09"
         stop-color="#6ABF4B"
         id="stop17" />
      <stop
         offset=".29"
         stop-color="#64B749"
         id="stop18" />
      <stop
         offset=".6"
         stop-color="#52A044"
         id="stop19" />
      <stop
         offset=".86"
         stop-color="#3F873F"
         id="stop20" />
    </linearGradient>
    <clipPath
       id="d">
      <path
         d="m 22.873,0.417 a 2.36,2.36 0 0 0 -2.348,0 L 1.151,11.669 C 0.414,12.086 0,12.873 0,13.707 v 22.551 c 0,0.834 0.46,1.621 1.15,2.038 l 19.375,11.253 a 2.36,2.36 0 0 0 2.348,0 L 42.247,38.296 c 0.737,-0.417 1.15,-1.204 1.15,-2.038 V 13.707 c 0,-0.834 -0.46,-1.62 -1.15,-2.038 z"
         id="path20" />
    </clipPath>
  </defs>
</svg>
