<?xml version="1.0" encoding="UTF-8" standalone="no"?>
<svg
   width="24.000004"
   height="6.0544462"
   viewBox="0 0 24.000004 6.0544462"
   fill="none"
   version="1.1"
   id="svg9"
   sodipodi:docname="logo.svg"
   inkscape:version="1.4.2 (ebf0e940d0, 2025-05-08)"
   xmlns:inkscape="http://www.inkscape.org/namespaces/inkscape"
   xmlns:sodipodi="http://sodipodi.sourceforge.net/DTD/sodipodi-0.dtd"
   xmlns="http://www.w3.org/2000/svg"
   xmlns:svg="http://www.w3.org/2000/svg">
  <defs
     id="defs9" />
  <sodipodi:namedview
     id="namedview9"
     pagecolor="#ffffff"
     bordercolor="#999999"
     borderopacity="1"
     inkscape:showpageshadow="2"
     inkscape:pageopacity="0"
     inkscape:pagecheckerboard="0"
     inkscape:deskcolor="#d1d1d1"
     inkscape:zoom="0.88294011"
     inkscape:cx="551"
     inkscape:cy="138.74101"
     inkscape:window-width="1366"
     inkscape:window-height="707"
     inkscape:window-x="0"
     inkscape:window-y="0"
     inkscape:window-maximized="1"
     inkscape:current-layer="svg9" />
  <path
     d="M 1.7928765,0.62383447 C 1.5579683,0.34512304 1.3556845,0.06205698 1.3143596,0.00326615 c -0.00435,-0.00435487 -0.010878,-0.00435487 -0.015228,0 C 1.257805,0.06205698 1.0555233,0.34512304 0.82061296,0.62383447 -1.1956854,3.1953757 1.1381774,4.9308021 1.1381774,4.9308021 l 0.019575,0.013067 c 0.017399,0.2678112 0.060902,0.6532269 0.060902,0.6532269 h 0.087003 0.087003 c 0,0 0.043503,-0.3832378 0.060904,-0.6532269 l 0.019575,-0.015245 c 0.00217,0.00218 2.336045,-1.7332486 0.3197371,-4.30478963 z M 1.3056569,4.8937786 c 0,0 -0.1044022,-0.089271 -0.1326795,-0.1350055 v -0.00433 L 1.299132,1.9542468 c 0,-0.00871 0.013052,-0.00871 0.013052,0 l 0.1261525,2.8001924 v 0.00433 C 1.4100612,4.8045081 1.3056569,4.8937786 1.3056569,4.8937786 Z"
     fill="#00ed64"
     id="path1"
     style="stroke-width:0.0217786" />
  <path
     d="M 5.6733432,4.3031869 4.7007988,1.944808 4.6986209,1.938294 H 3.9419458 v 0.1585263 h 0.1221125 c 0.037067,0 0.071956,0.015204 0.098134,0.041262 0.026156,0.02606 0.039245,0.060815 0.039245,0.097729 l -0.0218,2.3735607 c 0,0.073829 -0.061045,0.1346352 -0.1352014,0.1368131 l -0.1242904,0.00218 V 4.9047114 H 4.657198 V 4.7483629 L 4.580864,4.7461829 C 4.5067298,4.7440072 4.4456626,4.6832014 4.4456626,4.609372 V 2.3726243 l 1.0597895,2.5320871 c 0.015245,0.036915 0.050134,0.060806 0.089401,0.060806 0.039245,0 0.074134,-0.023891 0.089401,-0.060806 l 1.0357894,-2.475637 0.015267,2.1802976 c 0,0.076007 -0.061067,0.1368131 -0.1373793,0.1389909 H 6.5194194 V 4.9047114 H 7.3829403 V 4.7483629 H 7.2651835 c -0.074134,0 -0.1352015,-0.062984 -0.1373793,-0.136813 l -0.00653,-2.3735826 c 0,-0.075999 0.061045,-0.1368021 0.1352014,-0.1389735 l 0.1264647,-0.00217 V 1.938294 H 6.6458877 Z"
     fill="#00ed64"
     id="path2"
     style="stroke-width:0.0217786" />
  <path
     d="m 12.454497,4.7071361 c -0.02407,-0.023869 -0.03718,-0.056406 -0.03718,-0.095434 V 3.4490526 c 0,-0.2212486 -0.06557,-0.3947804 -0.196769,-0.5184174 -0.128973,-0.123637 -0.308255,-0.1865336 -0.531245,-0.1865336 -0.312654,0 -0.559688,0.1258149 -0.732414,0.373089 -0.0022,0.00433 -0.0087,0.00651 -0.01529,0.00651 -0.0066,0 -0.01093,-0.00436 -0.01093,-0.010846 l -0.08091,-0.3101924 h -0.13555 l -0.347608,0.1974011 v 0.1084356 h 0.08964 c 0.04153,0 0.07651,0.010846 0.100573,0.032537 0.02404,0.021692 0.03715,0.054229 0.03715,0.099789 v 1.3686969 c 0,0.039049 -0.01311,0.071586 -0.03715,0.095434 -0.02407,0.023869 -0.05684,0.036871 -0.0962,0.036871 h -0.08746 v 0.1583521 h 0.800167 V 4.7418294 h -0.08744 c -0.03935,0 -0.07215,-0.013002 -0.0962,-0.036871 -0.02404,-0.023848 -0.03718,-0.056385 -0.03718,-0.095434 v -0.906686 c 0,-0.1149692 0.02624,-0.2299166 0.07435,-0.3427078 0.05027,-0.1106352 0.124596,-0.2038911 0.222991,-0.2754774 0.09837,-0.071586 0.216436,-0.1062794 0.351986,-0.1062794 0.153038,0 0.268922,0.047717 0.341052,0.1431506 0.07215,0.095434 0.109329,0.2190708 0.109329,0.3665771 v 1.119245 c 0,0.039049 -0.01313,0.071586 -0.03718,0.095456 -0.02404,0.023848 -0.05684,0.036871 -0.0962,0.036871 h -0.08742 v 0.1583303 h 0.800167 V 4.7396733 h -0.08744 c -0.0328,0.00433 -0.06342,-0.00869 -0.08964,-0.032537 z"
     fill="#00ed64"
     id="path3"
     style="stroke-width:0.0217786" />
  <path
     d="M 19.765067,2.1171397 C 19.543884,1.9993633 19.296675,1.938294 19.029953,1.938294 H 17.98911 v 0.1592167 h 0.101924 c 0.03903,0 0.07372,0.015267 0.108414,0.050165 0.03254,0.032709 0.04987,0.069798 0.04987,0.1090432 v 2.3468167 c 0,0.039245 -0.01734,0.076334 -0.04987,0.1090453 -0.03252,0.032711 -0.06939,0.050156 -0.108414,0.050156 H 17.98911 V 4.92196 h 1.040843 c 0.266722,0 0.513931,-0.061067 0.735114,-0.1788457 0.221161,-0.1177786 0.401161,-0.2922686 0.531267,-0.514715 0.130105,-0.2224683 0.197314,-0.4907369 0.197314,-0.7960944 0,-0.3053358 -0.06721,-0.5714265 -0.197314,-0.7960726 -0.132283,-0.226824 -0.310106,-0.401314 -0.531267,-0.5190926 z m 0.310083,1.3108095 c 0,0.2791796 -0.04987,0.514715 -0.147462,0.7044718 -0.09757,0.1897568 -0.227696,0.3315136 -0.38816,0.4231144 -0.160443,0.091622 -0.338265,0.1374228 -0.529089,0.1374228 h -0.210338 c -0.03903,0 -0.07372,-0.015267 -0.108413,-0.050178 -0.03254,-0.032712 -0.04987,-0.069779 -0.04987,-0.1090454 V 2.3199855 c 0,-0.039267 0.01518,-0.074156 0.04987,-0.1090672 0.03252,-0.032711 0.06939,-0.050158 0.108413,-0.050158 h 0.210338 c 0.190824,0 0.368646,0.045802 0.529089,0.1374032 0.160464,0.091601 0.290592,0.2333793 0.38816,0.4231361 0.09759,0.1897351 0.147462,0.4274701 0.147462,0.7066496 z"
     fill="#00ed64"
     id="path4"
     style="stroke-width:0.0217786" />
  <path
     d="m 22.953974,3.5871724 c -0.09626,-0.111245 -0.282032,-0.2050236 -0.500472,-0.2552015 0.301634,-0.15049 0.456697,-0.3620471 0.456697,-0.6346715 0,-0.1483121 -0.0392,-0.2813575 -0.11804,-0.3947803 C 22.713539,2.189118 22.602032,2.0975085 22.460036,2.0342592 22.317822,1.9710098 22.151651,1.938294 21.963702,1.938294 h -1.178178 v 0.1592167 h 0.094 c 0.03933,0 0.07431,0.015267 0.109285,0.050163 0.0328,0.032712 0.05029,0.0698 0.05029,0.1090454 v 2.3468167 c 0,0.039245 -0.01749,0.076334 -0.05029,0.1090453 -0.03278,0.032711 -0.06995,0.050156 -0.109285,0.050156 H 20.776769 V 4.92196 h 1.278839 c 0.194482,0 0.375898,-0.032711 0.539891,-0.098156 0.163993,-0.065423 0.2951,-0.1613793 0.389183,-0.2878911 0.09604,-0.1264901 0.144174,-0.2813576 0.144174,-0.4602033 -0.0022,-0.1919347 -0.05902,-0.3555136 -0.174882,-0.4885372 z m -1.466766,1.0577858 c -0.0328,-0.032711 -0.05029,-0.069779 -0.05029,-0.1090453 V 3.4824827 h 0.607796 c 0.214084,0 0.378077,0.054512 0.491761,0.1635572 0.113684,0.1090672 0.170526,0.250824 0.170526,0.425314 0,0.1046896 -0.02635,0.2072014 -0.07427,0.30098 -0.05031,0.095978 -0.124791,0.1723122 -0.22519,0.2312015 -0.09844,0.058889 -0.220835,0.089423 -0.362832,0.089423 h -0.448225 c -0.03933,0.00218 -0.07431,-0.015267 -0.109285,-0.048 z M 21.439121,3.2578149 V 2.3221633 c 0,-0.039267 0.01529,-0.074156 0.05027,-0.1090671 0.0328,-0.032711 0.06995,-0.050156 0.109307,-0.050156 h 0.288566 c 0.20755,0 0.360654,0.052356 0.456915,0.1526679 0.09604,0.1025118 0.144174,0.2333793 0.144174,0.3947804 0,0.1657568 -0.04595,0.2988022 -0.135463,0.3991361 -0.08973,0.098134 -0.22519,0.1482904 -0.404428,0.1482904 z"
     fill="#00ed64"
     id="path5"
     style="stroke-width:0.0217786" />
  <path
     d="M 9.4083268,2.8832014 C 9.2412851,2.7919274 9.0547297,2.7441016 8.8529947,2.7441016 c -0.201735,0 -0.3904682,0.045648 -0.5553321,0.1390998 -0.1670417,0.091296 -0.2993684,0.2238839 -0.39698,0.3912523 -0.097612,0.1673684 -0.1475064,0.3630054 -0.1475064,0.5803557 0,0.2173503 0.049895,0.4129873 0.1475064,0.5803557 0.097612,0.1673684 0.2299383,0.2999565 0.39698,0.3912523 0.1670417,0.091274 0.3535971,0.1390998 0.5553321,0.1390998 0.201735,0 0.3904682,-0.045648 0.5553321,-0.1390998 C 9.5753686,4.7351216 9.7076952,4.6025335 9.8053069,4.4351651 9.9029185,4.2677967 9.9528132,4.0721597 9.9528132,3.8548094 9.9528132,3.6374591 9.9029185,3.4418221 9.8053069,3.2744537 9.7076952,3.1070853 9.5753686,2.9766751 9.4083268,2.8832014 Z m 0.16053,0.971608 c 0,0.2673539 -0.065074,0.4847042 -0.195245,0.6412051 -0.127971,0.1565009 -0.3036806,0.2369292 -0.5206171,0.2369292 -0.2169147,0 -0.3926461,-0.080428 -0.520617,-0.2369292 -0.1301706,-0.1565009 -0.195245,-0.3738512 -0.195245,-0.6412051 0,-0.2673539 0.065074,-0.4847042 0.195245,-0.6412051 0.1279709,-0.1565009 0.3037023,-0.2369292 0.520617,-0.2369292 0.2169365,0 0.3926461,0.080428 0.5206171,0.2369292 0.1301706,0.158657 0.195245,0.3738512 0.195245,0.6412051 z"
     fill="#00ed64"
     id="path6"
     style="stroke-width:0.0217786" />
  <path
     d="M 17.096167,2.8832014 C 16.929125,2.7919274 16.74257,2.7441016 16.540835,2.7441016 c -0.201735,0 -0.390469,0.045648 -0.555333,0.1390998 -0.167041,0.091296 -0.299368,0.2238839 -0.39698,0.3912523 -0.09761,0.1673684 -0.147506,0.3630054 -0.147506,0.5803557 0,0.2173503 0.0499,0.4129873 0.147506,0.5803557 0.09761,0.1673684 0.229939,0.2999565 0.39698,0.3912523 0.167042,0.091274 0.353598,0.1390998 0.555333,0.1390998 0.201735,0 0.390468,-0.045648 0.555332,-0.1390998 0.167041,-0.091296 0.299368,-0.2238839 0.39698,-0.3912523 0.09761,-0.1673684 0.147506,-0.3630054 0.147506,-0.5803557 0,-0.2173503 -0.04989,-0.4129873 -0.147506,-0.5803557 -0.09761,-0.1673684 -0.232116,-0.2977786 -0.39698,-0.3912523 z m 0.16053,0.971608 c 0,0.2673539 -0.0651,0.4847042 -0.195245,0.6412051 -0.127993,0.1565009 -0.303703,0.2369292 -0.520617,0.2369292 -0.216937,0 -0.392646,-0.080428 -0.520617,-0.2369292 -0.130171,-0.1565009 -0.195245,-0.3738512 -0.195245,-0.6412051 0,-0.2695317 0.06507,-0.4847042 0.195245,-0.6412051 0.127971,-0.1565009 0.30368,-0.2369292 0.520617,-0.2369292 0.216914,0 0.392624,0.080428 0.520617,0.2369292 0.127992,0.158657 0.195245,0.3738512 0.195245,0.6412051 z"
     fill="#00ed64"
     id="path7"
     style="stroke-width:0.0217786" />
  <path
     d="m 13.995789,2.7441016 c -0.174795,0 -0.334257,0.037111 -0.478453,0.1113539 -0.144196,0.074243 -0.257794,0.1747078 -0.338636,0.3035282 -0.08082,0.1266424 -0.12233,0.2685952 -0.12233,0.4192595 0,0.1353757 0.03058,0.2598403 0.09393,0.3712159 0.06118,0.1069982 0.144196,0.1965082 0.24906,0.2707514 l -0.312414,0.423637 c -0.03933,0.052399 -0.04369,0.122265 -0.01529,0.1790418 0.03058,0.058955 0.08737,0.093909 0.152929,0.093909 h 0.08957 c -0.0874,0.058955 -0.157307,0.1288203 -0.205372,0.2117967 -0.0568,0.093909 -0.0852,0.1921525 -0.0852,0.2925953 0,0.1877968 0.08302,0.3428385 0.246861,0.4585699 0.161684,0.1157314 0.388878,0.174686 0.67507,0.174686 0.198817,0 0.388879,-0.032755 0.561474,-0.096087 0.174773,-0.06331 0.316769,-0.1572196 0.421633,-0.2794846 0.107064,-0.1222867 0.161685,-0.2707731 0.161685,-0.4411034 0,-0.1790417 -0.06555,-0.305706 -0.218483,-0.427971 C 14.740769,4.7071579 14.535397,4.6525807 14.279782,4.6525807 h -0.873866 c -0.0022,0 -0.0044,-0.0022 -0.0044,-0.0022 0,0 -0.0022,-0.00436 0,-0.00653 l 0.227216,-0.305706 c 0.06118,0.028378 0.117974,0.045844 0.168218,0.056755 0.05242,0.010933 0.111419,0.015289 0.176951,0.015289 0.183528,0 0.349568,-0.037111 0.493742,-0.1113539 0.144196,-0.074243 0.259993,-0.174686 0.343013,-0.3035281 0.083,-0.1266425 0.124508,-0.2685735 0.124508,-0.4192378 0,-0.1615971 -0.07864,-0.456392 -0.292748,-0.6070562 0,-0.00218 0.0022,-0.00218 0.0022,-0.00218 l 0.469698,0.052399 V 2.8030563 h -0.751512 c -0.117975,-0.03931 -0.240305,-0.058955 -0.367013,-0.058955 z m 0.262149,1.364755 c -0.08302,0.043666 -0.172595,0.067688 -0.262149,0.067688 -0.146374,0 -0.275281,-0.052399 -0.384522,-0.1550417 -0.10922,-0.1026207 -0.163841,-0.2532849 -0.163841,-0.4454374 0,-0.1921742 0.05462,-0.3428385 0.163841,-0.4454591 0.109241,-0.1026425 0.238148,-0.1550418 0.384522,-0.1550418 0.09175,0 0.179129,0.021844 0.262149,0.067688 0.08302,0.043666 0.150751,0.1113756 0.205372,0.2008856 0.05242,0.089532 0.08082,0.2009075 0.08082,0.3319274 0,0.1331978 -0.02622,0.2445517 -0.08082,0.3319056 -0.05244,0.08951 -0.122352,0.1572196 -0.205372,0.2008854 z m -0.592051,0.8057423 h 0.592051 c 0.163862,0 0.268726,0.032755 0.338635,0.1026424 0.06991,0.069866 0.104864,0.1637532 0.104864,0.272951 0,0.1593975 -0.06335,0.2904175 -0.190062,0.3886824 -0.126729,0.098265 -0.297125,0.1484864 -0.506853,0.1484864 -0.183528,0 -0.336457,-0.041488 -0.447876,-0.1201089 -0.111419,-0.078599 -0.168218,-0.1987078 -0.168218,-0.3515499 0,-0.096087 0.02622,-0.1856188 0.07866,-0.2642178 0.05242,-0.078621 0.115775,-0.1353974 0.198795,-0.1768856 z"
     fill="#00ed64"
     id="path8"
     style="stroke-width:0.0217786" />
  <path
     d="m 23.572051,4.8855245 c -0.04312,-0.023586 -0.07557,-0.057887 -0.101489,-0.098613 -0.02374,-0.04286 -0.03681,-0.087877 -0.03681,-0.1371833 0,-0.049307 0.01307,-0.096457 0.03681,-0.1371833 0.02374,-0.042882 0.05837,-0.075027 0.101489,-0.098613 0.04334,-0.023564 0.09082,-0.036436 0.144827,-0.036436 0.05401,0 0.101488,0.012871 0.144828,0.036436 0.04312,0.023586 0.07557,0.057888 0.101488,0.098613 0.02374,0.04286 0.03681,0.087877 0.03681,0.1371833 0,0.049307 -0.01307,0.096457 -0.03681,0.1371833 -0.02374,0.042882 -0.05837,0.075027 -0.101488,0.098613 -0.04334,0.023564 -0.09082,0.036436 -0.144828,0.036436 -0.05183,0 -0.101488,-0.012871 -0.144827,-0.036436 z m 0.265916,-0.032167 c 0.03659,-0.019274 0.06272,-0.049285 0.08428,-0.083586 0.01938,-0.036436 0.03027,-0.077183 0.03027,-0.1221779 0,-0.045016 -0.01089,-0.085742 -0.03027,-0.1221996 -0.0196,-0.036436 -0.0477,-0.06429 -0.08428,-0.083586 -0.03681,-0.019296 -0.07579,-0.030011 -0.121089,-0.030011 -0.0453,0 -0.08428,0.010715 -0.121089,0.030011 -0.03659,0.019296 -0.06272,0.049307 -0.08428,0.083586 -0.01938,0.036457 -0.03027,0.077183 -0.03027,0.1221996 0,0.044995 0.01089,0.085742 0.03027,0.1221779 0.0196,0.036436 0.0477,0.064312 0.08428,0.083586 0.03681,0.019296 0.07579,0.030011 0.121089,0.030011 0.0453,0 0.08646,-0.010715 0.121089,-0.030011 z m -0.237822,-0.075005 v -0.019296 l 0.0044,-0.00216 h 0.01307 c 0.0041,0 0.0085,-0.00213 0.01067,-0.00429 0.0044,-0.00427 0.0044,-0.00642 0.0044,-0.010715 V 4.5425553 c 0,-0.00429 -0.0022,-0.00858 -0.0044,-0.010715 -0.0044,-0.00429 -0.0065,-0.00429 -0.01067,-0.00429 h -0.01307 l -0.0044,-0.00216 v -0.019274 l 0.0044,-0.00216 h 0.112377 c 0.03245,0 0.05619,0.00642 0.07557,0.02143 0.0196,0.015005 0.02809,0.034301 0.02809,0.060022 0,0.019296 -0.0063,0.038592 -0.02156,0.051441 -0.01503,0.015005 -0.03245,0.023586 -0.05401,0.025742 l 0.02592,0.00856 0.04966,0.079318 c 0.0044,0.00642 0.0087,0.00858 0.01525,0.00858 h 0.01285 l 0.0022,0.00213 v 0.019296 l -0.0022,0.00213 h -0.06686 l -0.0044,-0.00213 -0.06926,-0.1157532 h -0.01721 v 0.077161 c 0,0.00429 0.0022,0.00858 0.0044,0.010715 0.0044,0.00429 0.0065,0.00429 0.01067,0.00429 h 0.01307 l 0.0044,0.00216 v 0.019296 l -0.0044,0.00213 h -0.114555 z m 0.1102,-0.1393394 c 0.01742,0 0.03245,-0.00429 0.04116,-0.015006 0.0085,-0.00858 0.01503,-0.023586 0.01503,-0.040726 0,-0.017162 -0.0044,-0.030011 -0.01285,-0.040726 -0.0087,-0.010715 -0.02178,-0.015005 -0.03681,-0.015005 h -0.0087 c -0.0044,0 -0.0085,0.00213 -0.01067,0.00429 -0.0044,0.00427 -0.0044,0.00642 -0.0044,0.010715 v 0.096457 z"
     fill="#00ed64"
     id="path9"
     style="stroke-width:0.0217786" />
</svg>
