<?xml version="1.0" encoding="UTF-8" standalone="no"?>
<svg
   width="24"
   height="4.7954116"
   viewBox="0 0 24 4.7954116"
   fill="none"
   version="1.1"
   id="svg1"
   sodipodi:docname="logo-dark.svg"
   inkscape:version="1.4.2 (ebf0e940d0, 2025-05-08)"
   xmlns:inkscape="http://www.inkscape.org/namespaces/inkscape"
   xmlns:sodipodi="http://sodipodi.sourceforge.net/DTD/sodipodi-0.dtd"
   xmlns="http://www.w3.org/2000/svg"
   xmlns:svg="http://www.w3.org/2000/svg">
  <defs
     id="defs1" />
  <sodipodi:namedview
     id="namedview1"
     pagecolor="#ffffff"
     bordercolor="#000000"
     borderopacity="0.25"
     inkscape:showpageshadow="2"
     inkscape:pageopacity="0.0"
     inkscape:pagecheckerboard="0"
     inkscape:deskcolor="#d1d1d1"
     inkscape:zoom="0.32128906"
     inkscape:cx="1024"
     inkscape:cy="202.31003"
     inkscape:window-width="1366"
     inkscape:window-height="699"
     inkscape:window-x="0"
     inkscape:window-y="0"
     inkscape:window-maximized="1"
     inkscape:current-layer="svg1" />
  <path
     fill-rule="evenodd"
     clip-rule="evenodd"
     d="M 5.5147229,4.7954115 2.7573615,0 0,4.7954115 Z M 8.2959156,4.5771202 10.600272,0.21798521 H 9.6035393 L 8.0139526,3.3837446 6.4243542,0.21798521 H 5.4276212 L 7.7319779,4.5771202 Z M 24,0.21798521 V 4.577132 H 23.174875 V 0.21798521 Z M 19.406836,2.9500998 c 0,-0.3397241 0.0709,-0.6385222 0.212711,-0.8963826 0.141807,-0.2578722 0.339535,-0.4563788 0.593066,-0.5955434 0.25353,-0.1391647 0.550122,-0.208747 0.889658,-0.208747 0.300839,0 0.571594,0.065489 0.812265,0.1964657 0.240671,0.130977 0.431911,0.3254017 0.573718,0.5832621 0.141807,0.2578722 0.214952,0.5730336 0.2192,0.9455078 v 0.1903309 h -2.430308 c 0.01711,0.2701417 0.09662,0.4829824 0.238429,0.6385221 0.146173,0.151446 0.341777,0.2271631 0.586696,0.2271631 0.154666,0 0.296592,-0.040926 0.425421,-0.1227896 0.128948,-0.081864 0.225689,-0.1923719 0.290104,-0.3315365 l 0.844591,0.061395 c -0.103229,0.3069739 -0.296592,0.5525647 -0.580207,0.7367491 -0.283732,0.1841961 -0.61029,0.2762882 -0.979909,0.2762882 -0.339536,0 -0.636128,-0.069582 -0.889658,-0.2087469 C 19.959082,4.302873 19.761354,4.1043545 19.619547,3.8464941 19.477739,3.5886219 19.406836,3.2898356 19.406836,2.9500998 Z M 21.856492,2.6431259 C 21.826408,2.3770662 21.742645,2.1826533 21.605085,2.059852 21.467525,1.9329687 21.299999,1.8695211 21.102271,1.8695211 c -0.227812,0 -0.412563,0.067541 -0.55437,0.2026122 -0.141926,0.1350709 -0.229936,0.3254017 -0.264385,0.5709926 z M 18.014482,2.059852 c 0.13756,0.11052 0.223446,0.2640069 0.257895,0.4604726 l 0.850844,-0.042979 C 19.093137,2.227673 19.005127,2.0107385 18.858955,1.8265424 18.712782,1.6423581 18.523784,1.5011525 18.291607,1.4029138 18.063914,1.3005813 17.812506,1.2494268 17.537386,1.2494268 c -0.339535,0 -0.636009,0.069582 -0.889658,0.208747 -0.25353,0.1391646 -0.451258,0.3376712 -0.593066,0.5955434 -0.141807,0.2578604 -0.212711,0.5566585 -0.212711,0.8963826 0,0.3397358 0.0709,0.6385221 0.212711,0.8963943 0.141808,0.2578604 0.339536,0.4563789 0.593066,0.5955435 0.253649,0.1391646 0.550123,0.2087469 0.889658,0.2087469 0.283615,0 0.541511,-0.051166 0.77357,-0.1534869 0.232177,-0.1064263 0.421174,-0.2558194 0.567347,-0.4482031 0.146172,-0.1923718 0.234182,-0.4174939 0.264266,-0.6753543 l -0.857332,-0.036844 c -0.03008,0.2169345 -0.113965,0.3847555 -0.251407,0.5034513 -0.137561,0.1146138 -0.303081,0.1719148 -0.496444,0.1719148 -0.26639,0 -0.47273,-0.092092 -0.618903,-0.2762883 -0.146054,-0.1841843 -0.219081,-0.4461385 -0.219081,-0.7858743 0,-0.3397241 0.07303,-0.6016782 0.219081,-0.7858743 0.146173,-0.1841844 0.352513,-0.2762765 0.618903,-0.2762765 0.184869,0 0.343783,0.057301 0.477096,0.1719031 z M 13.828571,1.3229495 h 0.767906 l 0.02218,0.6262881 c 0.0545,-0.1772709 0.130246,-0.3149373 0.22734,-0.412999 0.140745,-0.1421848 0.337058,-0.2132891 0.588701,-0.2132891 h 0.31358 v 0.6703404 h -0.319951 c -0.179206,0 -0.326322,0.024374 -0.441585,0.073122 -0.110897,0.04876 -0.196194,0.1259395 -0.25589,0.2315753 -0.05545,0.105624 -0.08317,0.2396921 -0.08317,0.4021924 v 1.876941 h -0.819108 z m -3.541938,0.7307677 c -0.141819,0.2578604 -0.212735,0.5566585 -0.212735,0.8963826 0,0.3397358 0.07092,0.6385221 0.212735,0.8963943 0.141831,0.2578604 0.339523,0.4563789 0.593101,0.5955435 0.253566,0.1391646 0.550111,0.2087469 0.889634,0.2087469 0.369549,0 0.696225,-0.092092 0.979839,-0.2762882 0.283733,-0.1841844 0.477096,-0.4297752 0.580207,-0.7367491 l -0.844473,-0.061395 c -0.06441,0.1391646 -0.161156,0.2496729 -0.290103,0.3315365 -0.128948,0.081864 -0.270756,0.1227896 -0.42547,0.1227896 -0.244977,0 -0.440522,-0.075717 -0.586648,-0.2271631 C 11.04089,3.6479757 10.961385,3.435135 10.944196,3.1649933 h 2.430403 V 2.9746624 C 13.370234,2.6021882 13.297206,2.2870268 13.155399,2.0291546 13.013592,1.7712942 12.822353,1.5768695 12.581681,1.4458925 12.34101,1.3149154 12.070255,1.2494268 11.769368,1.2494268 c -0.339523,0 -0.636068,0.069582 -0.889634,0.208747 -0.253578,0.1391646 -0.45127,0.3376712 -0.593101,0.5955434 z m 1.985597,0.00613 c 0.137442,0.1228013 0.221323,0.3172142 0.251407,0.5832739 h -1.572999 c 0.03439,-0.2455909 0.122494,-0.4359217 0.264314,-0.5709926 0.14183,-0.1350709 0.326628,-0.2026122 0.554416,-0.2026122 0.197658,0 0.365302,0.063448 0.502862,0.1903309 z"
     fill="#ffffff"
     id="path1"
     style="stroke-width:0.0117976" />
</svg>
