<?xml version="1.0" encoding="UTF-8" standalone="no"?>
<svg
   width="24"
   height="4.7954116"
   viewBox="0 0 24 4.7954116"
   fill="none"
   version="1.1"
   id="svg1"
   sodipodi:docname="logo-light.svg"
   inkscape:version="1.4.2 (ebf0e940d0, 2025-05-08)"
   xmlns:inkscape="http://www.inkscape.org/namespaces/inkscape"
   xmlns:sodipodi="http://sodipodi.sourceforge.net/DTD/sodipodi-0.dtd"
   xmlns="http://www.w3.org/2000/svg"
   xmlns:svg="http://www.w3.org/2000/svg">
  <defs
     id="defs1" />
  <sodipodi:namedview
     id="namedview1"
     pagecolor="#ffffff"
     bordercolor="#000000"
     borderopacity="0.25"
     inkscape:showpageshadow="2"
     inkscape:pageopacity="0.0"
     inkscape:pagecheckerboard="0"
     inkscape:deskcolor="#d1d1d1"
     inkscape:zoom="0.32128906"
     inkscape:cx="1024"
     inkscape:cy="202.31003"
     inkscape:window-width="1366"
     inkscape:window-height="699"
     inkscape:window-x="0"
     inkscape:window-y="0"
     inkscape:window-maximized="1"
     inkscape:current-layer="svg1" />
  <path
     fill-rule="evenodd"
     clip-rule="evenodd"
     d="M 5.5147229,4.7954117 2.7573615,0 0,4.7954117 Z M 8.2959156,4.5771205 10.600272,0.21798544 H 9.6035393 L 8.0139526,3.3837448 6.4243542,0.21798544 H 5.4276212 L 7.7319779,4.5771205 Z M 24,0.21798544 V 4.5771323 H 23.174875 V 0.21798544 Z M 19.406836,2.9501 c 0,-0.339724 0.0709,-0.6385221 0.212711,-0.8963825 0.141807,-0.2578722 0.339535,-0.4563789 0.593066,-0.5955435 0.25353,-0.1391646 0.550122,-0.2087587 0.889658,-0.2087587 0.300839,0 0.571594,0.0655 0.812265,0.1964774 0.240671,0.1309771 0.431911,0.3254017 0.573718,0.5832621 0.141807,0.2578722 0.214952,0.5730336 0.2192,0.9455078 v 0.1903309 h -2.430308 c 0.01711,0.2701417 0.09662,0.4829825 0.238429,0.6385222 0.146173,0.1514459 0.341777,0.227163 0.586696,0.227163 0.154666,0 0.296592,-0.040926 0.425421,-0.1227896 0.128948,-0.081864 0.225689,-0.1923718 0.290104,-0.3315364 l 0.844591,0.061395 c -0.103229,0.3069739 -0.296592,0.5525648 -0.580207,0.7367491 -0.283732,0.1841961 -0.61029,0.2762883 -0.979909,0.2762883 -0.339536,0 -0.636128,-0.069582 -0.889658,-0.208747 C 19.959082,4.3028732 19.761354,4.1043548 19.619547,3.8464944 19.477739,3.5886222 19.406836,3.2898358 19.406836,2.9501 Z M 21.856492,2.6431262 C 21.826408,2.3770664 21.742645,2.1826536 21.605085,2.0598522 21.467525,1.9329689 21.299999,1.8695213 21.102271,1.8695213 c -0.227812,0 -0.412563,0.067541 -0.55437,0.2026122 -0.141926,0.1350709 -0.229936,0.3254018 -0.264385,0.5709927 z m -3.84201,-0.583274 c 0.13756,0.11052 0.223446,0.264007 0.257895,0.4604726 l 0.850844,-0.042979 C 19.093137,2.2276732 19.005127,2.0107388 18.858955,1.8265426 18.712782,1.6423583 18.523784,1.5011527 18.291607,1.402914 18.063914,1.3005815 17.812506,1.2494153 17.537386,1.2494153 c -0.339535,0 -0.636009,0.069594 -0.889658,0.2087587 -0.25353,0.1391646 -0.451258,0.3376713 -0.593066,0.5955435 -0.141807,0.2578604 -0.212711,0.5566585 -0.212711,0.8963825 0,0.3397358 0.0709,0.6385222 0.212711,0.8963944 0.141808,0.2578604 0.339536,0.4563788 0.593066,0.5955434 0.253649,0.1391647 0.550123,0.208747 0.889658,0.208747 0.283615,0 0.541511,-0.051166 0.77357,-0.153487 0.232177,-0.1064262 0.421174,-0.2558194 0.567347,-0.448203 0.146172,-0.1923719 0.234182,-0.4174939 0.264266,-0.6753543 l -0.857332,-0.036844 c -0.03008,0.2169345 -0.113965,0.3847555 -0.251407,0.5034513 -0.137561,0.1146138 -0.303081,0.1719148 -0.496444,0.1719148 -0.26639,0 -0.47273,-0.092092 -0.618903,-0.2762883 C 16.772429,3.55179 16.699402,3.2898358 16.699402,2.9501 c 0,-0.339724 0.07303,-0.6016782 0.219081,-0.7858743 0.146173,-0.1841843 0.352513,-0.2762765 0.618903,-0.2762765 0.184869,0 0.343783,0.057301 0.477096,0.171903 z M 13.828571,1.3229498 h 0.767906 l 0.02218,0.626288 c 0.0545,-0.1772709 0.130246,-0.3149372 0.22734,-0.412999 0.140745,-0.1421848 0.337058,-0.213289 0.588701,-0.213289 h 0.31358 v 0.6703403 h -0.319951 c -0.179206,0 -0.326322,0.024374 -0.441585,0.073122 -0.110897,0.048748 -0.196194,0.1259395 -0.25589,0.2315753 -0.05545,0.105624 -0.08317,0.2396921 -0.08317,0.4021924 V 4.5771209 H 13.828574 Z M 10.286633,2.0537175 C 10.144814,2.3115779 10.073898,2.610376 10.073898,2.9501 c 0,0.3397358 0.07092,0.6385222 0.212735,0.8963944 0.141831,0.2578604 0.339523,0.4563788 0.593101,0.5955434 0.253566,0.1391647 0.550111,0.208747 0.889634,0.208747 0.369549,0 0.696225,-0.092092 0.979839,-0.2762883 0.283733,-0.1841843 0.477096,-0.4297752 0.580207,-0.7367491 l -0.844473,-0.061395 c -0.06441,0.1391646 -0.161156,0.2496728 -0.290103,0.3315364 -0.128948,0.081864 -0.270756,0.1227896 -0.42547,0.1227896 -0.244977,0 -0.440522,-0.075717 -0.586648,-0.227163 C 11.04089,3.647976 10.961385,3.4351352 10.944196,3.1649935 h 2.430403 V 2.9746626 C 13.370234,2.6021884 13.297206,2.287027 13.155399,2.0291548 13.013592,1.7712944 12.822353,1.5768698 12.581681,1.4458927 12.34101,1.3149156 12.070255,1.2494153 11.769368,1.2494153 c -0.339523,0 -0.636068,0.069594 -0.889634,0.2087587 -0.253578,0.1391646 -0.45127,0.3376713 -0.593101,0.5955435 z m 1.985597,0.00613 c 0.137442,0.1228014 0.221323,0.3172142 0.251407,0.583274 h -1.572999 c 0.03439,-0.2455909 0.122494,-0.4359218 0.264314,-0.5709927 0.14183,-0.1350708 0.326628,-0.2026122 0.554416,-0.2026122 0.197658,0 0.365302,0.063448 0.502862,0.1903309 z"
     fill="#000000"
     id="path1"
     style="stroke-width:0.0117976" />
</svg>
