<?xml version="1.0" encoding="UTF-8" standalone="no"?>
<!-- Created with Inkscape (http://www.inkscape.org/) -->

<svg
   width="24mm"
   height="18.00441mm"
   viewBox="0 0 24 18.00441"
   version="1.1"
   id="svg1"
   inkscape:version="1.4.3 (0d15f75042, 2025-12-25)"
   sodipodi:docname="icon.svg"
   xmlns:inkscape="http://www.inkscape.org/namespaces/inkscape"
   xmlns:sodipodi="http://sodipodi.sourceforge.net/DTD/sodipodi-0.dtd"
   xmlns="http://www.w3.org/2000/svg"
   xmlns:svg="http://www.w3.org/2000/svg">
  <sodipodi:namedview
     id="namedview1"
     pagecolor="#ffffff"
     bordercolor="#999999"
     borderopacity="1"
     inkscape:showpageshadow="2"
     inkscape:pageopacity="0"
     inkscape:pagecheckerboard="0"
     inkscape:deskcolor="#d1d1d1"
     inkscape:document-units="mm"
     inkscape:zoom="2.5247521"
     inkscape:cx="50.896085"
     inkscape:cy="25.150984"
     inkscape:window-width="1366"
     inkscape:window-height="707"
     inkscape:window-x="0"
     inkscape:window-y="0"
     inkscape:window-maximized="1"
     inkscape:current-layer="layer1" />
  <defs
     id="defs1" />
  <g
     inkscape:label="Layer 1"
     inkscape:groupmode="layer"
     id="layer1"
     transform="translate(-30.427083,-77.258333)">
    <g
       id="g35"
       transform="matrix(0.27272727,0,0,0.27272727,16.245265,65.808197)">
      <path
         d="M 58,108 H 72 V 74 L 52,59 v 43 c 0,3.315 2.685,6 6,6 z"
         fill="#4285f4"
         id="path1" />
      <path
         d="m 120,108 h 14 c 3.315,0 6,-2.685 6,-6 V 59 l -20,15 z"
         fill="#34a853"
         id="path2" />
      <path
         d="m 120,48 v 26 l 20,-15 v -8 c 0,-7.415 -8.465,-11.65 -14.4,-7.2 z"
         fill="#fbbc04"
         id="path3" />
      <path
         fill-rule="evenodd"
         clip-rule="evenodd"
         d="M 72,74 V 48 L 96,66 120,48 V 74 L 96,92 Z"
         fill="#ea4335"
         id="path4" />
      <path
         d="m 52,51 v 8 L 72,74 V 48 L 66.4,43.8 C 60.465,39.35 52,43.585 52,51 Z"
         fill="#c5221f"
         id="path5" />
    </g>
  </g>
</svg>
