<?xml version="1.0" encoding="UTF-8" standalone="no"?>
<!-- Created with Inkscape (http://www.inkscape.org/) -->

<svg
   version="1.0"
   id="svg2"
   sodipodi:version="0.32"
   inkscape:version="1.4.2 (ebf0e940d0, 2025-05-08)"
   sodipodi:docname="logo.svg"
   width="23.999998pt"
   height="6.9656286pt"
   viewBox="0 0 29.999998 8.707036"
   xmlns:inkscape="http://www.inkscape.org/namespaces/inkscape"
   xmlns:sodipodi="http://sodipodi.sourceforge.net/DTD/sodipodi-0.dtd"
   xmlns:xlink="http://www.w3.org/1999/xlink"
   xmlns="http://www.w3.org/2000/svg"
   xmlns:svg="http://www.w3.org/2000/svg"
   xmlns:rdf="http://www.w3.org/1999/02/22-rdf-syntax-ns#"
   xmlns:cc="http://creativecommons.org/ns#"
   xmlns:dc="http://purl.org/dc/elements/1.1/">
  <metadata
     id="metadata371">
    <rdf:RDF>
      <cc:Work
         rdf:about="">
        <dc:format>image/svg+xml</dc:format>
        <dc:type
           rdf:resource="http://purl.org/dc/dcmitype/StillImage" />
      </cc:Work>
    </rdf:RDF>
  </metadata>
  <sodipodi:namedview
     inkscape:window-height="707"
     inkscape:window-width="1024"
     inkscape:pageshadow="2"
     inkscape:pageopacity="0.0"
     guidetolerance="10.0"
     gridtolerance="10.0"
     objecttolerance="10.0"
     borderopacity="1.0"
     bordercolor="#666666"
     pagecolor="#ffffff"
     id="base"
     inkscape:zoom="2.1461642"
     inkscape:cx="244.62248"
     inkscape:cy="64.067791"
     inkscape:window-x="12"
     inkscape:window-y="10"
     inkscape:current-layer="svg2"
     width="210mm"
     height="40mm"
     units="mm"
     inkscape:showpageshadow="2"
     inkscape:pagecheckerboard="0"
     inkscape:deskcolor="#d1d1d1"
     inkscape:document-units="pt"
     inkscape:window-maximized="0" />
  <defs
     id="defs4">
    <linearGradient
       id="linearGradient2795">
      <stop
         style="stop-color:#b8b8b8;stop-opacity:0.49803922;"
         offset="0"
         id="stop2797" />
      <stop
         style="stop-color:#7f7f7f;stop-opacity:0;"
         offset="1"
         id="stop2799" />
    </linearGradient>
    <linearGradient
       id="linearGradient2787">
      <stop
         style="stop-color:#7f7f7f;stop-opacity:0.5;"
         offset="0"
         id="stop2789" />
      <stop
         style="stop-color:#7f7f7f;stop-opacity:0;"
         offset="1"
         id="stop2791" />
    </linearGradient>
    <linearGradient
       id="linearGradient3676">
      <stop
         style="stop-color:#b2b2b2;stop-opacity:0.5;"
         offset="0"
         id="stop3678" />
      <stop
         style="stop-color:#b3b3b3;stop-opacity:0;"
         offset="1"
         id="stop3680" />
    </linearGradient>
    <linearGradient
       id="linearGradient3236">
      <stop
         style="stop-color:#f4f4f4;stop-opacity:1"
         offset="0"
         id="stop3244" />
      <stop
         style="stop-color:white;stop-opacity:1"
         offset="1"
         id="stop3240" />
    </linearGradient>
    <linearGradient
       id="linearGradient4671">
      <stop
         style="stop-color:#ffd43b;stop-opacity:1;"
         offset="0"
         id="stop4673" />
      <stop
         style="stop-color:#ffe873;stop-opacity:1"
         offset="1"
         id="stop4675" />
    </linearGradient>
    <linearGradient
       id="linearGradient4689">
      <stop
         style="stop-color:#5a9fd4;stop-opacity:1;"
         offset="0"
         id="stop4691" />
      <stop
         style="stop-color:#306998;stop-opacity:1;"
         offset="1"
         id="stop4693" />
    </linearGradient>
    <linearGradient
       x1="224.23996"
       y1="144.75717"
       x2="-65.308502"
       y2="144.75717"
       id="linearGradient2987"
       xlink:href="#linearGradient4671"
       gradientUnits="userSpaceOnUse"
       gradientTransform="translate(100.2702,99.61116)" />
    <linearGradient
       x1="172.94208"
       y1="77.475983"
       x2="26.670298"
       y2="76.313133"
       id="linearGradient2990"
       xlink:href="#linearGradient4689"
       gradientUnits="userSpaceOnUse"
       gradientTransform="translate(100.2702,99.61116)" />
    <linearGradient
       inkscape:collect="always"
       xlink:href="#linearGradient4689"
       id="linearGradient2587"
       gradientUnits="userSpaceOnUse"
       gradientTransform="translate(100.2702,99.61116)"
       x1="172.94208"
       y1="77.475983"
       x2="26.670298"
       y2="76.313133" />
    <linearGradient
       inkscape:collect="always"
       xlink:href="#linearGradient4671"
       id="linearGradient2589"
       gradientUnits="userSpaceOnUse"
       gradientTransform="translate(100.2702,99.61116)"
       x1="224.23996"
       y1="144.75717"
       x2="-65.308502"
       y2="144.75717" />
    <linearGradient
       inkscape:collect="always"
       xlink:href="#linearGradient4689"
       id="linearGradient2248"
       gradientUnits="userSpaceOnUse"
       gradientTransform="translate(100.2702,99.61116)"
       x1="172.94208"
       y1="77.475983"
       x2="26.670298"
       y2="76.313133" />
    <linearGradient
       inkscape:collect="always"
       xlink:href="#linearGradient4671"
       id="linearGradient2250"
       gradientUnits="userSpaceOnUse"
       gradientTransform="translate(100.2702,99.61116)"
       x1="224.23996"
       y1="144.75717"
       x2="-65.308502"
       y2="144.75717" />
    <linearGradient
       inkscape:collect="always"
       xlink:href="#linearGradient4671"
       id="linearGradient2255"
       gradientUnits="userSpaceOnUse"
       gradientTransform="matrix(0.562541,0,0,0.567972,-11.5974,-7.60954)"
       x1="224.23996"
       y1="144.75717"
       x2="-65.308502"
       y2="144.75717" />
    <linearGradient
       inkscape:collect="always"
       xlink:href="#linearGradient4689"
       id="linearGradient2258"
       gradientUnits="userSpaceOnUse"
       gradientTransform="matrix(0.562541,0,0,0.567972,-11.5974,-7.60954)"
       x1="172.94208"
       y1="76.176224"
       x2="26.670298"
       y2="76.313133" />
    <radialGradient
       inkscape:collect="always"
       xlink:href="#linearGradient2795"
       id="radialGradient2801"
       cx="61.518883"
       cy="132.28575"
       fx="61.518883"
       fy="132.28575"
       r="29.036913"
       gradientTransform="matrix(1,0,0,0.177966,0,108.7434)"
       gradientUnits="userSpaceOnUse" />
    <linearGradient
       inkscape:collect="always"
       xlink:href="#linearGradient4671"
       id="linearGradient1475"
       gradientUnits="userSpaceOnUse"
       gradientTransform="matrix(0.03554383,0,0,0.03588698,-0.94720527,-0.5412978)"
       x1="150.96111"
       y1="192.35176"
       x2="112.03144"
       y2="137.27299" />
    <linearGradient
       inkscape:collect="always"
       xlink:href="#linearGradient4689"
       id="linearGradient1478"
       gradientUnits="userSpaceOnUse"
       gradientTransform="matrix(0.03554383,0,0,0.03588698,-0.94720527,-0.5412978)"
       x1="26.648937"
       y1="20.603781"
       x2="135.66525"
       y2="114.39767" />
    <radialGradient
       inkscape:collect="always"
       xlink:href="#linearGradient2795"
       id="radialGradient1480"
       gradientUnits="userSpaceOnUse"
       gradientTransform="matrix(0,-0.01516091,0.0666386,2.3956664e-8,-5.288587,9.1994901)"
       cx="61.518883"
       cy="132.28575"
       fx="61.518883"
       fy="132.28575"
       r="29.036913" />
  </defs>
  <path
     id="path46"
     style="fill:#646464;fill-opacity:1;stroke-width:0.0631844"
     d="m 11.311406,3.7068868 c 0,-0.9201011 -0.262358,-1.3924691 -0.787074,-1.4183356 -0.208779,-0.00985 -0.41263,0.023403 -0.6109376,0.1003862 -0.158277,0.056659 -0.264821,0.1127033 -0.320865,0.1693627 v 2.1961718 c 0.335645,0.2106259 0.6337236,0.3085478 0.8936186,0.2931517 0.549967,-0.036336 0.825258,-0.4828377 0.825258,-1.3407368 z m 0.647273,0.038184 c 0,0.4674409 -0.109623,0.8554356 -0.330103,1.1639834 -0.24573,0.3491951 -0.586303,0.5290274 -1.021719,0.5388817 -0.328255,0.01047 -0.6663646,-0.09238 -1.0143276,-0.3079325 v 1.9960157 l -0.5629,-0.200772 V 2.5047197 C 9.1220094,2.3914009 9.2408704,2.2940944 9.3849824,2.2115686 9.7200134,2.0163395 10.127099,1.9159533 10.606241,1.9110268 l 0.008,0.00801 c 0.43788,-0.00554 0.775374,0.1742898 1.012481,0.538881 0.221095,0.3344143 0.331951,0.7630562 0.331951,1.2871565 z" />
  <path
     id="path48"
     style="fill:#646464;fill-opacity:1;stroke-width:0.0631844"
     d="m 15.398897,5.0550136 c 0,0.62695 -0.06282,1.0611342 -0.188454,1.3025531 -0.126253,0.2414188 -0.366439,0.4341844 -0.721178,0.5776804 -0.287608,0.113319 -0.59862,0.174905 -0.932418,0.185375 l -0.09299,-0.354737 c 0.33934,-0.04619 0.578296,-0.092381 0.716865,-0.1385702 0.272828,-0.092379 0.460051,-0.2340282 0.5629,-0.4237148 0.08253,-0.1545817 0.123173,-0.4495803 0.123173,-0.8862283 V 5.1707966 c -0.384915,0.1749052 -0.788306,0.2617421 -1.210173,0.2617421 -0.277139,0 -0.521637,-0.086837 -0.732262,-0.2617421 C 12.687862,4.9804939 12.569616,4.7390751 12.569616,4.4465401 V 2.1037924 l 0.5629,-0.1927656 v 2.3581438 c 0,0.2518885 0.08129,0.4458862 0.243883,0.5819924 0.162588,0.1361056 0.373214,0.2013871 0.631261,0.1964606 0.258047,-0.00554 0.53457,-0.1053133 0.828337,-0.3005418 V 1.9960162 h 0.5629 z" />
  <path
     id="path50"
     style="fill:#646464;fill-opacity:1;stroke-width:0.0631844"
     d="m 17.596301,5.4171419 c -0.06713,0.00554 -0.128716,0.00801 -0.185375,0.00801 -0.318402,0 -0.566596,-0.075751 -0.743965,-0.2278696 C 16.490208,5.04516 16.401524,4.8351502 16.401524,4.5672495 V 2.3501377 H 16.015993 V 1.9960162 h 0.385531 V 1.0555912 L 16.963808,0.855435 v 1.1405812 h 0.632493 v 0.3541215 h -0.632493 v 2.201715 c 0,0.2112413 0.05666,0.3608962 0.169979,0.4483491 0.09731,0.072056 0.251888,0.1133194 0.462514,0.123789 z" />
  <path
     id="path52"
     style="fill:#646464;fill-opacity:1;stroke-width:0.0631844"
     d="m 21.004493,5.3709522 h -0.5629 V 3.1981833 c 0,-0.2210956 -0.05173,-0.4113976 -0.154581,-0.5702906 -0.118862,-0.1798324 -0.283914,-0.2697489 -0.495771,-0.2697489 -0.258048,0 -0.580761,0.1361062 -0.968138,0.4083186 V 5.3709522 H 18.260202 V 0.1773688 L 18.823103,0 v 2.3655345 c 0.359664,-0.2617421 0.752585,-0.3929212 1.179379,-0.3929212 0.298079,0 0.539497,0.1003855 0.724256,0.3005418 0.185376,0.2001556 0.277755,0.4495805 0.277755,0.7476587 z" />
  <path
     id="path54"
     style="fill:#646464;fill-opacity:1;stroke-width:0.0631844"
     d="m 23.996362,3.6182024 c 0,-0.3535062 -0.06713,-0.6454258 -0.200772,-0.876375 -0.158892,-0.2814499 -0.405854,-0.4298733 -0.739653,-0.4452701 -0.617095,0.035721 -0.925027,0.4779112 -0.925027,1.3253401 0,0.3886107 0.06405,0.7131708 0.19338,0.9736814 0.165052,0.3319508 0.41263,0.4957709 0.742733,0.4902284 0.619559,-0.00493 0.929339,-0.4939234 0.929339,-1.4676048 z m 0.616481,0.0037 c 0,0.5031616 -0.128716,0.9219492 -0.385532,1.2563635 -0.282681,0.3744454 -0.673139,0.5622839 -1.171374,0.5622839 -0.493923,0 -0.878838,-0.1878385 -1.156593,-0.5622839 -0.251888,-0.3344193 -0.377525,-0.7532069 -0.377525,-1.2563685 0,-0.4729835 0.136107,-0.8708318 0.408318,-1.1947764 0.28761,-0.3436525 0.66575,-0.5160942 1.13319,-0.5160942 0.467442,0 0.848045,0.1724417 1.141198,0.5160942 0.272211,0.3239446 0.408318,0.7217929 0.408318,1.1947764 z" />
  <path
     id="path56"
     style="fill:#646464;fill-opacity:1;stroke-width:0.0631844"
     d="m 27.839971,5.3709522 h -0.5629 V 3.0750103 c 0,-0.2518885 -0.07575,-0.4483491 -0.227254,-0.5899985 -0.151503,-0.1410327 -0.353506,-0.2093938 -0.605394,-0.2038506 -0.267285,0.00493 -0.521638,0.092379 -0.763056,0.2617421 v 2.8280489 h -0.5629 V 2.4733107 c 0.323945,-0.2358757 0.622023,-0.3898422 0.894234,-0.4618984 0.256816,-0.067129 0.483454,-0.1003855 0.678684,-0.1003855 0.133642,0 0.259278,0.012933 0.377524,0.038799 0.221095,0.051117 0.400927,0.1459599 0.539497,0.2851457 0.154581,0.1539659 0.231565,0.3387254 0.231565,0.5548932 z" />
  <path
     style="fill:url(#linearGradient1478);fill-opacity:1;stroke-width:0.0631844"
     d="M 3.4700118,0.1981678 C 3.1803963,0.1995135 2.9038201,0.2242136 2.6604614,0.2672758 1.9435573,0.3939292 1.8133953,0.6590257 1.8133952,1.1479087 V 1.7935746 H 3.5075276 V 2.0087965 H 1.8133952 1.1776019 c -0.49236197,0 -0.92348827,0.295938 -1.05833907,0.8589133 -0.1555487,0.6453004 -0.1624481,1.0479783 0,1.7217755 0.120425,0.5015486 0.4080162,0.8589132 0.90037807,0.8589133 H 1.6021223 V 4.6743894 c 0,-0.559176 0.4838122,-1.0524154 1.0583391,-1.0524156 h 1.6921579 c 0.4710371,0 0.8470661,-0.3878363 0.8470661,-0.8608877 V 1.1479087 c 0,-0.4591194 -0.387319,-0.8040077 -0.8470661,-0.8806329 C 4.0615926,0.2188307 3.7596273,0.1968221 3.4700118,0.1981678 Z m -0.9161741,0.519297 c 0.1749922,0 0.3178966,0.1452387 0.3178966,0.3238202 -10e-8,0.1779486 -0.1429044,0.3218457 -0.3178966,0.3218457 C 2.3782181,1.3631306 2.235941,1.2192335 2.235941,1.041285 c 0,-0.1785815 0.1422771,-0.3238202 0.3178967,-0.3238202 z"
     id="path1948" />
  <path
     style="fill:url(#linearGradient1475);fill-opacity:1;stroke-width:0.0631844"
     d="m 5.4109584,2.0087965 v 0.7522896 c 0,0.5832399 -0.494475,1.0741351 -1.0583391,1.0741352 H 2.6604614 c -0.4635104,0 -0.8470661,0.3967023 -0.8470662,0.8608878 v 1.6131771 c 0,0.4591199 0.3992363,0.7291689 0.8470662,0.8608879 0.5362671,0.157684 1.0505192,0.186181 1.6921579,0 0.4265051,-0.123487 0.8470661,-0.372005 0.8470661,-0.8608879 V 5.6636206 H 3.5075276 v -0.215222 h 1.6921578 0.847066 c 0.492363,0 0.675837,-0.3434331 0.847066,-0.8589133 0.176874,-0.5306787 0.169348,-1.0410124 0,-1.7217755 C 6.7721384,2.3775603 6.5397404,2.0087965 6.0467514,2.0087965 Z m -0.951715,4.0852679 c 0.175619,2e-7 0.317896,0.1438973 0.317896,0.3218455 0,0.1785813 -0.142277,0.3238202 -0.317896,0.3238202 -0.1749929,0 -0.3178971,-0.1452389 -0.3178971,-0.3238202 2e-7,-0.1779482 0.1429041,-0.3218455 0.3178971,-0.3218455 z"
     id="path1950" />
  <path
     d="m 28.93613,1.4941695 h 0.09869 V 0.8751997 h 0.23379 V 0.8014218 h -0.566271 v 0.073778 h 0.233791 v 0.6189698 m 0.419988,0 h 0.08432 v -0.565313 l 0.183008,0.565242 h 0.09387 L 29.908017,0.930773 v 0.5633966 h 0.09198 V 0.8014218 H 29.878314 L 29.669912,1.394904 29.492176,0.8014218 h -0.136058 v 0.6927477"
     style="font-style:normal;font-weight:normal;font-size:15.1645px;line-height:125%;font-family:'Bitstream Vera Sans';fill:#646464;fill-opacity:1;stroke:none;stroke-width:0.0631844px;stroke-linecap:butt;stroke-linejoin:miter;stroke-opacity:1"
     id="text3004"
     sodipodi:nodetypes="ccccccccccccccccccccccc" />
  <ellipse
     style="opacity:0.44382;fill:url(#radialGradient1480);fill-opacity:1;fill-rule:nonzero;stroke:none;stroke-width:0.974138;stroke-miterlimit:4;stroke-dasharray:none;stroke-opacity:1"
     id="path1894"
     cx="3.5267496"
     cy="8.2668104"
     rx="2.2702782"
     ry="0.44022557" />
</svg>
